{"glyphs":{"0":{"ha":874,"x_min":75,"x_max":799,"o":"m 438 -19 q 173 66 271 -19 q 75 294 75 151 l 75 688 q 100 817 75 758 q 172 917 125 875 q 287 981 219 958 q 436 1003 354 1003 q 701 917 603 1003 q 799 688 799 832 l 799 294 q 701 66 799 151 q 438 -19 604 -19 m 436 139 q 540 158 494 139 q 607 217 586 178 q 628 304 628 256 l 628 678 q 613 753 628 713 q 553 819 599 793 q 438 844 507 844 q 295 801 344 844 q 246 678 246 757 l 246 304 q 267 217 246 256 q 333 158 288 178 q 436 139 378 139 z "},"1":{"ha":624,"x_min":53,"x_max":593,"o":"m 408 158 l 593 158 l 593 0 l 53 0 l 53 158 l 238 158 l 238 825 l 53 825 l 53 983 l 408 983 l 408 158 z "},"2":{"ha":818,"x_min":71,"x_max":756,"o":"m 756 685 q 742 604 756 646 q 697 521 729 563 q 613 439 665 479 q 459 340 560 399 q 326 253 358 281 q 278 203 293 225 q 258 158 263 181 l 749 158 l 749 0 l 71 0 l 71 85 q 122 252 71 171 q 328 433 174 333 q 387 471 339 440 q 484 538 435 501 q 559 613 533 574 q 585 692 585 653 l 585 726 q 570 780 585 751 q 516 826 556 808 q 419 844 476 844 q 297 803 340 844 q 253 688 253 763 l 253 649 l 82 649 l 82 683 q 176 915 82 828 q 424 1003 269 1003 q 664 927 572 1003 q 756 729 756 851 l 756 685 z "},"3":{"ha":833,"x_min":75,"x_max":758,"o":"m 681 499 q 738 422 718 467 q 758 326 758 378 l 758 258 q 733 144 758 196 q 663 56 708 92 q 553 0 617 19 q 417 -19 490 -19 q 280 1 343 -19 q 171 59 217 21 q 100 151 125 97 q 75 268 75 204 l 75 315 l 246 315 l 246 263 q 261 206 246 235 q 318 158 276 176 q 417 139 360 139 q 517 156 475 139 q 573 200 558 172 q 588 254 588 228 l 588 324 q 446 422 588 422 l 279 422 l 279 575 l 446 575 q 586 672 586 575 l 586 732 q 572 785 586 758 q 516 828 557 813 q 417 844 475 844 q 318 826 360 844 q 261 778 276 807 q 246 721 246 749 l 246 668 l 75 668 l 75 715 q 100 833 75 779 q 171 924 125 886 q 280 983 217 963 q 417 1003 343 1003 q 553 984 490 1003 q 662 929 617 965 q 732 842 707 893 q 757 728 757 790 l 757 668 q 681 499 757 567 z "},"4":{"ha":781,"x_min":58,"x_max":700,"o":"m 529 625 l 700 625 l 700 0 l 529 0 l 529 214 l 58 214 l 58 372 l 335 983 l 524 983 l 246 372 l 529 372 l 529 625 z "},"5":{"ha":800,"x_min":75,"x_max":728,"o":"m 449 617 q 651 543 575 617 q 728 349 728 469 l 728 264 q 638 58 728 136 q 401 -19 549 -19 q 165 58 254 -19 q 75 264 75 136 l 75 342 l 246 342 l 246 254 q 287 166 246 197 q 401 135 328 135 q 517 166 475 135 q 558 254 558 197 l 558 358 q 526 435 558 407 q 442 463 494 463 l 103 463 l 103 983 l 694 983 l 694 825 l 274 825 l 274 617 l 449 617 z "},"6":{"ha":838,"x_min":75,"x_max":763,"o":"m 440 632 q 674 560 586 632 q 763 365 763 489 l 763 267 q 668 59 763 138 q 419 -19 574 -19 q 169 64 264 -19 q 75 286 75 147 l 75 686 q 100 817 75 757 q 172 917 125 876 q 282 981 218 958 q 419 1003 346 1003 q 551 983 489 1003 q 660 925 614 963 q 731 834 706 888 q 757 715 757 781 l 588 715 q 541 813 588 778 q 419 849 494 849 q 292 806 339 849 q 246 685 246 763 l 246 572 q 337 617 286 601 q 440 632 388 632 m 592 272 l 592 365 q 547 453 592 422 q 418 485 501 485 q 342 475 382 485 q 276 437 303 465 q 246 369 249 408 l 246 276 q 292 172 246 210 q 421 135 338 135 q 500 147 460 135 q 566 192 540 158 q 592 272 592 225 z "},"7":{"ha":715,"x_min":38,"x_max":679,"o":"m 38 983 l 679 983 l 679 825 l 271 0 l 83 0 l 490 825 l 38 825 l 38 983 z "},"8":{"ha":857,"x_min":75,"x_max":782,"o":"m 683 501 q 756 422 731 469 q 782 319 782 375 l 782 233 q 760 136 782 178 q 701 63 738 94 q 596 6 665 31 q 429 -19 526 -19 q 310 -8 372 -19 q 190 38 249 4 q 103 125 132 72 q 75 233 75 178 l 75 319 q 101 422 75 375 q 174 501 126 469 q 106 577 131 532 q 82 675 82 622 l 82 743 q 178 931 82 860 q 429 1003 274 1003 q 680 931 585 1003 q 775 743 775 860 l 775 675 q 751 577 775 622 q 683 501 726 532 m 253 674 q 299 595 253 624 q 429 567 344 567 q 558 595 513 567 q 604 674 604 624 l 604 736 q 557 823 604 790 q 429 856 510 856 q 300 823 347 856 q 253 736 253 790 l 253 674 m 611 240 l 611 319 q 564 404 611 374 q 429 435 517 435 q 294 404 342 435 q 246 319 246 374 l 246 240 q 261 189 246 215 q 321 145 276 163 q 429 128 365 128 q 513 138 469 128 q 584 174 557 147 q 611 240 611 201 z "},"9":{"ha":836,"x_min":75,"x_max":761,"o":"m 418 1003 q 558 981 494 1003 q 667 919 622 960 q 737 822 713 879 q 761 697 761 765 l 761 297 q 736 167 761 226 q 665 66 711 107 q 555 3 618 25 q 418 -19 492 -19 q 342 -13 385 -19 q 255 11 299 -7 q 172 63 211 29 q 106 149 132 96 q 81 268 81 203 l 250 268 q 296 170 250 206 q 417 135 342 135 q 497 149 456 135 q 565 202 539 163 q 592 299 592 242 l 592 404 q 501 360 551 375 q 397 344 450 344 q 163 416 250 344 q 75 611 75 488 l 75 717 q 169 924 75 846 q 418 1003 264 1003 m 418 492 q 541 522 494 492 q 592 606 588 553 l 592 707 q 546 812 592 775 q 417 849 500 849 q 338 837 378 849 q 272 792 297 825 q 246 711 246 758 l 246 611 q 291 523 246 554 q 418 492 336 492 z "},"A":{"ha":879,"x_min":24,"x_max":854,"o":"m 685 0 l 618 211 l 260 211 l 192 0 l 24 0 l 318 983 l 561 983 l 854 0 l 685 0 m 439 804 l 308 369 l 569 369 l 439 804 z "},"Á":{"ha":879,"x_min":24,"x_max":854,"o":"m 722 1258 l 531 1053 l 354 1053 l 514 1258 l 722 1258 m 685 0 l 618 211 l 260 211 l 192 0 l 24 0 l 318 983 l 561 983 l 854 0 l 685 0 m 439 804 l 308 369 l 569 369 l 439 804 z "},"Ă":{"ha":879,"x_min":24,"x_max":854,"o":"m 439 1046 q 285 1101 344 1046 q 225 1244 225 1157 l 329 1244 q 360 1175 329 1201 q 439 1149 390 1149 q 519 1175 489 1149 q 550 1244 550 1201 l 654 1244 q 594 1101 654 1157 q 439 1046 533 1046 m 685 0 l 618 211 l 260 211 l 192 0 l 24 0 l 318 983 l 561 983 l 854 0 l 685 0 m 439 804 l 308 369 l 569 369 l 439 804 z "},"Ǎ":{"ha":879,"x_min":24,"x_max":854,"o":"m 521 1053 l 357 1053 l 168 1228 l 357 1228 l 439 1150 l 521 1228 l 708 1228 l 521 1053 m 685 0 l 618 211 l 260 211 l 192 0 l 24 0 l 318 983 l 561 983 l 854 0 l 685 0 m 439 804 l 308 369 l 569 369 l 439 804 z "},"Â":{"ha":879,"x_min":24,"x_max":854,"o":"m 442 1131 l 360 1053 l 172 1053 l 360 1228 l 524 1228 l 713 1053 l 524 1053 l 442 1131 m 685 0 l 618 211 l 260 211 l 192 0 l 24 0 l 318 983 l 561 983 l 854 0 l 685 0 m 439 804 l 308 369 l 569 369 l 439 804 z "},"Ä":{"ha":879,"x_min":24,"x_max":854,"o":"m 378 1236 l 378 1074 l 225 1074 l 225 1236 l 378 1236 m 656 1236 l 656 1074 l 501 1074 l 501 1236 l 656 1236 m 685 0 l 618 211 l 260 211 l 192 0 l 24 0 l 318 983 l 561 983 l 854 0 l 685 0 m 439 804 l 308 369 l 569 369 l 439 804 z "},"À":{"ha":879,"x_min":24,"x_max":854,"o":"m 526 1053 l 350 1053 l 158 1258 l 367 1258 l 526 1053 m 685 0 l 618 211 l 260 211 l 192 0 l 24 0 l 318 983 l 561 983 l 854 0 l 685 0 m 439 804 l 308 369 l 569 369 l 439 804 z "},"Ā":{"ha":879,"x_min":24,"x_max":854,"o":"m 675 1233 l 675 1094 l 206 1094 l 206 1233 l 675 1233 m 685 0 l 618 211 l 260 211 l 192 0 l 24 0 l 318 983 l 561 983 l 854 0 l 685 0 m 439 804 l 308 369 l 569 369 l 439 804 z "},"Ą":{"ha":879,"x_min":24,"x_max":854,"o":"m 749 -129 q 810 -185 749 -185 l 846 -182 l 846 -296 q 763 -304 810 -304 q 624 -274 669 -304 q 578 -165 578 -243 q 605 -80 578 -124 q 685 1 632 -36 l 618 211 l 260 211 l 192 0 l 24 0 l 318 983 l 561 983 l 854 0 q 776 -64 803 -29 q 749 -129 749 -99 m 439 804 l 308 369 l 569 369 l 439 804 z "},"Å":{"ha":879,"x_min":24,"x_max":854,"o":"m 440 1046 q 365 1061 406 1046 q 295 1117 324 1076 q 267 1210 267 1158 q 295 1303 267 1263 q 365 1360 324 1344 q 440 1376 406 1376 q 516 1360 475 1376 q 585 1303 557 1344 q 614 1210 614 1263 q 585 1117 614 1158 q 516 1061 557 1076 q 440 1046 475 1046 m 440 1272 q 389 1255 408 1272 q 369 1210 369 1238 q 389 1165 369 1182 q 440 1149 408 1149 q 492 1165 472 1149 q 511 1210 511 1182 q 492 1255 511 1238 q 440 1272 472 1272 m 685 0 l 618 211 l 260 211 l 192 0 l 24 0 l 318 983 l 561 983 l 854 0 l 685 0 m 439 804 l 308 369 l 569 369 l 439 804 z "},"Ã":{"ha":879,"x_min":24,"x_max":854,"o":"m 360 1133 q 311 1060 311 1133 l 192 1060 q 201 1149 192 1103 q 240 1226 210 1196 q 326 1257 271 1257 q 428 1224 375 1257 q 497 1188 482 1192 q 519 1183 513 1183 q 568 1257 568 1183 l 689 1257 q 654 1106 689 1153 q 553 1060 619 1060 q 449 1092 503 1060 q 381 1129 396 1125 q 360 1133 367 1133 m 685 0 l 618 211 l 260 211 l 192 0 l 24 0 l 318 983 l 561 983 l 854 0 l 685 0 m 439 804 l 308 369 l 569 369 l 439 804 z "},"Æ":{"ha":1335,"x_min":24,"x_max":1282,"o":"m 1282 825 l 833 825 l 833 560 l 1222 560 l 1222 401 l 833 401 l 833 158 l 1282 158 l 1282 0 l 663 0 l 663 256 l 299 256 l 197 0 l 24 0 l 415 983 l 1282 983 l 1282 825 m 663 414 l 663 825 l 526 825 l 363 414 l 663 414 z "},"B":{"ha":858,"x_min":86,"x_max":800,"o":"m 692 518 q 772 435 743 486 q 800 326 800 383 l 800 261 q 786 174 800 219 q 733 86 772 129 q 635 22 694 43 q 514 0 575 0 l 86 0 l 86 983 l 485 983 q 692 918 611 983 q 772 747 772 853 l 772 679 q 751 590 772 632 q 692 518 731 547 m 489 831 l 257 831 l 257 579 l 488 579 q 570 605 539 579 q 601 678 601 631 l 601 743 q 569 807 601 783 q 489 831 538 831 m 629 256 l 629 326 q 599 400 629 372 q 517 428 568 428 l 257 428 l 257 153 l 515 153 q 599 181 568 153 q 629 256 629 210 z "},"C":{"ha":907,"x_min":68,"x_max":839,"o":"m 454 -19 q 171 66 274 -19 q 68 294 68 151 l 68 689 q 94 817 68 758 q 169 917 119 876 q 292 981 219 958 q 453 1003 364 1003 q 615 981 543 1003 q 738 917 688 958 q 813 817 788 876 q 839 689 839 758 l 839 613 l 660 613 l 660 679 q 608 801 660 757 q 454 844 556 844 q 294 801 349 844 q 239 679 239 757 l 239 304 q 293 183 239 226 q 453 139 347 139 q 608 182 556 139 q 660 304 660 225 l 660 372 l 839 372 l 839 294 q 813 166 839 225 q 738 66 788 107 q 615 3 688 25 q 454 -19 543 -19 z "},"Ć":{"ha":907,"x_min":68,"x_max":839,"o":"m 736 1258 l 544 1053 l 368 1053 l 528 1258 l 736 1258 m 454 -19 q 171 66 274 -19 q 68 294 68 151 l 68 689 q 94 817 68 758 q 169 917 119 876 q 292 981 219 958 q 453 1003 364 1003 q 615 981 543 1003 q 738 917 688 958 q 813 817 788 876 q 839 689 839 758 l 839 613 l 660 613 l 660 679 q 608 801 660 757 q 454 844 556 844 q 294 801 349 844 q 239 679 239 757 l 239 304 q 293 183 239 226 q 453 139 347 139 q 608 182 556 139 q 660 304 660 225 l 660 372 l 839 372 l 839 294 q 813 166 839 225 q 738 66 788 107 q 615 3 688 25 q 454 -19 543 -19 z "},"Č":{"ha":907,"x_min":68,"x_max":839,"o":"m 535 1053 l 371 1053 l 182 1228 l 371 1228 l 453 1150 l 535 1228 l 722 1228 l 535 1053 m 839 613 l 660 613 l 660 679 q 608 801 660 757 q 454 844 556 844 q 294 801 349 844 q 239 679 239 757 l 239 304 q 293 183 239 226 q 453 139 347 139 q 608 182 556 139 q 660 304 660 225 l 660 372 l 839 372 l 839 294 q 813 166 839 225 q 738 66 788 107 q 615 3 688 25 q 454 -19 543 -19 q 171 66 274 -19 q 68 294 68 151 l 68 689 q 94 817 68 758 q 169 917 119 876 q 292 981 219 958 q 453 1003 364 1003 q 615 981 543 1003 q 738 917 688 958 q 813 817 788 876 q 839 689 839 758 l 839 613 z "},"Ç":{"ha":907,"x_min":68,"x_max":839,"o":"m 839 613 l 660 613 l 660 679 q 608 801 660 757 q 454 844 556 844 q 294 801 349 844 q 239 679 239 757 l 239 304 q 293 183 239 226 q 453 139 347 139 q 608 182 556 139 q 660 304 660 225 l 660 372 l 839 372 l 839 294 q 753 81 839 164 q 514 -17 667 -3 l 472 -219 l 294 -219 l 368 -14 q 147 88 225 6 q 68 294 68 169 l 68 689 q 94 817 68 758 q 169 917 119 876 q 292 981 219 958 q 453 1003 364 1003 q 615 981 543 1003 q 738 917 688 958 q 813 817 788 876 q 839 689 839 758 l 839 613 z "},"Ċ":{"ha":907,"x_min":68,"x_max":839,"o":"m 369 1074 l 369 1250 l 539 1250 l 539 1074 l 369 1074 m 454 -19 q 171 66 274 -19 q 68 294 68 151 l 68 689 q 94 817 68 758 q 169 917 119 876 q 292 981 219 958 q 453 1003 364 1003 q 615 981 543 1003 q 738 917 688 958 q 813 817 788 876 q 839 689 839 758 l 839 613 l 660 613 l 660 679 q 608 801 660 757 q 454 844 556 844 q 294 801 349 844 q 239 679 239 757 l 239 304 q 293 183 239 226 q 453 139 347 139 q 608 182 556 139 q 660 304 660 225 l 660 372 l 839 372 l 839 294 q 813 166 839 225 q 738 66 788 107 q 615 3 688 25 q 454 -19 543 -19 z "},"D":{"ha":900,"x_min":86,"x_max":831,"o":"m 456 983 q 585 969 519 983 q 712 913 651 954 q 801 807 772 872 q 831 671 831 742 l 831 313 q 805 183 831 242 q 731 84 779 125 q 612 22 682 43 q 457 0 542 0 l 86 0 l 86 983 l 456 983 m 660 322 l 660 661 q 640 744 660 708 q 579 803 621 781 q 468 825 538 825 l 257 825 l 257 158 l 467 158 q 610 201 561 158 q 660 322 660 244 z "},"Ð":{"ha":900,"x_min":-36,"x_max":831,"o":"m 456 983 q 585 969 519 983 q 712 913 651 954 q 801 807 772 872 q 831 671 831 742 l 831 313 q 805 183 831 242 q 731 84 779 125 q 612 22 682 43 q 457 0 542 0 l 86 0 l 86 422 l -36 422 l -36 561 l 86 561 l 86 983 l 456 983 m 660 322 l 660 661 q 640 744 660 708 q 579 803 621 781 q 468 825 538 825 l 257 825 l 257 561 l 476 561 l 476 422 l 257 422 l 257 158 l 467 158 q 610 201 561 158 q 660 322 660 244 z "},"Ď":{"ha":900,"x_min":86,"x_max":831,"o":"m 532 1053 l 368 1053 l 179 1228 l 368 1228 l 450 1150 l 532 1228 l 719 1228 l 532 1053 m 456 983 q 585 969 519 983 q 712 913 651 954 q 801 807 772 872 q 831 671 831 742 l 831 313 q 805 183 831 242 q 731 84 779 125 q 612 22 682 43 q 457 0 542 0 l 86 0 l 86 983 l 456 983 m 660 322 l 660 661 q 640 744 660 708 q 579 803 621 781 q 468 825 538 825 l 257 825 l 257 158 l 467 158 q 610 201 561 158 q 660 322 660 244 z "},"Đ":{"ha":900,"x_min":-36,"x_max":831,"o":"m 456 983 q 585 969 519 983 q 712 913 651 954 q 801 807 772 872 q 831 671 831 742 l 831 313 q 805 183 831 242 q 731 84 779 125 q 612 22 682 43 q 457 0 542 0 l 86 0 l 86 422 l -36 422 l -36 561 l 86 561 l 86 983 l 456 983 m 660 322 l 660 661 q 640 744 660 708 q 579 803 621 781 q 468 825 538 825 l 257 825 l 257 561 l 476 561 l 476 422 l 257 422 l 257 158 l 467 158 q 610 201 561 158 q 660 322 660 244 z "},"E":{"ha":758,"x_min":86,"x_max":706,"o":"m 706 825 l 257 825 l 257 560 l 646 560 l 646 401 l 257 401 l 257 158 l 706 158 l 706 0 l 86 0 l 86 983 l 706 983 l 706 825 z "},"É":{"ha":758,"x_min":86,"x_max":706,"o":"m 663 1258 l 471 1053 l 294 1053 l 454 1258 l 663 1258 m 706 825 l 257 825 l 257 560 l 646 560 l 646 401 l 257 401 l 257 158 l 706 158 l 706 0 l 86 0 l 86 983 l 706 983 l 706 825 z "},"Ě":{"ha":758,"x_min":86,"x_max":706,"o":"m 461 1053 l 297 1053 l 108 1228 l 297 1228 l 379 1150 l 461 1228 l 649 1228 l 461 1053 m 706 825 l 257 825 l 257 560 l 646 560 l 646 401 l 257 401 l 257 158 l 706 158 l 706 0 l 86 0 l 86 983 l 706 983 l 706 825 z "},"Ê":{"ha":758,"x_min":86,"x_max":706,"o":"m 382 1131 l 300 1053 l 113 1053 l 300 1228 l 464 1228 l 653 1053 l 464 1053 l 382 1131 m 706 825 l 257 825 l 257 560 l 646 560 l 646 401 l 257 401 l 257 158 l 706 158 l 706 0 l 86 0 l 86 983 l 706 983 l 706 825 z "},"Ë":{"ha":758,"x_min":86,"x_max":706,"o":"m 318 1236 l 318 1074 l 165 1074 l 165 1236 l 318 1236 m 596 1236 l 596 1074 l 442 1074 l 442 1236 l 596 1236 m 706 825 l 257 825 l 257 560 l 646 560 l 646 401 l 257 401 l 257 158 l 706 158 l 706 0 l 86 0 l 86 983 l 706 983 l 706 825 z "},"Ė":{"ha":758,"x_min":86,"x_max":706,"o":"m 465 1250 l 465 1074 l 296 1074 l 296 1250 l 465 1250 m 706 825 l 257 825 l 257 560 l 646 560 l 646 401 l 257 401 l 257 158 l 706 158 l 706 0 l 86 0 l 86 983 l 706 983 l 706 825 z "},"È":{"ha":758,"x_min":86,"x_max":706,"o":"m 467 1053 l 290 1053 l 99 1258 l 307 1258 l 467 1053 m 706 825 l 257 825 l 257 560 l 646 560 l 646 401 l 257 401 l 257 158 l 706 158 l 706 0 l 86 0 l 86 983 l 706 983 l 706 825 z "},"Ē":{"ha":758,"x_min":86,"x_max":706,"o":"m 615 1233 l 615 1094 l 146 1094 l 146 1233 l 615 1233 m 706 825 l 257 825 l 257 560 l 646 560 l 646 401 l 257 401 l 257 158 l 706 158 l 706 0 l 86 0 l 86 983 l 706 983 l 706 825 z "},"Ę":{"ha":758,"x_min":86,"x_max":706,"o":"m 706 825 l 257 825 l 257 560 l 646 560 l 646 401 l 257 401 l 257 158 l 706 158 l 706 0 q 627 -64 654 -29 q 600 -129 600 -99 q 661 -185 600 -185 l 697 -182 l 697 -296 q 614 -304 661 -304 q 475 -274 521 -304 q 429 -165 429 -243 q 455 -81 429 -124 q 533 0 481 -37 l 86 0 l 86 983 l 706 983 l 706 825 z "},"F":{"ha":744,"x_min":86,"x_max":706,"o":"m 706 825 l 257 825 l 257 528 l 660 528 l 660 369 l 257 369 l 257 0 l 86 0 l 86 983 l 706 983 l 706 825 z "},"G":{"ha":907,"x_min":68,"x_max":839,"o":"m 839 633 l 668 633 l 668 679 q 612 801 668 757 q 454 844 556 844 q 296 801 353 844 q 239 679 239 757 l 239 304 q 295 183 239 226 q 453 139 351 139 q 611 183 554 139 q 668 304 668 226 l 668 367 l 447 367 l 447 525 l 839 525 l 839 294 q 813 166 839 225 q 738 66 788 107 q 615 3 688 25 q 454 -19 543 -19 q 171 66 274 -19 q 68 294 68 151 l 68 689 q 94 817 68 758 q 169 917 119 876 q 292 981 219 958 q 453 1003 364 1003 q 615 981 543 1003 q 738 917 688 958 q 813 817 788 876 q 839 689 839 758 l 839 633 z "},"Ğ":{"ha":907,"x_min":68,"x_max":839,"o":"m 453 1046 q 299 1101 358 1046 q 239 1244 239 1157 l 343 1244 q 374 1175 343 1201 q 453 1149 404 1149 q 533 1175 503 1149 q 564 1244 564 1201 l 668 1244 q 608 1101 668 1157 q 453 1046 547 1046 m 839 633 l 668 633 l 668 679 q 612 801 668 757 q 454 844 556 844 q 296 801 353 844 q 239 679 239 757 l 239 304 q 295 183 239 226 q 453 139 351 139 q 611 183 554 139 q 668 304 668 226 l 668 367 l 447 367 l 447 525 l 839 525 l 839 294 q 813 166 839 225 q 738 66 788 107 q 615 3 688 25 q 454 -19 543 -19 q 171 66 274 -19 q 68 294 68 151 l 68 689 q 94 817 68 758 q 169 917 119 876 q 292 981 219 958 q 453 1003 364 1003 q 615 981 543 1003 q 738 917 688 958 q 813 817 788 876 q 839 689 839 758 l 839 633 z "},"Ģ":{"ha":907,"x_min":68,"x_max":839,"o":"m 839 633 l 668 633 l 668 679 q 612 801 668 757 q 454 844 556 844 q 296 801 353 844 q 239 679 239 757 l 239 304 q 295 183 239 226 q 453 139 351 139 q 611 183 554 139 q 668 304 668 226 l 668 367 l 447 367 l 447 525 l 839 525 l 839 294 q 813 166 839 225 q 738 66 788 107 q 615 3 688 25 q 454 -19 543 -19 q 171 66 274 -19 q 68 294 68 151 l 68 689 q 94 817 68 758 q 169 917 119 876 q 292 981 219 958 q 453 1003 364 1003 q 615 981 543 1003 q 738 917 688 958 q 813 817 788 876 q 839 689 839 758 l 839 633 m 372 -212 l 372 -74 l 535 -74 l 535 -208 l 450 -344 l 378 -344 l 428 -212 l 372 -212 z "},"Ġ":{"ha":907,"x_min":68,"x_max":839,"o":"m 539 1250 l 539 1074 l 369 1074 l 369 1250 l 539 1250 m 839 633 l 668 633 l 668 679 q 612 801 668 757 q 454 844 556 844 q 296 801 353 844 q 239 679 239 757 l 239 304 q 295 183 239 226 q 453 139 351 139 q 611 183 554 139 q 668 304 668 226 l 668 367 l 447 367 l 447 525 l 839 525 l 839 294 q 813 166 839 225 q 738 66 788 107 q 615 3 688 25 q 454 -19 543 -19 q 171 66 274 -19 q 68 294 68 151 l 68 689 q 94 817 68 758 q 169 917 119 876 q 292 981 219 958 q 453 1003 364 1003 q 615 981 543 1003 q 738 917 688 958 q 813 817 788 876 q 839 689 839 758 l 839 633 z "},"H":{"ha":915,"x_min":86,"x_max":829,"o":"m 658 983 l 829 983 l 829 0 l 658 0 l 658 401 l 257 401 l 257 0 l 86 0 l 86 983 l 257 983 l 257 560 l 658 560 l 658 983 z "},"Ħ":{"ha":915,"x_min":-3,"x_max":917,"o":"m 917 831 l 917 692 l 829 692 l 829 0 l 658 0 l 658 401 l 257 401 l 257 0 l 86 0 l 86 692 l -3 692 l -3 831 l 86 831 l 86 983 l 257 983 l 257 831 l 658 831 l 658 983 l 829 983 l 829 831 l 917 831 m 658 560 l 658 692 l 257 692 l 257 560 l 658 560 z "},"I":{"ha":343,"x_min":86,"x_max":257,"o":"m 86 0 l 86 983 l 257 983 l 257 0 l 86 0 z "},"Ĳ":{"ha":863,"x_min":86,"x_max":778,"o":"m 86 0 l 86 983 l 257 983 l 257 0 l 86 0 m 367 0 l 367 158 l 451 158 q 505 166 481 158 q 550 190 529 174 q 589 243 571 206 q 607 340 607 281 l 607 983 l 778 983 l 778 338 q 755 203 778 265 q 688 95 732 140 q 581 25 644 50 q 442 0 518 0 l 367 0 z "},"Í":{"ha":343,"x_min":86,"x_max":454,"o":"m 454 1258 l 263 1053 l 86 1053 l 246 1258 l 454 1258 m 86 0 l 86 983 l 257 983 l 257 0 l 86 0 z "},"Ǐ":{"ha":343,"x_min":-100,"x_max":440,"o":"m 253 1053 l 89 1053 l -100 1228 l 89 1228 l 171 1150 l 253 1228 l 440 1228 l 253 1053 m 86 0 l 86 983 l 257 983 l 257 0 l 86 0 z "},"Î":{"ha":343,"x_min":-96,"x_max":444,"o":"m 174 1131 l 92 1053 l -96 1053 l 92 1228 l 256 1228 l 444 1053 l 256 1053 l 174 1131 m 86 0 l 86 983 l 257 983 l 257 0 l 86 0 z "},"Ï":{"ha":343,"x_min":-43,"x_max":388,"o":"m -43 1074 l -43 1236 l 110 1236 l 110 1074 l -43 1074 m 233 1074 l 233 1236 l 388 1236 l 388 1074 l 233 1074 m 86 0 l 86 983 l 257 983 l 257 0 l 86 0 z "},"İ":{"ha":343,"x_min":86,"x_max":257,"o":"m 88 1074 l 88 1250 l 257 1250 l 257 1074 l 88 1074 m 86 0 l 86 983 l 257 983 l 257 0 l 86 0 z "},"Ì":{"ha":343,"x_min":-110,"x_max":258,"o":"m -110 1258 l 99 1258 l 258 1053 l 82 1053 l -110 1258 m 86 0 l 86 983 l 257 983 l 257 0 l 86 0 z "},"Ī":{"ha":343,"x_min":-62,"x_max":407,"o":"m 407 1233 l 407 1094 l -62 1094 l -62 1233 l 407 1233 m 86 0 l 86 983 l 257 983 l 257 0 l 86 0 z "},"Į":{"ha":343,"x_min":-19,"x_max":257,"o":"m 257 0 q 178 -64 206 -29 q 151 -129 151 -99 q 213 -185 151 -185 l 249 -182 l 249 -296 q 165 -304 213 -304 q 26 -274 72 -304 q -19 -165 -19 -243 q 7 -80 -19 -124 q 86 1 33 -36 l 86 983 l 257 983 l 257 0 z "},"J":{"ha":519,"x_min":24,"x_max":435,"o":"m 24 0 l 24 158 l 108 158 q 162 166 138 158 q 207 190 186 174 q 246 243 228 206 q 264 340 264 281 l 264 983 l 435 983 l 435 338 q 412 203 435 265 q 345 95 389 140 q 238 25 301 50 q 99 0 175 0 l 24 0 z "},"K":{"ha":885,"x_min":86,"x_max":856,"o":"m 856 0 l 642 0 l 257 469 l 257 0 l 86 0 l 86 983 l 257 983 l 257 542 l 626 983 l 843 983 l 453 504 l 856 0 z "},"Ķ":{"ha":885,"x_min":86,"x_max":856,"o":"m 453 504 l 856 0 l 642 0 l 257 469 l 257 0 l 86 0 l 86 983 l 257 983 l 257 542 l 626 983 l 843 983 l 453 504 m 361 -212 l 361 -74 l 524 -74 l 524 -208 l 439 -344 l 367 -344 l 417 -212 l 361 -212 z "},"L":{"ha":742,"x_min":86,"x_max":713,"o":"m 257 158 l 713 158 l 713 0 l 86 0 l 86 983 l 257 983 l 257 158 z "},"Ĺ":{"ha":742,"x_min":86,"x_max":713,"o":"m 454 1258 l 263 1053 l 86 1053 l 246 1258 l 454 1258 m 257 158 l 713 158 l 713 0 l 86 0 l 86 983 l 257 983 l 257 158 z "},"Ľ":{"ha":742,"x_min":86,"x_max":713,"o":"m 706 1000 l 653 718 l 503 718 l 547 1000 l 706 1000 m 257 158 l 713 158 l 713 0 l 86 0 l 86 983 l 257 983 l 257 158 z "},"Ļ":{"ha":742,"x_min":86,"x_max":713,"o":"m 257 158 l 713 158 l 713 0 l 86 0 l 86 983 l 257 983 l 257 158 m 289 -212 l 289 -74 l 451 -74 l 451 -208 l 367 -344 l 294 -344 l 344 -212 l 289 -212 z "},"Ŀ":{"ha":749,"x_min":86,"x_max":713,"o":"m 257 158 l 713 158 l 713 0 l 86 0 l 86 983 l 257 983 l 257 158 m 636 600 l 636 410 l 474 410 l 474 600 l 636 600 z "},"Ł":{"ha":742,"x_min":-25,"x_max":713,"o":"m 257 158 l 713 158 l 713 0 l 86 0 l 86 336 l -25 297 l -25 460 l 86 499 l 86 983 l 257 983 l 257 560 l 543 661 l 543 499 l 257 397 l 257 158 z "},"M":{"ha":1058,"x_min":86,"x_max":972,"o":"m 972 983 l 972 0 l 817 0 l 817 714 l 592 0 l 467 0 l 242 714 l 242 0 l 86 0 l 86 983 l 299 983 l 529 319 l 760 983 l 972 983 z "},"N":{"ha":879,"x_min":86,"x_max":793,"o":"m 632 983 l 793 983 l 793 0 l 632 0 l 246 665 l 246 0 l 86 0 l 86 983 l 246 983 l 632 314 l 632 983 z "},"Ń":{"ha":879,"x_min":86,"x_max":793,"o":"m 722 1258 l 531 1053 l 354 1053 l 514 1258 l 722 1258 m 632 983 l 793 983 l 793 0 l 632 0 l 246 665 l 246 0 l 86 0 l 86 983 l 246 983 l 632 314 l 632 983 z "},"Ň":{"ha":879,"x_min":86,"x_max":793,"o":"m 521 1053 l 357 1053 l 168 1228 l 357 1228 l 439 1150 l 521 1228 l 708 1228 l 521 1053 m 632 983 l 793 983 l 793 0 l 632 0 l 246 665 l 246 0 l 86 0 l 86 983 l 246 983 l 632 314 l 632 983 z "},"Ņ":{"ha":879,"x_min":86,"x_max":793,"o":"m 632 983 l 793 983 l 793 0 l 632 0 l 246 665 l 246 0 l 86 0 l 86 983 l 246 983 l 632 314 l 632 983 m 358 -212 l 358 -74 l 521 -74 l 521 -208 l 436 -344 l 364 -344 l 414 -212 l 358 -212 z "},"Ŋ":{"ha":879,"x_min":86,"x_max":793,"o":"m 631 983 l 793 983 l 793 65 q 770 -67 793 -7 q 704 -172 747 -128 q 598 -239 661 -215 q 457 -262 535 -262 l 393 -262 l 393 -107 l 467 -107 q 570 -75 529 -107 q 624 11 611 -43 l 247 663 l 247 0 l 86 0 l 86 983 l 247 983 l 631 318 l 631 983 z "},"Ñ":{"ha":879,"x_min":86,"x_max":793,"o":"m 360 1133 q 311 1060 311 1133 l 192 1060 q 201 1149 192 1103 q 240 1226 210 1196 q 326 1257 271 1257 q 428 1224 375 1257 q 497 1188 482 1192 q 519 1183 513 1183 q 568 1257 568 1183 l 689 1257 q 654 1106 689 1153 q 553 1060 619 1060 q 449 1092 503 1060 q 381 1129 396 1125 q 360 1133 367 1133 m 632 983 l 793 983 l 793 0 l 632 0 l 246 665 l 246 0 l 86 0 l 86 983 l 246 983 l 632 314 l 632 983 z "},"O":{"ha":915,"x_min":68,"x_max":846,"o":"m 458 -19 q 171 65 274 -19 q 68 294 68 150 l 68 688 q 94 817 68 758 q 169 917 119 875 q 292 981 219 958 q 457 1003 365 1003 q 622 981 549 1003 q 744 917 694 958 q 820 817 794 875 q 846 688 846 758 l 846 294 q 744 65 846 150 q 458 -19 642 -19 m 457 139 q 675 304 675 139 l 675 678 q 458 844 675 844 q 293 801 347 844 q 239 678 239 758 l 239 304 q 292 182 239 225 q 457 139 346 139 z "},"Ó":{"ha":915,"x_min":68,"x_max":846,"o":"m 739 1258 l 547 1053 l 371 1053 l 531 1258 l 739 1258 m 458 -19 q 171 65 274 -19 q 68 294 68 150 l 68 688 q 94 817 68 758 q 169 917 119 875 q 292 981 219 958 q 457 1003 365 1003 q 622 981 549 1003 q 744 917 694 958 q 820 817 794 875 q 846 688 846 758 l 846 294 q 744 65 846 150 q 458 -19 642 -19 m 457 139 q 675 304 675 139 l 675 678 q 458 844 675 844 q 293 801 347 844 q 239 678 239 758 l 239 304 q 292 182 239 225 q 457 139 346 139 z "},"Ǒ":{"ha":915,"x_min":68,"x_max":846,"o":"m 538 1053 l 374 1053 l 185 1228 l 374 1228 l 456 1150 l 538 1228 l 725 1228 l 538 1053 m 457 1003 q 622 981 549 1003 q 744 917 694 958 q 820 817 794 875 q 846 688 846 758 l 846 294 q 744 65 846 150 q 458 -19 642 -19 q 171 65 274 -19 q 68 294 68 150 l 68 688 q 94 817 68 758 q 169 917 119 875 q 292 981 219 958 q 457 1003 365 1003 m 675 304 l 675 678 q 458 844 675 844 q 293 801 347 844 q 239 678 239 758 l 239 304 q 292 182 239 225 q 457 139 346 139 q 675 304 675 139 z "},"Ô":{"ha":915,"x_min":68,"x_max":846,"o":"m 458 1131 l 376 1053 l 189 1053 l 376 1228 l 540 1228 l 729 1053 l 540 1053 l 458 1131 m 457 1003 q 622 981 549 1003 q 744 917 694 958 q 820 817 794 875 q 846 688 846 758 l 846 294 q 744 65 846 150 q 458 -19 642 -19 q 171 65 274 -19 q 68 294 68 150 l 68 688 q 94 817 68 758 q 169 917 119 875 q 292 981 219 958 q 457 1003 365 1003 m 675 304 l 675 678 q 458 844 675 844 q 293 801 347 844 q 239 678 239 758 l 239 304 q 292 182 239 225 q 457 139 346 139 q 675 304 675 139 z "},"Ö":{"ha":915,"x_min":68,"x_max":846,"o":"m 242 1074 l 242 1236 l 394 1236 l 394 1074 l 242 1074 m 518 1074 l 518 1236 l 672 1236 l 672 1074 l 518 1074 m 458 -19 q 171 65 274 -19 q 68 294 68 150 l 68 688 q 94 817 68 758 q 169 917 119 875 q 292 981 219 958 q 457 1003 365 1003 q 622 981 549 1003 q 744 917 694 958 q 820 817 794 875 q 846 688 846 758 l 846 294 q 744 65 846 150 q 458 -19 642 -19 m 457 139 q 675 304 675 139 l 675 678 q 458 844 675 844 q 293 801 347 844 q 239 678 239 758 l 239 304 q 292 182 239 225 q 457 139 346 139 z "},"Ò":{"ha":915,"x_min":68,"x_max":846,"o":"m 175 1258 l 383 1258 l 543 1053 l 367 1053 l 175 1258 m 458 -19 q 171 65 274 -19 q 68 294 68 150 l 68 688 q 94 817 68 758 q 169 917 119 875 q 292 981 219 958 q 457 1003 365 1003 q 622 981 549 1003 q 744 917 694 958 q 820 817 794 875 q 846 688 846 758 l 846 294 q 744 65 846 150 q 458 -19 642 -19 m 457 139 q 675 304 675 139 l 675 678 q 458 844 675 844 q 293 801 347 844 q 239 678 239 758 l 239 304 q 292 182 239 225 q 457 139 346 139 z "},"Ő":{"ha":915,"x_min":68,"x_max":846,"o":"m 529 1226 l 399 1053 l 253 1053 l 374 1226 l 529 1226 m 806 1226 l 674 1053 l 528 1053 l 649 1226 l 806 1226 m 458 -19 q 171 65 274 -19 q 68 294 68 150 l 68 688 q 94 817 68 758 q 169 917 119 875 q 292 981 219 958 q 457 1003 365 1003 q 622 981 549 1003 q 744 917 694 958 q 820 817 794 875 q 846 688 846 758 l 846 294 q 744 65 846 150 q 458 -19 642 -19 m 457 139 q 675 304 675 139 l 675 678 q 458 844 675 844 q 293 801 347 844 q 239 678 239 758 l 239 304 q 292 182 239 225 q 457 139 346 139 z "},"Ō":{"ha":915,"x_min":68,"x_max":846,"o":"m 692 1233 l 692 1094 l 222 1094 l 222 1233 l 692 1233 m 458 -19 q 171 65 274 -19 q 68 294 68 150 l 68 688 q 94 817 68 758 q 169 917 119 875 q 292 981 219 958 q 457 1003 365 1003 q 622 981 549 1003 q 744 917 694 958 q 820 817 794 875 q 846 688 846 758 l 846 294 q 744 65 846 150 q 458 -19 642 -19 m 457 139 q 675 304 675 139 l 675 678 q 458 844 675 844 q 293 801 347 844 q 239 678 239 758 l 239 304 q 292 182 239 225 q 457 139 346 139 z "},"Ø":{"ha":915,"x_min":68,"x_max":846,"o":"m 751 911 q 846 688 846 829 l 846 294 q 744 65 846 150 q 458 -19 642 -19 q 299 1 368 -19 l 244 -107 l 108 -32 l 161 74 q 92 170 115 114 q 68 294 68 226 l 68 688 q 94 817 68 758 q 169 917 119 875 q 292 981 219 958 q 457 1003 365 1003 q 615 983 544 1003 l 669 1090 l 804 1017 l 751 911 m 239 304 q 247 246 239 274 l 543 836 q 458 844 506 844 q 293 801 347 844 q 239 678 239 758 l 239 304 m 675 304 l 675 678 q 665 739 675 714 l 371 147 q 457 139 408 139 q 675 304 675 139 z "},"Õ":{"ha":915,"x_min":68,"x_max":846,"o":"m 706 1257 q 671 1106 706 1153 q 569 1060 636 1060 q 466 1092 519 1060 q 398 1129 413 1125 q 376 1133 383 1133 q 328 1060 328 1133 l 208 1060 q 217 1149 208 1103 q 257 1226 226 1196 q 343 1257 288 1257 q 445 1224 392 1257 q 514 1188 499 1192 q 536 1183 529 1183 q 585 1257 585 1183 l 706 1257 m 458 -19 q 171 65 274 -19 q 68 294 68 150 l 68 688 q 94 817 68 758 q 169 917 119 875 q 292 981 219 958 q 457 1003 365 1003 q 622 981 549 1003 q 744 917 694 958 q 820 817 794 875 q 846 688 846 758 l 846 294 q 744 65 846 150 q 458 -19 642 -19 m 457 139 q 675 304 675 139 l 675 678 q 458 844 675 844 q 293 801 347 844 q 239 678 239 758 l 239 304 q 292 182 239 225 q 457 139 346 139 z "},"Œ":{"ha":1349,"x_min":68,"x_max":1294,"o":"m 846 825 l 846 560 l 1236 560 l 1236 401 l 846 401 l 846 158 l 1294 158 l 1294 0 l 675 0 l 675 22 q 576 -8 633 3 q 458 -19 519 -19 q 171 65 274 -19 q 68 294 68 150 l 68 688 q 94 817 68 758 q 169 917 119 875 q 292 981 219 958 q 457 1003 365 1003 q 575 992 517 1003 q 675 961 633 981 l 675 983 l 1294 983 l 1294 825 l 846 825 m 457 139 q 675 304 675 139 l 675 678 q 458 844 675 844 q 293 801 347 844 q 239 678 239 758 l 239 304 q 292 182 239 225 q 457 139 346 139 z "},"P":{"ha":853,"x_min":86,"x_max":799,"o":"m 485 983 q 614 964 556 983 q 714 908 672 944 q 777 821 756 872 q 799 708 799 769 l 799 610 q 780 503 799 549 q 729 424 761 458 q 636 362 697 389 q 486 335 575 335 l 257 335 l 257 0 l 86 0 l 86 983 l 485 983 m 628 606 l 628 713 q 594 795 628 765 q 497 825 560 825 l 257 825 l 257 493 l 496 493 q 593 523 558 493 q 628 606 628 553 z "},"Þ":{"ha":853,"x_min":86,"x_max":799,"o":"m 485 828 q 614 808 556 828 q 714 753 672 789 q 777 665 756 717 q 799 553 799 614 l 799 454 q 780 348 799 393 q 729 268 761 303 q 636 206 697 233 q 486 179 575 179 l 257 179 l 257 0 l 86 0 l 86 983 l 257 983 l 257 828 l 485 828 m 628 449 l 628 557 q 594 640 628 610 q 497 669 560 669 l 257 669 l 257 338 l 496 338 q 593 367 558 338 q 628 449 628 396 z "},"Q":{"ha":924,"x_min":68,"x_max":878,"o":"m 878 -71 l 799 -212 l 465 -19 l 458 -19 q 171 65 274 -19 q 68 294 68 150 l 68 688 q 94 817 68 758 q 169 917 119 875 q 292 981 219 958 q 457 1003 365 1003 q 622 981 549 1003 q 744 917 694 958 q 820 817 794 875 q 846 688 846 758 l 846 294 q 808 140 846 207 q 697 33 769 72 l 878 -71 m 239 304 q 292 182 239 225 q 457 139 346 139 q 675 304 675 139 l 675 678 q 458 844 675 844 q 293 801 347 844 q 239 678 239 758 l 239 304 z "},"R":{"ha":861,"x_min":86,"x_max":811,"o":"m 633 0 l 474 379 l 257 379 l 257 0 l 86 0 l 86 983 l 485 983 q 714 909 629 983 q 799 710 799 835 l 799 653 q 758 504 799 568 q 644 408 717 440 l 811 0 l 633 0 m 257 825 l 257 538 l 496 538 q 593 566 558 538 q 628 647 628 594 l 628 715 q 594 797 628 768 q 497 825 560 825 l 257 825 z "},"Ŕ":{"ha":861,"x_min":86,"x_max":811,"o":"m 713 1258 l 521 1053 l 344 1053 l 504 1258 l 713 1258 m 633 0 l 474 379 l 257 379 l 257 0 l 86 0 l 86 983 l 485 983 q 714 909 629 983 q 799 710 799 835 l 799 653 q 758 504 799 568 q 644 408 717 440 l 811 0 l 633 0 m 257 825 l 257 538 l 496 538 q 593 566 558 538 q 628 647 628 594 l 628 715 q 594 797 628 768 q 497 825 560 825 l 257 825 z "},"Ř":{"ha":861,"x_min":86,"x_max":811,"o":"m 511 1053 l 347 1053 l 158 1228 l 347 1228 l 429 1150 l 511 1228 l 699 1228 l 511 1053 m 633 0 l 474 379 l 257 379 l 257 0 l 86 0 l 86 983 l 485 983 q 714 909 629 983 q 799 710 799 835 l 799 653 q 758 504 799 568 q 644 408 717 440 l 811 0 l 633 0 m 257 825 l 257 538 l 496 538 q 593 566 558 538 q 628 647 628 594 l 628 715 q 594 797 628 768 q 497 825 560 825 l 257 825 z "},"Ŗ":{"ha":861,"x_min":86,"x_max":811,"o":"m 644 408 l 811 0 l 633 0 l 474 379 l 257 379 l 257 0 l 86 0 l 86 983 l 485 983 q 714 909 629 983 q 799 710 799 835 l 799 653 q 758 504 799 568 q 644 408 717 440 m 257 825 l 257 538 l 496 538 q 593 566 558 538 q 628 647 628 594 l 628 715 q 594 797 628 768 q 497 825 560 825 l 257 825 m 353 -212 l 353 -74 l 515 -74 l 515 -208 l 431 -344 l 358 -344 l 408 -212 l 353 -212 z "},"S":{"ha":861,"x_min":56,"x_max":806,"o":"m 436 -19 q 158 67 260 -19 q 56 293 56 154 l 56 329 l 226 329 l 226 283 q 289 177 226 217 q 440 138 351 138 q 577 174 521 138 q 633 275 633 210 q 610 340 633 313 q 544 388 588 368 q 403 434 501 407 q 251 483 304 461 q 161 535 199 506 q 101 611 124 565 q 78 719 78 657 q 122 873 78 810 q 242 969 165 936 q 428 1003 318 1003 q 583 981 515 1003 q 697 921 651 960 q 764 828 742 882 q 786 711 786 775 l 786 667 l 615 667 l 615 715 q 598 772 615 742 q 533 824 581 803 q 425 844 486 844 q 347 834 389 844 q 277 794 306 824 q 249 724 249 764 q 264 678 249 700 q 315 638 279 656 q 447 593 351 621 q 597 545 542 565 q 697 493 651 525 q 766 424 742 461 q 798 350 790 386 q 806 283 806 314 q 781 164 806 219 q 710 67 757 108 q 594 3 664 26 q 436 -19 524 -19 z "},"Ś":{"ha":861,"x_min":56,"x_max":806,"o":"m 713 1258 l 521 1053 l 344 1053 l 504 1258 l 713 1258 m 436 -19 q 158 67 260 -19 q 56 293 56 154 l 56 329 l 226 329 l 226 283 q 289 177 226 217 q 440 138 351 138 q 577 174 521 138 q 633 275 633 210 q 610 340 633 313 q 544 388 588 368 q 403 434 501 407 q 251 483 304 461 q 161 535 199 506 q 101 611 124 565 q 78 719 78 657 q 122 873 78 810 q 242 969 165 936 q 428 1003 318 1003 q 583 981 515 1003 q 697 921 651 960 q 764 828 742 882 q 786 711 786 775 l 786 667 l 615 667 l 615 715 q 598 772 615 742 q 533 824 581 803 q 425 844 486 844 q 347 834 389 844 q 277 794 306 824 q 249 724 249 764 q 264 678 249 700 q 315 638 279 656 q 447 593 351 621 q 597 545 542 565 q 697 493 651 525 q 766 424 742 461 q 798 350 790 386 q 806 283 806 314 q 781 164 806 219 q 710 67 757 108 q 594 3 664 26 q 436 -19 524 -19 z "},"Š":{"ha":861,"x_min":56,"x_max":806,"o":"m 511 1053 l 347 1053 l 158 1228 l 347 1228 l 429 1150 l 511 1228 l 699 1228 l 511 1053 m 249 724 q 264 678 249 700 q 315 638 279 656 q 447 593 351 621 q 597 545 542 565 q 697 493 651 525 q 766 424 742 461 q 798 350 790 386 q 806 283 806 314 q 781 164 806 219 q 710 67 757 108 q 594 3 664 26 q 436 -19 524 -19 q 158 67 260 -19 q 56 293 56 154 l 56 329 l 226 329 l 226 283 q 289 177 226 217 q 440 138 351 138 q 577 174 521 138 q 633 275 633 210 q 610 340 633 313 q 544 388 588 368 q 403 434 501 407 q 251 483 304 461 q 161 535 199 506 q 101 611 124 565 q 78 719 78 657 q 122 873 78 810 q 242 969 165 936 q 428 1003 318 1003 q 583 981 515 1003 q 697 921 651 960 q 764 828 742 882 q 786 711 786 775 l 786 667 l 615 667 l 615 715 q 598 772 615 742 q 533 824 581 803 q 425 844 486 844 q 347 834 389 844 q 277 794 306 824 q 249 724 249 764 z "},"Ş":{"ha":861,"x_min":56,"x_max":806,"o":"m 806 283 q 785 173 806 225 q 725 81 765 121 q 625 15 685 40 q 490 -17 565 -10 l 449 -219 l 271 -219 l 346 -12 q 133 92 210 10 q 56 293 56 174 l 56 329 l 226 329 l 226 283 q 289 177 226 217 q 440 138 351 138 q 577 174 521 138 q 633 275 633 210 q 610 340 633 313 q 544 388 588 368 q 403 434 501 407 q 251 483 304 461 q 161 535 199 506 q 101 611 124 565 q 78 719 78 657 q 122 873 78 810 q 242 969 165 936 q 428 1003 318 1003 q 583 981 515 1003 q 697 921 651 960 q 764 828 742 882 q 786 711 786 775 l 786 667 l 615 667 l 615 715 q 598 772 615 742 q 533 824 581 803 q 425 844 486 844 q 347 834 389 844 q 277 794 306 824 q 249 724 249 764 q 264 678 249 700 q 315 638 279 656 q 447 593 351 621 q 597 545 542 565 q 697 493 651 525 q 766 424 742 461 q 798 350 790 386 q 806 283 806 314 z "},"Ș":{"ha":861,"x_min":56,"x_max":806,"o":"m 249 724 q 264 678 249 700 q 315 638 279 656 q 447 593 351 621 q 597 545 542 565 q 697 493 651 525 q 766 424 742 461 q 798 350 790 386 q 806 283 806 314 q 781 164 806 219 q 710 67 757 108 q 594 3 664 26 q 436 -19 524 -19 q 158 67 260 -19 q 56 293 56 154 l 56 329 l 226 329 l 226 283 q 289 177 226 217 q 440 138 351 138 q 577 174 521 138 q 633 275 633 210 q 610 340 633 313 q 544 388 588 368 q 403 434 501 407 q 251 483 304 461 q 161 535 199 506 q 101 611 124 565 q 78 719 78 657 q 122 873 78 810 q 242 969 165 936 q 428 1003 318 1003 q 583 981 515 1003 q 697 921 651 960 q 764 828 742 882 q 786 711 786 775 l 786 667 l 615 667 l 615 715 q 598 772 615 742 q 533 824 581 803 q 425 844 486 844 q 347 834 389 844 q 277 794 306 824 q 249 724 249 764 m 349 -212 l 349 -74 l 511 -74 l 511 -208 l 426 -344 l 354 -344 l 404 -212 l 349 -212 z "},"T":{"ha":764,"x_min":13,"x_max":750,"o":"m 750 983 l 750 825 l 467 825 l 467 0 l 297 0 l 297 825 l 13 825 l 13 983 l 750 983 z "},"Ŧ":{"ha":764,"x_min":13,"x_max":750,"o":"m 750 825 l 467 825 l 467 561 l 638 561 l 638 422 l 467 422 l 467 0 l 297 0 l 297 422 l 125 422 l 125 561 l 297 561 l 297 825 l 13 825 l 13 983 l 750 983 l 750 825 z "},"Ť":{"ha":764,"x_min":13,"x_max":750,"o":"m 463 1053 l 299 1053 l 110 1228 l 299 1228 l 381 1150 l 463 1228 l 650 1228 l 463 1053 m 750 983 l 750 825 l 467 825 l 467 0 l 297 0 l 297 825 l 13 825 l 13 983 l 750 983 z "},"Ţ":{"ha":764,"x_min":13,"x_max":750,"o":"m 750 983 l 750 825 l 467 825 l 467 0 l 456 0 l 411 -219 l 232 -219 l 311 0 l 297 0 l 297 825 l 13 825 l 13 983 l 750 983 z "},"Ț":{"ha":764,"x_min":13,"x_max":750,"o":"m 750 983 l 750 825 l 467 825 l 467 0 l 297 0 l 297 825 l 13 825 l 13 983 l 750 983 m 297 -212 l 297 -74 l 460 -74 l 460 -208 l 375 -344 l 303 -344 l 353 -212 l 297 -212 z "},"U":{"ha":889,"x_min":68,"x_max":821,"o":"m 446 -19 q 169 65 269 -19 q 68 294 68 150 l 68 983 l 239 983 l 239 304 q 291 183 239 226 q 444 139 343 139 q 598 183 546 139 q 650 304 650 226 l 650 983 l 821 983 l 821 294 q 722 65 821 150 q 446 -19 622 -19 z "},"Ú":{"ha":889,"x_min":68,"x_max":821,"o":"m 726 1258 l 535 1053 l 358 1053 l 518 1258 l 726 1258 m 446 -19 q 169 65 269 -19 q 68 294 68 150 l 68 983 l 239 983 l 239 304 q 291 183 239 226 q 444 139 343 139 q 598 183 546 139 q 650 304 650 226 l 650 983 l 821 983 l 821 294 q 722 65 821 150 q 446 -19 622 -19 z "},"Ǔ":{"ha":889,"x_min":68,"x_max":821,"o":"m 525 1053 l 361 1053 l 172 1228 l 361 1228 l 443 1150 l 525 1228 l 713 1228 l 525 1053 m 650 983 l 821 983 l 821 294 q 722 65 821 150 q 446 -19 622 -19 q 169 65 269 -19 q 68 294 68 150 l 68 983 l 239 983 l 239 304 q 291 183 239 226 q 444 139 343 139 q 598 183 546 139 q 650 304 650 226 l 650 983 z "},"Û":{"ha":889,"x_min":68,"x_max":821,"o":"m 446 1131 l 364 1053 l 176 1053 l 364 1228 l 528 1228 l 717 1053 l 528 1053 l 446 1131 m 650 983 l 821 983 l 821 294 q 722 65 821 150 q 446 -19 622 -19 q 169 65 269 -19 q 68 294 68 150 l 68 983 l 239 983 l 239 304 q 291 183 239 226 q 444 139 343 139 q 598 183 546 139 q 650 304 650 226 l 650 983 z "},"Ü":{"ha":889,"x_min":68,"x_max":821,"o":"m 229 1074 l 229 1236 l 382 1236 l 382 1074 l 229 1074 m 506 1074 l 506 1236 l 660 1236 l 660 1074 l 506 1074 m 446 -19 q 169 65 269 -19 q 68 294 68 150 l 68 983 l 239 983 l 239 304 q 291 183 239 226 q 444 139 343 139 q 598 183 546 139 q 650 304 650 226 l 650 983 l 821 983 l 821 294 q 722 65 821 150 q 446 -19 622 -19 z "},"Ù":{"ha":889,"x_min":68,"x_max":821,"o":"m 163 1258 l 371 1258 l 531 1053 l 354 1053 l 163 1258 m 446 -19 q 169 65 269 -19 q 68 294 68 150 l 68 983 l 239 983 l 239 304 q 291 183 239 226 q 444 139 343 139 q 598 183 546 139 q 650 304 650 226 l 650 983 l 821 983 l 821 294 q 722 65 821 150 q 446 -19 622 -19 z "},"Ű":{"ha":889,"x_min":68,"x_max":821,"o":"m 517 1226 l 386 1053 l 240 1053 l 361 1226 l 517 1226 m 793 1226 l 661 1053 l 515 1053 l 636 1226 l 793 1226 m 446 -19 q 169 65 269 -19 q 68 294 68 150 l 68 983 l 239 983 l 239 304 q 291 183 239 226 q 444 139 343 139 q 598 183 546 139 q 650 304 650 226 l 650 983 l 821 983 l 821 294 q 722 65 821 150 q 446 -19 622 -19 z "},"Ū":{"ha":889,"x_min":68,"x_max":821,"o":"m 679 1233 l 679 1094 l 210 1094 l 210 1233 l 679 1233 m 446 -19 q 169 65 269 -19 q 68 294 68 150 l 68 983 l 239 983 l 239 304 q 291 183 239 226 q 444 139 343 139 q 598 183 546 139 q 650 304 650 226 l 650 983 l 821 983 l 821 294 q 722 65 821 150 q 446 -19 622 -19 z "},"Ų":{"ha":889,"x_min":68,"x_max":821,"o":"m 650 983 l 821 983 l 821 294 q 791 155 821 218 q 704 51 761 92 l 707 50 q 622 -40 653 8 q 592 -125 592 -87 q 664 -185 592 -185 q 700 -182 686 -185 l 700 -296 q 617 -304 664 -304 q 478 -272 524 -304 q 432 -161 432 -240 q 503 -17 432 -101 l 446 -19 q 169 65 269 -19 q 68 294 68 150 l 68 983 l 239 983 l 239 304 q 291 183 239 226 q 444 139 343 139 q 598 183 546 139 q 650 304 650 226 l 650 983 z "},"Ů":{"ha":889,"x_min":68,"x_max":821,"o":"m 444 1376 q 520 1360 479 1376 q 590 1303 561 1344 q 618 1210 618 1263 q 590 1117 618 1158 q 520 1061 561 1076 q 444 1046 479 1046 q 369 1061 410 1046 q 299 1117 328 1076 q 271 1210 271 1158 q 299 1303 271 1263 q 369 1360 328 1344 q 444 1376 410 1376 m 444 1272 q 393 1255 413 1272 q 374 1210 374 1238 q 393 1165 374 1182 q 444 1149 413 1149 q 496 1165 476 1149 q 515 1210 515 1182 q 496 1255 515 1238 q 444 1272 476 1272 m 446 -19 q 169 65 269 -19 q 68 294 68 150 l 68 983 l 239 983 l 239 304 q 291 183 239 226 q 444 139 343 139 q 598 183 546 139 q 650 304 650 226 l 650 983 l 821 983 l 821 294 q 722 65 821 150 q 446 -19 622 -19 z "},"V":{"ha":853,"x_min":24,"x_max":828,"o":"m 656 985 l 828 985 l 549 1 l 303 1 l 24 985 l 199 985 l 426 210 l 656 985 z "},"W":{"ha":1282,"x_min":24,"x_max":1257,"o":"m 1078 983 l 1257 983 l 1024 1 l 796 1 l 642 653 l 485 1 l 257 1 l 24 983 l 204 983 l 379 183 l 560 983 l 715 983 l 904 185 l 1078 983 z "},"Ẃ":{"ha":1282,"x_min":24,"x_max":1257,"o":"m 924 1258 l 732 1053 l 556 1053 l 715 1258 l 924 1258 m 1078 983 l 1257 983 l 1024 1 l 796 1 l 642 653 l 485 1 l 257 1 l 24 983 l 204 983 l 379 183 l 560 983 l 715 983 l 904 185 l 1078 983 z "},"Ŵ":{"ha":1282,"x_min":24,"x_max":1257,"o":"m 643 1131 l 561 1053 l 374 1053 l 561 1228 l 725 1228 l 914 1053 l 725 1053 l 643 1131 m 1078 983 l 1257 983 l 1024 1 l 796 1 l 642 653 l 485 1 l 257 1 l 24 983 l 204 983 l 379 183 l 560 983 l 715 983 l 904 185 l 1078 983 z "},"Ẅ":{"ha":1282,"x_min":24,"x_max":1257,"o":"m 579 1236 l 579 1074 l 426 1074 l 426 1236 l 579 1236 m 857 1236 l 857 1074 l 703 1074 l 703 1236 l 857 1236 m 1078 983 l 1257 983 l 1024 1 l 796 1 l 642 653 l 485 1 l 257 1 l 24 983 l 204 983 l 379 183 l 560 983 l 715 983 l 904 185 l 1078 983 z "},"Ẁ":{"ha":1282,"x_min":24,"x_max":1257,"o":"m 728 1053 l 551 1053 l 360 1258 l 568 1258 l 728 1053 m 1078 983 l 1257 983 l 1024 1 l 796 1 l 642 653 l 485 1 l 257 1 l 24 983 l 204 983 l 379 183 l 560 983 l 715 983 l 904 185 l 1078 983 z "},"X":{"ha":867,"x_min":28,"x_max":838,"o":"m 838 983 l 532 488 l 831 0 l 632 0 l 426 338 l 217 0 l 28 0 l 326 500 l 31 983 l 229 983 l 435 649 l 646 983 l 838 983 z "},"Y":{"ha":839,"x_min":24,"x_max":814,"o":"m 814 983 l 504 344 l 504 0 l 333 0 l 333 347 l 24 983 l 211 983 l 421 546 l 629 983 l 814 983 z "},"Ý":{"ha":839,"x_min":24,"x_max":814,"o":"m 701 1258 l 510 1053 l 333 1053 l 493 1258 l 701 1258 m 814 983 l 504 344 l 504 0 l 333 0 l 333 347 l 24 983 l 211 983 l 421 546 l 629 983 l 814 983 z "},"Ŷ":{"ha":839,"x_min":24,"x_max":814,"o":"m 421 1131 l 339 1053 l 151 1053 l 339 1228 l 503 1228 l 692 1053 l 503 1053 l 421 1131 m 814 983 l 504 344 l 504 0 l 333 0 l 333 347 l 24 983 l 211 983 l 421 546 l 629 983 l 814 983 z "},"Ÿ":{"ha":839,"x_min":24,"x_max":814,"o":"m 357 1236 l 357 1074 l 204 1074 l 204 1236 l 357 1236 m 635 1236 l 635 1074 l 481 1074 l 481 1236 l 635 1236 m 814 983 l 504 344 l 504 0 l 333 0 l 333 347 l 24 983 l 211 983 l 421 546 l 629 983 l 814 983 z "},"Ỳ":{"ha":839,"x_min":24,"x_max":814,"o":"m 506 1053 l 329 1053 l 138 1258 l 346 1258 l 506 1053 m 814 983 l 504 344 l 504 0 l 333 0 l 333 347 l 24 983 l 211 983 l 421 546 l 629 983 l 814 983 z "},"Z":{"ha":783,"x_min":39,"x_max":743,"o":"m 244 158 l 743 158 l 743 0 l 39 0 l 39 167 l 531 825 l 64 825 l 64 983 l 735 983 l 735 815 l 244 158 z "},"Ź":{"ha":783,"x_min":39,"x_max":743,"o":"m 674 1258 l 482 1053 l 306 1053 l 465 1258 l 674 1258 m 244 158 l 743 158 l 743 0 l 39 0 l 39 167 l 531 825 l 64 825 l 64 983 l 735 983 l 735 815 l 244 158 z "},"Ž":{"ha":783,"x_min":39,"x_max":743,"o":"m 472 1053 l 308 1053 l 119 1228 l 308 1228 l 390 1150 l 472 1228 l 660 1228 l 472 1053 m 244 158 l 743 158 l 743 0 l 39 0 l 39 167 l 531 825 l 64 825 l 64 983 l 735 983 l 735 815 l 244 158 z "},"Ż":{"ha":783,"x_min":39,"x_max":743,"o":"m 476 1250 l 476 1074 l 307 1074 l 307 1250 l 476 1250 m 244 158 l 743 158 l 743 0 l 39 0 l 39 167 l 531 825 l 64 825 l 64 983 l 735 983 l 735 815 l 244 158 z "},"a":{"ha":774,"x_min":61,"x_max":686,"o":"m 575 706 l 686 706 l 686 0 l 575 0 l 547 56 q 336 -19 472 -19 q 133 53 204 -19 q 61 278 61 126 l 61 428 q 133 652 61 579 q 336 725 204 725 q 547 650 472 725 l 575 706 m 372 135 q 473 167 433 135 q 521 258 513 199 l 521 447 q 474 540 513 508 q 372 571 435 571 q 265 533 303 571 q 226 419 226 494 l 226 286 q 265 173 226 211 q 372 135 303 135 z "},"á":{"ha":774,"x_min":61,"x_max":686,"o":"m 631 1014 l 457 775 l 300 775 l 442 1014 l 631 1014 m 575 706 l 686 706 l 686 0 l 575 0 l 547 56 q 336 -19 472 -19 q 133 53 204 -19 q 61 278 61 126 l 61 428 q 133 652 61 579 q 336 725 204 725 q 547 650 472 725 l 575 706 m 372 135 q 473 167 433 135 q 521 258 513 199 l 521 447 q 474 540 513 508 q 372 571 435 571 q 265 533 303 571 q 226 419 226 494 l 226 286 q 265 173 226 211 q 372 135 303 135 z "},"ă":{"ha":774,"x_min":61,"x_max":686,"o":"m 379 768 q 225 824 285 768 q 165 967 165 879 l 269 967 q 300 897 269 924 q 379 871 331 871 q 460 897 429 871 q 490 967 490 924 l 594 967 q 534 824 594 879 q 379 768 474 768 m 575 706 l 686 706 l 686 0 l 575 0 l 547 56 q 336 -19 472 -19 q 133 53 204 -19 q 61 278 61 126 l 61 428 q 133 652 61 579 q 336 725 204 725 q 547 650 472 725 l 575 706 m 372 135 q 473 167 433 135 q 521 258 513 199 l 521 447 q 474 540 513 508 q 372 571 435 571 q 265 533 303 571 q 226 419 226 494 l 226 286 q 265 173 226 211 q 372 135 303 135 z "},"ǎ":{"ha":774,"x_min":61,"x_max":686,"o":"m 451 775 l 307 775 l 132 990 l 301 990 l 381 882 l 458 990 l 626 990 l 451 775 m 575 706 l 686 706 l 686 0 l 575 0 l 547 56 q 336 -19 472 -19 q 133 53 204 -19 q 61 278 61 126 l 61 428 q 133 652 61 579 q 336 725 204 725 q 547 650 472 725 l 575 706 m 372 135 q 473 167 433 135 q 521 258 513 199 l 521 447 q 474 540 513 508 q 372 571 435 571 q 265 533 303 571 q 226 419 226 494 l 226 286 q 265 173 226 211 q 372 135 303 135 z "},"â":{"ha":774,"x_min":61,"x_max":686,"o":"m 383 883 l 304 775 l 136 775 l 311 990 l 456 990 l 631 775 l 461 775 l 383 883 m 575 706 l 686 706 l 686 0 l 575 0 l 547 56 q 336 -19 472 -19 q 133 53 204 -19 q 61 278 61 126 l 61 428 q 133 652 61 579 q 336 725 204 725 q 547 650 472 725 l 575 706 m 372 135 q 473 167 433 135 q 521 258 513 199 l 521 447 q 474 540 513 508 q 372 571 435 571 q 265 533 303 571 q 226 419 226 494 l 226 286 q 265 173 226 211 q 372 135 303 135 z "},"ä":{"ha":774,"x_min":61,"x_max":686,"o":"m 318 958 l 318 796 l 165 796 l 165 958 l 318 958 m 596 958 l 596 796 l 442 796 l 442 958 l 596 958 m 575 706 l 686 706 l 686 0 l 575 0 l 547 56 q 336 -19 472 -19 q 133 53 204 -19 q 61 278 61 126 l 61 428 q 133 652 61 579 q 336 725 204 725 q 547 650 472 725 l 575 706 m 372 135 q 473 167 433 135 q 521 258 513 199 l 521 447 q 474 540 513 508 q 372 571 435 571 q 265 533 303 571 q 226 419 226 494 l 226 286 q 265 173 226 211 q 372 135 303 135 z "},"à":{"ha":774,"x_min":61,"x_max":686,"o":"m 461 775 l 303 775 l 131 1014 l 319 1014 l 461 775 m 575 706 l 686 706 l 686 0 l 575 0 l 547 56 q 336 -19 472 -19 q 133 53 204 -19 q 61 278 61 126 l 61 428 q 133 652 61 579 q 336 725 204 725 q 547 650 472 725 l 575 706 m 372 135 q 473 167 433 135 q 521 258 513 199 l 521 447 q 474 540 513 508 q 372 571 435 571 q 265 533 303 571 q 226 419 226 494 l 226 286 q 265 173 226 211 q 372 135 303 135 z "},"ā":{"ha":774,"x_min":61,"x_max":686,"o":"m 615 956 l 615 817 l 146 817 l 146 956 l 615 956 m 575 706 l 686 706 l 686 0 l 575 0 l 547 56 q 336 -19 472 -19 q 133 53 204 -19 q 61 278 61 126 l 61 428 q 133 652 61 579 q 336 725 204 725 q 547 650 472 725 l 575 706 m 372 135 q 473 167 433 135 q 521 258 513 199 l 521 447 q 474 540 513 508 q 372 571 435 571 q 265 533 303 571 q 226 419 226 494 l 226 286 q 265 173 226 211 q 372 135 303 135 z "},"ą":{"ha":774,"x_min":61,"x_max":686,"o":"m 686 0 q 609 -64 636 -29 q 582 -129 582 -99 q 643 -185 582 -185 l 679 -182 l 679 -296 q 594 -304 643 -304 q 457 -274 503 -304 q 411 -165 411 -243 q 449 -67 411 -117 q 564 22 488 -18 l 544 60 q 449 1 504 21 q 336 -19 393 -19 q 134 53 207 -19 q 61 278 61 126 l 61 428 q 133 652 61 579 q 336 725 204 725 q 547 650 472 725 l 575 706 l 686 706 l 686 0 m 372 135 q 473 167 433 135 q 521 258 513 199 l 521 447 q 474 540 513 508 q 372 571 435 571 q 265 533 303 571 q 226 419 226 494 l 226 286 q 265 173 226 211 q 372 135 303 135 z "},"å":{"ha":774,"x_min":61,"x_max":686,"o":"m 381 768 q 305 783 346 768 q 235 840 264 799 q 207 932 207 881 q 235 1026 207 985 q 305 1083 264 1067 q 381 1099 346 1099 q 456 1083 415 1099 q 526 1026 497 1067 q 554 932 554 985 q 526 840 554 881 q 456 783 497 799 q 381 768 415 768 m 381 994 q 329 977 349 994 q 310 932 310 960 q 329 888 310 904 q 381 871 349 871 q 432 888 413 871 q 451 932 451 904 q 432 977 451 960 q 381 994 413 994 m 575 706 l 686 706 l 686 0 l 575 0 l 547 56 q 336 -19 472 -19 q 133 53 204 -19 q 61 278 61 126 l 61 428 q 133 652 61 579 q 336 725 204 725 q 547 650 472 725 l 575 706 m 372 135 q 473 167 433 135 q 521 258 513 199 l 521 447 q 474 540 513 508 q 372 571 435 571 q 265 533 303 571 q 226 419 226 494 l 226 286 q 265 173 226 211 q 372 135 303 135 z "},"ã":{"ha":774,"x_min":61,"x_max":686,"o":"m 300 856 q 251 782 251 856 l 132 782 q 141 872 132 825 q 181 949 150 918 q 267 979 211 979 q 369 947 315 979 q 438 910 422 914 q 460 906 453 906 q 508 979 508 906 l 629 979 q 594 828 629 875 q 493 782 560 782 q 390 815 443 782 q 322 851 336 847 q 300 856 307 856 m 575 706 l 686 706 l 686 0 l 575 0 l 547 56 q 336 -19 472 -19 q 133 53 204 -19 q 61 278 61 126 l 61 428 q 133 652 61 579 q 336 725 204 725 q 547 650 472 725 l 575 706 m 372 135 q 473 167 433 135 q 521 258 513 199 l 521 447 q 474 540 513 508 q 372 571 435 571 q 265 533 303 571 q 226 419 226 494 l 226 286 q 265 173 226 211 q 372 135 303 135 z "},"æ":{"ha":1172,"x_min":61,"x_max":1110,"o":"m 846 725 q 937 712 890 725 q 1022 667 983 699 q 1085 583 1060 635 q 1110 458 1110 531 l 1110 303 l 676 303 l 676 282 q 715 159 676 200 q 822 118 753 118 q 913 146 881 118 q 944 222 944 174 l 944 239 l 1108 239 q 1042 49 1108 117 q 847 -19 976 -19 q 738 1 789 -19 q 653 60 688 22 l 622 0 l 565 0 l 538 56 q 331 -19 463 -19 q 131 53 201 -19 q 61 278 61 126 l 61 426 q 132 652 61 579 q 332 725 203 725 q 538 650 464 725 l 565 706 l 622 706 l 651 647 q 738 705 688 685 q 846 725 788 725 m 676 429 l 942 429 l 942 457 q 821 588 942 588 q 676 429 679 588 m 367 135 q 447 154 413 135 q 496 207 482 174 q 511 272 510 240 l 511 432 q 496 499 510 465 q 448 551 482 532 q 367 571 414 571 q 263 533 299 571 q 226 421 226 496 l 226 285 q 263 173 226 211 q 367 135 300 135 z "},"b":{"ha":774,"x_min":88,"x_max":713,"o":"m 435 725 q 594 689 533 725 q 683 588 654 653 q 713 428 713 524 l 713 278 q 683 117 713 182 q 594 17 654 53 q 435 -19 533 -19 q 226 56 301 -19 l 199 0 l 88 0 l 88 1069 l 251 1069 l 251 671 q 435 725 322 725 m 547 285 l 547 419 q 509 533 547 494 q 401 571 471 571 q 317 551 353 571 q 267 499 282 532 q 251 432 253 465 l 251 274 q 267 207 253 240 q 317 154 282 174 q 401 135 353 135 q 509 172 471 135 q 547 285 547 210 z "},"c":{"ha":729,"x_min":61,"x_max":668,"o":"m 368 -19 q 142 61 224 -19 q 61 281 61 142 l 61 425 q 142 644 61 564 q 368 725 224 725 q 587 647 506 725 q 668 438 668 568 l 668 421 l 501 421 l 501 442 q 466 538 501 504 q 368 572 431 572 q 262 533 297 572 q 226 419 226 494 l 226 286 q 262 172 226 211 q 368 133 297 133 q 465 168 429 133 q 501 264 501 203 l 501 285 l 668 285 l 668 268 q 587 59 668 138 q 368 -19 506 -19 z "},"ć":{"ha":729,"x_min":61,"x_max":668,"o":"m 615 1014 l 442 775 l 285 775 l 426 1014 l 615 1014 m 368 -19 q 142 61 224 -19 q 61 281 61 142 l 61 425 q 142 644 61 564 q 368 725 224 725 q 587 647 506 725 q 668 438 668 568 l 668 421 l 501 421 l 501 442 q 466 538 501 504 q 368 572 431 572 q 262 533 297 572 q 226 419 226 494 l 226 286 q 262 172 226 211 q 368 133 297 133 q 465 168 429 133 q 501 264 501 203 l 501 285 l 668 285 l 668 268 q 587 59 668 138 q 368 -19 506 -19 z "},"č":{"ha":729,"x_min":61,"x_max":668,"o":"m 436 775 l 292 775 l 117 990 l 286 990 l 365 882 l 443 990 l 611 990 l 436 775 m 668 421 l 501 421 l 501 442 q 466 538 501 504 q 368 572 431 572 q 262 533 297 572 q 226 419 226 494 l 226 286 q 262 172 226 211 q 368 133 297 133 q 465 168 429 133 q 501 264 501 203 l 501 285 l 668 285 l 668 268 q 587 59 668 138 q 368 -19 506 -19 q 142 61 224 -19 q 61 281 61 142 l 61 425 q 142 644 61 564 q 368 725 224 725 q 587 647 506 725 q 668 438 668 568 l 668 421 z "},"ç":{"ha":729,"x_min":61,"x_max":668,"o":"m 668 421 l 501 421 l 501 442 q 466 538 501 504 q 368 572 431 572 q 262 533 297 572 q 226 419 226 494 l 226 286 q 262 172 226 211 q 368 133 297 133 q 465 168 429 133 q 501 264 501 203 l 501 285 l 668 285 l 668 268 q 603 76 668 153 q 425 -15 538 0 l 383 -219 l 206 -219 l 281 -11 q 119 88 176 11 q 61 281 61 164 l 61 425 q 142 644 61 564 q 368 725 224 725 q 587 647 506 725 q 668 438 668 568 l 668 421 z "},"ċ":{"ha":729,"x_min":61,"x_max":668,"o":"m 281 796 l 281 972 l 450 972 l 450 796 l 281 796 m 368 -19 q 142 61 224 -19 q 61 281 61 142 l 61 425 q 142 644 61 564 q 368 725 224 725 q 587 647 506 725 q 668 438 668 568 l 668 421 l 501 421 l 501 442 q 466 538 501 504 q 368 572 431 572 q 262 533 297 572 q 226 419 226 494 l 226 286 q 262 172 226 211 q 368 133 297 133 q 465 168 429 133 q 501 264 501 203 l 501 285 l 668 285 l 668 268 q 587 59 668 138 q 368 -19 506 -19 z "},"d":{"ha":774,"x_min":61,"x_max":686,"o":"m 521 1069 l 686 1069 l 686 0 l 575 0 l 547 56 q 339 -19 472 -19 q 180 17 240 -19 q 90 117 119 53 q 61 278 61 182 l 61 428 q 90 588 61 524 q 180 689 119 653 q 339 725 240 725 q 521 672 450 725 l 521 1069 m 372 135 q 473 167 433 135 q 521 258 513 199 l 521 447 q 474 540 513 508 q 372 571 435 571 q 265 533 303 571 q 226 419 226 494 l 226 285 q 265 172 226 210 q 372 135 303 135 z "},"ð":{"ha":754,"x_min":61,"x_max":697,"o":"m 697 1003 l 599 910 q 683 585 683 786 l 683 299 q 602 65 683 150 q 374 -19 521 -19 q 144 61 226 -19 q 61 283 61 142 l 61 428 q 133 652 61 579 q 336 725 206 725 q 514 676 444 725 q 423 870 499 806 q 196 935 347 935 l 196 1089 q 497 1011 381 1089 l 592 1100 l 697 1003 m 518 306 l 518 432 q 477 535 515 500 q 372 571 439 571 q 265 533 303 571 q 226 419 226 494 l 226 289 q 372 133 226 133 q 518 306 518 133 z "},"ď":{"ha":883,"x_min":61,"x_max":929,"o":"m 521 672 l 521 1069 l 686 1069 l 686 0 l 575 0 l 547 56 q 339 -19 472 -19 q 180 17 240 -19 q 90 117 119 53 q 61 278 61 182 l 61 428 q 90 588 61 524 q 180 689 119 653 q 339 725 240 725 q 521 672 450 725 m 771 1069 l 929 1069 l 876 788 l 726 788 l 771 1069 m 372 135 q 473 167 433 135 q 521 258 513 199 l 521 447 q 474 540 513 508 q 372 571 435 571 q 265 533 303 571 q 226 419 226 494 l 226 285 q 265 172 226 210 q 372 135 303 135 z "},"đ":{"ha":774,"x_min":61,"x_max":779,"o":"m 779 929 l 779 792 l 686 792 l 686 0 l 575 0 l 547 56 q 339 -19 472 -19 q 180 17 240 -19 q 90 117 119 53 q 61 278 61 182 l 61 428 q 90 588 61 524 q 180 689 119 653 q 339 725 240 725 q 521 672 450 725 l 521 792 l 346 792 l 346 929 l 521 929 l 521 1069 l 686 1069 l 686 929 l 779 929 m 372 135 q 473 167 433 135 q 521 258 513 199 l 521 447 q 474 540 513 508 q 372 571 435 571 q 265 533 303 571 q 226 419 226 494 l 226 285 q 265 172 226 210 q 372 135 303 135 z "},"e":{"ha":733,"x_min":61,"x_max":671,"o":"m 369 725 q 491 705 435 725 q 588 649 547 685 q 649 565 628 614 q 671 458 671 515 l 671 303 l 226 303 l 226 282 q 265 159 226 200 q 374 118 303 118 q 445 133 413 118 q 491 170 478 147 q 504 214 504 193 l 504 225 l 669 225 q 589 47 669 113 q 374 -19 508 -19 q 241 2 300 -19 q 142 65 182 24 q 82 163 103 106 q 61 288 61 219 l 61 422 q 142 644 61 563 q 369 725 224 725 m 226 429 l 503 429 l 503 457 q 372 588 503 588 q 226 429 229 588 z "},"é":{"ha":733,"x_min":61,"x_max":671,"o":"m 617 1014 l 443 775 l 286 775 l 428 1014 l 617 1014 m 369 725 q 491 705 435 725 q 588 649 547 685 q 649 565 628 614 q 671 458 671 515 l 671 303 l 226 303 l 226 282 q 265 159 226 200 q 374 118 303 118 q 445 133 413 118 q 491 170 478 147 q 504 214 504 193 l 504 225 l 669 225 q 589 47 669 113 q 374 -19 508 -19 q 241 2 300 -19 q 142 65 182 24 q 82 163 103 106 q 61 288 61 219 l 61 422 q 142 644 61 563 q 369 725 224 725 m 226 429 l 503 429 l 503 457 q 372 588 503 588 q 226 429 229 588 z "},"ě":{"ha":733,"x_min":61,"x_max":671,"o":"m 438 775 l 293 775 l 118 990 l 288 990 l 367 882 l 444 990 l 613 990 l 438 775 m 369 725 q 491 705 435 725 q 588 649 547 685 q 649 565 628 614 q 671 458 671 515 l 671 303 l 226 303 l 226 282 q 265 159 226 200 q 374 118 303 118 q 445 133 413 118 q 491 170 478 147 q 504 214 504 193 l 504 225 l 669 225 q 589 47 669 113 q 374 -19 508 -19 q 241 2 300 -19 q 142 65 182 24 q 82 163 103 106 q 61 288 61 219 l 61 422 q 142 644 61 563 q 369 725 224 725 m 226 429 l 503 429 l 503 457 q 372 588 503 588 q 226 429 229 588 z "},"ê":{"ha":733,"x_min":61,"x_max":671,"o":"m 369 883 l 290 775 l 122 775 l 297 990 l 442 990 l 617 775 l 447 775 l 369 883 m 369 725 q 491 705 435 725 q 588 649 547 685 q 649 565 628 614 q 671 458 671 515 l 671 303 l 226 303 l 226 282 q 265 159 226 200 q 374 118 303 118 q 445 133 413 118 q 491 170 478 147 q 504 214 504 193 l 504 225 l 669 225 q 589 47 669 113 q 374 -19 508 -19 q 241 2 300 -19 q 142 65 182 24 q 82 163 103 106 q 61 288 61 219 l 61 422 q 142 644 61 563 q 369 725 224 725 m 226 429 l 503 429 l 503 457 q 372 588 503 588 q 226 429 229 588 z "},"ë":{"ha":733,"x_min":61,"x_max":671,"o":"m 304 958 l 304 796 l 151 796 l 151 958 l 304 958 m 582 958 l 582 796 l 428 796 l 428 958 l 582 958 m 369 725 q 491 705 435 725 q 588 649 547 685 q 649 565 628 614 q 671 458 671 515 l 671 303 l 226 303 l 226 282 q 265 159 226 200 q 374 118 303 118 q 445 133 413 118 q 491 170 478 147 q 504 214 504 193 l 504 225 l 669 225 q 589 47 669 113 q 374 -19 508 -19 q 241 2 300 -19 q 142 65 182 24 q 82 163 103 106 q 61 288 61 219 l 61 422 q 142 644 61 563 q 369 725 224 725 m 226 429 l 503 429 l 503 457 q 372 588 503 588 q 226 429 229 588 z "},"ė":{"ha":733,"x_min":61,"x_max":671,"o":"m 451 972 l 451 796 l 282 796 l 282 972 l 451 972 m 369 725 q 491 705 435 725 q 588 649 547 685 q 649 565 628 614 q 671 458 671 515 l 671 303 l 226 303 l 226 282 q 265 159 226 200 q 374 118 303 118 q 445 133 413 118 q 491 170 478 147 q 504 214 504 193 l 504 225 l 669 225 q 589 47 669 113 q 374 -19 508 -19 q 241 2 300 -19 q 142 65 182 24 q 82 163 103 106 q 61 288 61 219 l 61 422 q 142 644 61 563 q 369 725 224 725 m 226 429 l 503 429 l 503 457 q 372 588 503 588 q 226 429 229 588 z "},"è":{"ha":733,"x_min":61,"x_max":671,"o":"m 447 775 l 289 775 l 117 1014 l 306 1014 l 447 775 m 369 725 q 491 705 435 725 q 588 649 547 685 q 649 565 628 614 q 671 458 671 515 l 671 303 l 226 303 l 226 282 q 265 159 226 200 q 374 118 303 118 q 445 133 413 118 q 491 170 478 147 q 504 214 504 193 l 504 225 l 669 225 q 589 47 669 113 q 374 -19 508 -19 q 241 2 300 -19 q 142 65 182 24 q 82 163 103 106 q 61 288 61 219 l 61 422 q 142 644 61 563 q 369 725 224 725 m 226 429 l 503 429 l 503 457 q 372 588 503 588 q 226 429 229 588 z "},"ē":{"ha":733,"x_min":61,"x_max":671,"o":"m 601 956 l 601 817 l 132 817 l 132 956 l 601 956 m 369 725 q 491 705 435 725 q 588 649 547 685 q 649 565 628 614 q 671 458 671 515 l 671 303 l 226 303 l 226 282 q 265 159 226 200 q 374 118 303 118 q 445 133 413 118 q 491 170 478 147 q 504 214 504 193 l 504 225 l 669 225 q 589 47 669 113 q 374 -19 508 -19 q 241 2 300 -19 q 142 65 182 24 q 82 163 103 106 q 61 288 61 219 l 61 422 q 142 644 61 563 q 369 725 224 725 m 226 429 l 503 429 l 503 457 q 372 588 503 588 q 226 429 229 588 z "},"ę":{"ha":733,"x_min":61,"x_max":671,"o":"m 371 725 q 492 705 436 725 q 588 649 547 685 q 649 565 628 614 q 671 458 671 515 l 671 303 l 226 303 l 226 282 q 265 159 226 200 q 375 118 304 118 q 469 145 433 118 q 506 219 506 172 l 506 232 l 669 232 q 656 144 669 186 q 604 51 643 103 q 553 -23 565 -1 q 536 -67 542 -44 q 531 -114 531 -89 q 608 -185 531 -185 l 644 -182 l 644 -294 q 561 -304 604 -304 q 422 -273 468 -304 q 376 -162 376 -242 q 438 -14 376 -92 q 371 -19 408 -19 q 240 2 299 -19 q 142 65 182 24 q 82 163 103 106 q 61 288 61 219 l 61 422 q 82 547 61 490 q 142 642 103 603 q 240 703 182 682 q 371 725 299 725 m 226 429 l 503 429 l 503 457 q 372 588 503 588 q 265 547 301 588 q 226 429 228 506 z "},"f":{"ha":472,"x_min":35,"x_max":468,"o":"m 401 917 q 306 880 338 917 q 275 768 275 843 l 275 706 l 458 706 l 458 553 l 275 553 l 275 0 l 110 0 l 110 553 l 35 553 l 35 706 l 110 706 l 110 776 q 183 989 110 908 q 382 1069 256 1069 l 468 1069 l 468 917 l 401 917 z "},"g":{"ha":774,"x_min":61,"x_max":686,"o":"m 575 706 l 686 706 l 686 -67 q 646 -215 686 -154 q 538 -308 606 -276 q 376 -339 471 -339 q 220 -310 285 -339 q 117 -229 156 -282 q 74 -101 78 -176 l 239 -101 q 281 -164 244 -142 q 375 -186 317 -186 q 458 -168 422 -186 q 507 -120 493 -150 q 521 -61 521 -90 l 521 33 q 336 -19 450 -19 q 133 53 204 -19 q 61 278 61 126 l 61 428 q 133 652 61 579 q 336 725 204 725 q 547 650 472 725 l 575 706 m 372 135 q 473 167 433 135 q 521 258 513 199 l 521 447 q 474 540 513 508 q 372 571 435 571 q 265 533 303 571 q 226 419 226 494 l 226 285 q 265 172 226 210 q 372 135 303 135 z "},"ğ":{"ha":774,"x_min":61,"x_max":686,"o":"m 379 768 q 225 824 285 768 q 165 967 165 879 l 269 967 q 300 897 269 924 q 379 871 331 871 q 460 897 429 871 q 490 967 490 924 l 594 967 q 534 824 594 879 q 379 768 474 768 m 575 706 l 686 706 l 686 -67 q 646 -215 686 -154 q 538 -308 606 -276 q 376 -339 471 -339 q 220 -310 285 -339 q 117 -229 156 -282 q 74 -101 78 -176 l 239 -101 q 281 -164 244 -142 q 375 -186 317 -186 q 458 -168 422 -186 q 507 -120 493 -150 q 521 -61 521 -90 l 521 33 q 336 -19 450 -19 q 133 53 204 -19 q 61 278 61 126 l 61 428 q 133 652 61 579 q 336 725 204 725 q 547 650 472 725 l 575 706 m 372 135 q 473 167 433 135 q 521 258 513 199 l 521 447 q 474 540 513 508 q 372 571 435 571 q 265 533 303 571 q 226 419 226 494 l 226 285 q 265 172 226 210 q 372 135 303 135 z "},"ģ":{"ha":774,"x_min":61,"x_max":686,"o":"m 463 918 l 463 779 l 300 779 l 300 914 l 385 1050 l 457 1050 l 407 918 l 463 918 m 575 706 l 686 706 l 686 -67 q 646 -215 686 -154 q 538 -308 606 -276 q 376 -339 471 -339 q 220 -310 285 -339 q 117 -229 156 -282 q 74 -101 78 -176 l 239 -101 q 281 -164 244 -142 q 375 -186 317 -186 q 458 -168 422 -186 q 507 -120 493 -150 q 521 -61 521 -90 l 521 33 q 336 -19 450 -19 q 133 53 204 -19 q 61 278 61 126 l 61 428 q 133 652 61 579 q 336 725 204 725 q 547 650 472 725 l 575 706 m 372 135 q 473 167 433 135 q 521 258 513 199 l 521 447 q 474 540 513 508 q 372 571 435 571 q 265 533 303 571 q 226 419 226 494 l 226 285 q 265 172 226 210 q 372 135 303 135 z "},"ġ":{"ha":774,"x_min":61,"x_max":686,"o":"m 465 972 l 465 796 l 296 796 l 296 972 l 465 972 m 575 706 l 686 706 l 686 -67 q 646 -215 686 -154 q 538 -308 606 -276 q 376 -339 471 -339 q 220 -310 285 -339 q 117 -229 156 -282 q 74 -101 78 -176 l 239 -101 q 281 -164 244 -142 q 375 -186 317 -186 q 458 -168 422 -186 q 507 -120 493 -150 q 521 -61 521 -90 l 521 33 q 336 -19 450 -19 q 133 53 204 -19 q 61 278 61 126 l 61 428 q 133 652 61 579 q 336 725 204 725 q 547 650 472 725 l 575 706 m 372 135 q 473 167 433 135 q 521 258 513 199 l 521 447 q 474 540 513 508 q 372 571 435 571 q 265 533 303 571 q 226 419 226 494 l 226 285 q 265 172 226 210 q 372 135 303 135 z "},"h":{"ha":785,"x_min":88,"x_max":704,"o":"m 439 725 q 634 647 564 725 q 704 410 704 569 l 704 0 l 539 0 l 539 410 q 501 529 539 488 q 400 571 463 571 q 319 551 356 571 q 268 497 283 531 q 251 431 253 463 l 251 0 l 88 0 l 88 1069 l 251 1069 l 251 668 q 439 725 325 725 z "},"ħ":{"ha":785,"x_min":-8,"x_max":704,"o":"m 439 725 q 634 647 564 725 q 704 410 704 569 l 704 0 l 539 0 l 539 410 q 501 529 539 488 q 400 571 463 571 q 319 551 356 571 q 268 497 283 531 q 251 431 253 463 l 251 0 l 88 0 l 88 792 l -8 792 l -8 929 l 88 929 l 88 1069 l 251 1069 l 251 929 l 425 929 l 425 792 l 251 792 l 251 668 q 439 725 325 725 z "},"i":{"ha":343,"x_min":86,"x_max":256,"o":"m 86 796 l 86 972 l 256 972 l 256 796 l 86 796 m 89 0 l 89 706 l 254 706 l 254 0 l 89 0 z "},"ı":{"ha":343,"x_min":89,"x_max":254,"o":"m 89 0 l 89 706 l 254 706 l 254 0 l 89 0 z "},"í":{"ha":343,"x_min":89,"x_max":421,"o":"m 421 1014 l 247 775 l 90 775 l 232 1014 l 421 1014 m 89 0 l 89 706 l 254 706 l 254 0 l 89 0 z "},"ǐ":{"ha":343,"x_min":-78,"x_max":417,"o":"m 242 775 l 97 775 l -78 990 l 92 990 l 171 882 l 249 990 l 417 990 l 242 775 m 89 0 l 89 706 l 254 706 l 254 0 l 89 0 z "},"î":{"ha":343,"x_min":-74,"x_max":421,"o":"m 174 883 l 94 775 l -74 775 l 101 990 l 246 990 l 421 775 l 251 775 l 174 883 m 89 0 l 89 706 l 254 706 l 254 0 l 89 0 z "},"ï":{"ha":343,"x_min":-44,"x_max":386,"o":"m -44 796 l -44 958 l 108 958 l 108 796 l -44 796 m 232 796 l 232 958 l 386 958 l 386 796 l 232 796 m 89 0 l 89 706 l 254 706 l 254 0 l 89 0 z "},"ì":{"ha":343,"x_min":-79,"x_max":254,"o":"m -79 1014 l 110 1014 l 251 775 l 93 775 l -79 1014 m 89 0 l 89 706 l 254 706 l 254 0 l 89 0 z "},"ĳ":{"ha":710,"x_min":86,"x_max":621,"o":"m 86 796 l 86 972 l 256 972 l 256 796 l 86 796 m 453 796 l 453 972 l 621 972 l 621 796 l 453 796 m 89 0 l 89 706 l 254 706 l 254 0 l 89 0 m 300 -319 l 300 -167 l 331 -167 q 404 -151 378 -167 q 442 -103 431 -135 q 454 -17 454 -72 l 454 706 l 619 706 l 619 -61 q 590 -203 619 -146 q 508 -290 561 -260 q 376 -319 454 -319 l 300 -319 z "},"ī":{"ha":343,"x_min":-64,"x_max":406,"o":"m 406 956 l 406 817 l -64 817 l -64 956 l 406 956 m 89 0 l 89 706 l 254 706 l 254 0 l 89 0 z "},"į":{"ha":343,"x_min":-22,"x_max":256,"o":"m 86 972 l 256 972 l 256 796 l 86 796 l 86 972 m 89 6 l 89 706 l 254 706 l 254 0 q 176 -64 203 -29 q 149 -129 149 -99 q 210 -185 149 -185 l 246 -182 l 246 -296 q 163 -304 210 -304 q 24 -274 69 -304 q -22 -165 -22 -243 q 6 -78 -22 -122 q 89 6 33 -33 z "},"j":{"ha":367,"x_min":-43,"x_max":278,"o":"m 110 796 l 110 972 l 278 972 l 278 796 l 110 796 m -43 -319 l -43 -167 l -12 -167 q 61 -151 35 -167 q 99 -103 88 -135 q 111 -17 111 -72 l 111 706 l 276 706 l 276 -61 q 247 -203 276 -146 q 165 -290 218 -260 q 33 -319 111 -319 l -43 -319 z "},"ȷ":{"ha":368,"x_min":-43,"x_max":276,"o":"m -43 -319 l -43 -167 l -12 -167 q 61 -151 35 -167 q 99 -103 88 -135 q 111 -17 111 -72 l 111 706 l 276 706 l 276 -61 q 247 -203 276 -146 q 165 -290 218 -260 q 33 -319 111 -319 l -43 -319 z "},"k":{"ha":742,"x_min":89,"x_max":729,"o":"m 729 0 l 532 0 l 254 344 l 254 0 l 89 0 l 89 1069 l 254 1069 l 254 413 l 524 706 l 726 706 l 429 378 l 729 0 z "},"ķ":{"ha":742,"x_min":89,"x_max":729,"o":"m 429 378 l 729 0 l 532 0 l 254 344 l 254 0 l 89 0 l 89 1069 l 254 1069 l 254 413 l 524 706 l 726 706 l 429 378 m 285 -212 l 285 -74 l 447 -74 l 447 -208 l 363 -344 l 290 -344 l 340 -212 l 285 -212 z "},"l":{"ha":343,"x_min":89,"x_max":254,"o":"m 89 1069 l 254 1069 l 254 0 l 89 0 l 89 1069 z "},"ĺ":{"ha":343,"x_min":85,"x_max":453,"o":"m 453 1344 l 261 1139 l 85 1139 l 244 1344 l 453 1344 m 89 1069 l 254 1069 l 254 0 l 89 0 l 89 1069 z "},"ľ":{"ha":453,"x_min":89,"x_max":497,"o":"m 89 1069 l 254 1069 l 254 0 l 89 0 l 89 1069 m 497 1069 l 444 788 l 294 788 l 339 1069 l 497 1069 z "},"ļ":{"ha":343,"x_min":89,"x_max":254,"o":"m 89 1069 l 254 1069 l 254 0 l 89 0 l 89 1069 m 89 -212 l 89 -74 l 251 -74 l 251 -208 l 167 -344 l 94 -344 l 144 -212 l 89 -212 z "},"ŀ":{"ha":483,"x_min":89,"x_max":503,"o":"m 89 1069 l 254 1069 l 254 0 l 89 0 l 89 1069 m 338 435 l 338 625 l 503 625 l 503 435 l 338 435 z "},"ł":{"ha":343,"x_min":-21,"x_max":361,"o":"m 361 701 l 361 525 l 254 463 l 254 0 l 89 0 l 89 365 l -21 300 l -21 476 l 89 542 l 89 1069 l 254 1069 l 254 639 l 361 701 z "},"m":{"ha":1143,"x_min":88,"x_max":1064,"o":"m 810 725 q 1064 410 1064 725 l 1064 0 l 899 0 l 899 418 q 867 531 899 492 q 782 571 835 571 q 717 553 746 571 q 675 503 689 535 q 658 440 661 471 l 658 417 l 658 0 l 493 0 l 493 418 q 461 531 493 492 q 376 571 429 571 q 310 551 340 571 q 266 497 279 531 q 251 432 253 464 l 251 0 l 88 0 l 88 706 l 194 706 l 222 649 q 306 706 257 686 q 404 725 354 725 q 610 626 550 725 q 698 699 644 674 q 810 725 751 725 z "},"n":{"ha":785,"x_min":88,"x_max":704,"o":"m 438 725 q 589 686 531 725 q 676 579 647 647 q 704 410 704 511 l 704 0 l 539 0 l 539 411 q 501 530 539 489 q 399 571 463 571 q 331 557 363 571 q 277 513 300 543 q 251 432 254 482 l 251 0 l 88 0 l 88 706 l 194 706 l 225 644 q 319 704 264 683 q 438 725 375 725 z "},"ń":{"ha":785,"x_min":88,"x_max":704,"o":"m 642 1014 l 468 775 l 311 775 l 453 1014 l 642 1014 m 438 725 q 589 686 531 725 q 676 579 647 647 q 704 410 704 511 l 704 0 l 539 0 l 539 411 q 501 530 539 489 q 399 571 463 571 q 331 557 363 571 q 277 513 300 543 q 251 432 254 482 l 251 0 l 88 0 l 88 706 l 194 706 l 225 644 q 319 704 264 683 q 438 725 375 725 z "},"ň":{"ha":785,"x_min":88,"x_max":704,"o":"m 463 775 l 318 775 l 143 990 l 313 990 l 392 882 l 469 990 l 638 990 l 463 775 m 438 725 q 589 686 531 725 q 676 579 647 647 q 704 410 704 511 l 704 0 l 539 0 l 539 411 q 501 530 539 489 q 399 571 463 571 q 331 557 363 571 q 277 513 300 543 q 251 432 254 482 l 251 0 l 88 0 l 88 706 l 194 706 l 225 644 q 319 704 264 683 q 438 725 375 725 z "},"ņ":{"ha":785,"x_min":88,"x_max":704,"o":"m 438 725 q 589 686 531 725 q 676 579 647 647 q 704 410 704 511 l 704 0 l 539 0 l 539 411 q 501 530 539 489 q 399 571 463 571 q 331 557 363 571 q 277 513 300 543 q 251 432 254 482 l 251 0 l 88 0 l 88 706 l 194 706 l 225 644 q 319 704 264 683 q 438 725 375 725 m 310 -212 l 310 -74 l 472 -74 l 472 -208 l 388 -344 l 315 -344 l 365 -212 l 310 -212 z "},"ŋ":{"ha":785,"x_min":88,"x_max":704,"o":"m 438 725 q 589 686 531 725 q 676 579 647 647 q 704 410 704 511 l 704 -61 q 675 -203 704 -146 q 592 -290 646 -260 q 461 -319 539 -319 l 385 -319 l 385 -167 l 415 -167 q 510 -135 482 -167 q 539 -17 539 -103 l 539 411 q 501 530 539 489 q 399 571 463 571 q 331 557 363 571 q 277 513 300 543 q 251 432 254 482 l 251 0 l 88 0 l 88 706 l 199 706 l 226 646 q 438 725 304 725 z "},"ñ":{"ha":785,"x_min":88,"x_max":704,"o":"m 311 856 q 263 782 263 856 l 143 782 q 152 872 143 825 q 192 949 161 918 q 278 979 222 979 q 380 947 326 979 q 449 910 433 914 q 471 906 464 906 q 519 979 519 906 l 640 979 q 606 828 640 875 q 504 782 571 782 q 401 815 454 782 q 333 851 347 847 q 311 856 318 856 m 438 725 q 589 686 531 725 q 676 579 647 647 q 704 410 704 511 l 704 0 l 539 0 l 539 411 q 501 530 539 489 q 399 571 463 571 q 331 557 363 571 q 277 513 300 543 q 251 432 254 482 l 251 0 l 88 0 l 88 706 l 194 706 l 225 644 q 319 704 264 683 q 438 725 375 725 z "},"o":{"ha":747,"x_min":61,"x_max":685,"o":"m 374 -19 q 143 61 225 -19 q 61 281 61 142 l 61 425 q 143 644 61 564 q 372 725 225 725 q 603 644 521 725 q 685 425 685 564 l 685 281 q 603 61 685 142 q 374 -19 521 -19 m 372 133 q 519 286 519 133 l 519 419 q 374 572 519 572 q 226 419 226 572 l 226 286 q 372 133 226 133 z "},"ó":{"ha":747,"x_min":61,"x_max":685,"o":"m 624 1014 l 450 775 l 293 775 l 435 1014 l 624 1014 m 374 -19 q 143 61 225 -19 q 61 281 61 142 l 61 425 q 143 644 61 564 q 372 725 225 725 q 603 644 521 725 q 685 425 685 564 l 685 281 q 603 61 685 142 q 374 -19 521 -19 m 372 133 q 519 286 519 133 l 519 419 q 374 572 519 572 q 226 419 226 572 l 226 286 q 372 133 226 133 z "},"ǒ":{"ha":747,"x_min":61,"x_max":685,"o":"m 444 775 l 300 775 l 125 990 l 294 990 l 374 882 l 451 990 l 619 990 l 444 775 m 372 725 q 603 644 521 725 q 685 425 685 564 l 685 281 q 603 61 685 142 q 374 -19 521 -19 q 143 61 225 -19 q 61 281 61 142 l 61 425 q 143 644 61 564 q 372 725 225 725 m 519 286 l 519 419 q 374 572 519 572 q 226 419 226 572 l 226 286 q 372 133 226 133 q 519 286 519 133 z "},"ô":{"ha":747,"x_min":61,"x_max":685,"o":"m 376 883 l 297 775 l 129 775 l 304 990 l 449 990 l 624 775 l 454 775 l 376 883 m 372 725 q 603 644 521 725 q 685 425 685 564 l 685 281 q 603 61 685 142 q 374 -19 521 -19 q 143 61 225 -19 q 61 281 61 142 l 61 425 q 143 644 61 564 q 372 725 225 725 m 519 286 l 519 419 q 374 572 519 572 q 226 419 226 572 l 226 286 q 372 133 226 133 q 519 286 519 133 z "},"ö":{"ha":747,"x_min":61,"x_max":685,"o":"m 158 796 l 158 958 l 311 958 l 311 796 l 158 796 m 435 796 l 435 958 l 589 958 l 589 796 l 435 796 m 374 -19 q 143 61 225 -19 q 61 281 61 142 l 61 425 q 143 644 61 564 q 372 725 225 725 q 603 644 521 725 q 685 425 685 564 l 685 281 q 603 61 685 142 q 374 -19 521 -19 m 372 133 q 519 286 519 133 l 519 419 q 374 572 519 572 q 226 419 226 572 l 226 286 q 372 133 226 133 z "},"ò":{"ha":747,"x_min":61,"x_max":685,"o":"m 124 1014 l 313 1014 l 454 775 l 296 775 l 124 1014 m 374 -19 q 143 61 225 -19 q 61 281 61 142 l 61 425 q 143 644 61 564 q 372 725 225 725 q 603 644 521 725 q 685 425 685 564 l 685 281 q 603 61 685 142 q 374 -19 521 -19 m 372 133 q 519 286 519 133 l 519 419 q 374 572 519 572 q 226 419 226 572 l 226 286 q 372 133 226 133 z "},"ő":{"ha":747,"x_min":61,"x_max":686,"o":"m 413 958 l 310 775 l 171 775 l 263 958 l 413 958 m 686 958 l 583 775 l 444 775 l 536 958 l 686 958 m 374 -19 q 143 61 225 -19 q 61 281 61 142 l 61 425 q 143 644 61 564 q 372 725 225 725 q 603 644 521 725 q 685 425 685 564 l 685 281 q 603 61 685 142 q 374 -19 521 -19 m 372 133 q 519 286 519 133 l 519 419 q 374 572 519 572 q 226 419 226 572 l 226 286 q 372 133 226 133 z "},"ō":{"ha":747,"x_min":61,"x_max":685,"o":"m 608 956 l 608 817 l 139 817 l 139 956 l 608 956 m 374 -19 q 143 61 225 -19 q 61 281 61 142 l 61 425 q 143 644 61 564 q 372 725 225 725 q 603 644 521 725 q 685 425 685 564 l 685 281 q 603 61 685 142 q 374 -19 521 -19 m 372 133 q 519 286 519 133 l 519 419 q 374 572 519 572 q 226 419 226 572 l 226 286 q 372 133 226 133 z "},"ø":{"ha":747,"x_min":61,"x_max":685,"o":"m 603 644 q 685 425 685 567 l 685 281 q 603 61 685 142 q 374 -19 521 -19 q 285 -11 326 -19 l 236 -111 l 96 -39 l 144 60 q 83 155 104 97 q 61 281 61 213 l 61 425 q 143 644 61 564 q 372 725 225 725 q 464 717 422 725 l 513 817 l 651 744 l 603 644 m 226 286 q 231 238 226 261 l 393 571 l 374 572 q 226 419 226 572 l 226 286 m 519 286 l 519 419 q 515 465 519 444 l 356 133 l 372 133 q 519 286 519 133 z "},"õ":{"ha":747,"x_min":61,"x_max":685,"o":"m 622 979 q 588 828 622 875 q 486 782 553 782 q 383 815 436 782 q 315 851 329 847 q 293 856 300 856 q 244 782 244 856 l 125 782 q 134 872 125 825 q 174 949 143 918 q 260 979 204 979 q 362 947 308 979 q 431 910 415 914 q 453 906 446 906 q 501 979 501 906 l 622 979 m 374 -19 q 143 61 225 -19 q 61 281 61 142 l 61 425 q 143 644 61 564 q 372 725 225 725 q 603 644 521 725 q 685 425 685 564 l 685 281 q 603 61 685 142 q 374 -19 521 -19 m 372 133 q 519 286 519 133 l 519 419 q 374 572 519 572 q 226 419 226 572 l 226 286 q 372 133 226 133 z "},"œ":{"ha":1183,"x_min":61,"x_max":1124,"o":"m 822 725 q 944 705 888 725 q 1040 649 1000 685 q 1102 565 1081 614 q 1124 458 1124 515 l 1124 303 l 685 303 l 685 281 l 682 236 q 826 118 703 118 q 898 133 865 118 q 944 170 931 147 q 957 214 957 193 l 957 225 l 1122 225 q 1042 47 1122 113 q 826 -19 961 -19 q 601 58 683 -19 q 374 -19 519 -19 q 143 61 225 -19 q 61 281 61 142 l 61 425 q 143 644 61 564 q 372 725 225 725 q 600 649 517 725 q 822 725 681 725 m 685 429 l 956 429 l 956 457 q 825 588 956 588 q 728 558 764 588 q 682 471 692 528 l 685 429 m 372 133 q 517 243 497 133 l 514 288 l 514 422 l 515 464 q 374 572 499 572 q 226 419 226 572 l 226 286 q 372 133 226 133 z "},"p":{"ha":774,"x_min":88,"x_max":713,"o":"m 435 725 q 594 689 533 725 q 683 588 654 653 q 713 428 713 524 l 713 278 q 683 117 713 182 q 594 17 654 53 q 435 -19 533 -19 q 251 35 322 -19 l 251 -319 l 88 -319 l 88 706 l 199 706 l 226 650 q 435 725 301 725 m 547 285 l 547 419 q 509 533 547 494 q 401 571 471 571 q 317 551 353 571 q 267 499 282 532 q 251 432 253 465 l 251 274 q 267 207 253 240 q 317 154 282 174 q 401 135 353 135 q 509 172 471 135 q 547 285 547 210 z "},"þ":{"ha":774,"x_min":88,"x_max":713,"o":"m 435 725 q 594 689 533 725 q 683 588 654 653 q 713 428 713 524 l 713 278 q 683 117 713 182 q 594 17 654 53 q 435 -19 533 -19 q 251 35 322 -19 l 251 -319 l 88 -319 l 88 1069 l 251 1069 l 251 671 q 435 725 322 725 m 547 285 l 547 419 q 509 533 547 494 q 401 571 471 571 q 317 551 353 571 q 267 499 282 532 q 251 432 253 465 l 251 274 q 267 207 253 240 q 317 154 282 174 q 401 135 353 135 q 509 172 471 135 q 547 285 547 210 z "},"q":{"ha":774,"x_min":61,"x_max":686,"o":"m 575 706 l 686 706 l 686 -319 l 521 -319 l 521 33 q 339 -19 450 -19 q 180 17 240 -19 q 90 117 119 53 q 61 278 61 182 l 61 428 q 90 588 61 524 q 180 689 119 653 q 339 725 240 725 q 547 650 472 725 l 575 706 m 372 135 q 473 167 433 135 q 521 258 513 199 l 521 447 q 474 540 513 508 q 372 571 435 571 q 265 533 303 571 q 226 419 226 494 l 226 285 q 265 172 226 210 q 372 135 303 135 z "},"r":{"ha":511,"x_min":88,"x_max":476,"o":"m 442 719 l 476 717 l 476 571 q 411 581 440 581 q 298 540 344 581 q 251 425 251 500 l 251 0 l 88 0 l 88 706 l 199 706 l 231 642 q 327 699 271 679 q 442 719 383 719 z "},"ŕ":{"ha":511,"x_min":88,"x_max":503,"o":"m 503 1014 l 329 775 l 172 775 l 314 1014 l 503 1014 m 231 642 q 327 699 271 679 q 442 719 383 719 l 476 717 l 476 571 q 411 581 440 581 q 298 540 344 581 q 251 425 251 500 l 251 0 l 88 0 l 88 706 l 199 706 l 231 642 z "},"ř":{"ha":511,"x_min":4,"x_max":499,"o":"m 324 775 l 179 775 l 4 990 l 174 990 l 253 882 l 331 990 l 499 990 l 324 775 m 231 642 q 327 699 271 679 q 442 719 383 719 l 476 717 l 476 571 q 411 581 440 581 q 298 540 344 581 q 251 425 251 500 l 251 0 l 88 0 l 88 706 l 199 706 l 231 642 z "},"ŗ":{"ha":511,"x_min":88,"x_max":476,"o":"m 442 719 l 476 717 l 476 571 q 411 581 440 581 q 298 540 344 581 q 251 425 251 500 l 251 0 l 88 0 l 88 706 l 199 706 l 231 642 q 327 699 271 679 q 442 719 383 719 m 219 -212 l 219 -74 l 382 -74 l 382 -208 l 297 -344 l 225 -344 l 275 -212 l 219 -212 z "},"s":{"ha":660,"x_min":44,"x_max":621,"o":"m 333 -19 q 123 47 201 -19 q 44 218 44 113 l 44 233 l 208 233 l 208 218 q 221 176 208 197 q 266 140 233 154 q 342 125 299 125 q 424 144 392 125 q 457 197 457 164 q 445 231 457 214 q 401 260 433 247 q 283 293 368 272 q 151 340 197 314 q 81 403 106 365 q 57 497 57 440 q 133 663 57 600 q 332 725 210 725 q 534 660 458 725 q 610 494 610 596 l 610 481 l 446 481 l 446 494 q 415 557 446 533 q 332 581 383 581 q 250 560 281 581 q 219 508 219 539 q 235 474 219 488 q 278 451 251 460 q 378 424 304 442 q 497 385 451 406 q 567 341 543 365 q 606 285 592 317 q 621 208 621 254 q 586 90 621 140 q 487 10 551 40 q 333 -19 422 -19 z "},"ś":{"ha":660,"x_min":44,"x_max":621,"o":"m 579 1014 l 406 775 l 249 775 l 390 1014 l 579 1014 m 333 -19 q 123 47 201 -19 q 44 218 44 113 l 44 233 l 208 233 l 208 218 q 221 176 208 197 q 266 140 233 154 q 342 125 299 125 q 424 144 392 125 q 457 197 457 164 q 445 231 457 214 q 401 260 433 247 q 283 293 368 272 q 151 340 197 314 q 81 403 106 365 q 57 497 57 440 q 133 663 57 600 q 332 725 210 725 q 534 660 458 725 q 610 494 610 596 l 610 481 l 446 481 l 446 494 q 415 557 446 533 q 332 581 383 581 q 250 560 281 581 q 219 508 219 539 q 235 474 219 488 q 278 451 251 460 q 378 424 304 442 q 497 385 451 406 q 567 341 543 365 q 606 285 592 317 q 621 208 621 254 q 586 90 621 140 q 487 10 551 40 q 333 -19 422 -19 z "},"š":{"ha":660,"x_min":44,"x_max":621,"o":"m 400 775 l 256 775 l 81 990 l 250 990 l 329 882 l 407 990 l 575 990 l 400 775 m 219 508 q 235 474 219 488 q 278 451 251 460 q 378 424 304 442 q 497 385 451 406 q 567 341 543 365 q 606 285 592 317 q 621 208 621 254 q 586 90 621 140 q 487 10 551 40 q 333 -19 422 -19 q 123 47 201 -19 q 44 218 44 113 l 44 233 l 208 233 l 208 218 q 221 176 208 197 q 266 140 233 154 q 342 125 299 125 q 424 144 392 125 q 457 197 457 164 q 445 231 457 214 q 401 260 433 247 q 283 293 368 272 q 151 340 197 314 q 81 403 106 365 q 57 497 57 440 q 133 663 57 600 q 332 725 210 725 q 534 660 458 725 q 610 494 610 596 l 610 481 l 446 481 l 446 494 q 415 557 446 533 q 332 581 383 581 q 250 560 281 581 q 219 508 219 539 z "},"ş":{"ha":660,"x_min":44,"x_max":621,"o":"m 621 208 q 592 99 621 149 q 508 21 563 49 q 392 -15 453 -7 l 350 -219 l 172 -219 l 247 -11 q 155 25 203 -1 q 76 103 107 51 q 44 218 44 154 l 44 233 l 208 233 l 208 218 q 221 176 208 197 q 266 140 233 154 q 342 125 299 125 q 424 144 392 125 q 457 197 457 164 q 445 231 457 214 q 401 260 433 247 q 283 293 368 272 q 151 340 197 314 q 81 403 106 365 q 57 497 57 440 q 133 663 57 600 q 332 725 210 725 q 534 660 458 725 q 610 494 610 596 l 610 481 l 446 481 l 446 494 q 415 557 446 533 q 332 581 383 581 q 250 560 281 581 q 219 508 219 539 q 235 474 219 488 q 278 451 251 460 q 378 424 304 442 q 497 385 451 406 q 567 341 543 365 q 606 285 592 317 q 621 208 621 254 z "},"ș":{"ha":660,"x_min":44,"x_max":621,"o":"m 219 508 q 235 474 219 488 q 278 451 251 460 q 378 424 304 442 q 497 385 451 406 q 567 341 543 365 q 606 285 592 317 q 621 208 621 254 q 586 90 621 140 q 487 10 551 40 q 333 -19 422 -19 q 123 47 201 -19 q 44 218 44 113 l 44 233 l 208 233 l 208 218 q 221 176 208 197 q 266 140 233 154 q 342 125 299 125 q 424 144 392 125 q 457 197 457 164 q 445 231 457 214 q 401 260 433 247 q 283 293 368 272 q 151 340 197 314 q 81 403 106 365 q 57 497 57 440 q 133 663 57 600 q 332 725 210 725 q 534 660 458 725 q 610 494 610 596 l 610 481 l 446 481 l 446 494 q 415 557 446 533 q 332 581 383 581 q 250 560 281 581 q 219 508 219 539 m 250 -212 l 250 -74 l 413 -74 l 413 -208 l 328 -344 l 256 -344 l 306 -212 l 250 -212 z "},"ß":{"ha":789,"x_min":89,"x_max":728,"o":"m 638 554 q 705 468 682 521 q 728 350 728 415 l 728 272 q 644 72 728 144 q 408 0 560 0 l 344 0 l 344 153 l 408 153 q 563 276 563 153 l 563 344 q 408 468 563 468 l 353 468 l 353 621 l 408 621 q 536 746 536 621 l 536 813 q 404 936 536 936 q 254 785 254 936 l 254 0 l 89 0 l 89 789 q 171 1009 89 929 q 403 1089 253 1089 q 622 1016 543 1089 q 701 817 701 943 l 701 740 q 638 554 701 626 z "},"t":{"ha":489,"x_min":14,"x_max":460,"o":"m 394 153 l 460 153 l 460 0 l 360 0 q 108 265 108 0 l 108 553 l 14 553 l 14 706 l 108 706 l 108 907 l 274 907 l 274 706 l 450 706 l 450 553 l 274 553 l 274 297 q 394 153 274 153 z "},"ŧ":{"ha":489,"x_min":14,"x_max":460,"o":"m 394 153 l 460 153 l 460 0 l 360 0 q 108 265 108 0 l 108 315 l 15 315 l 15 453 l 108 453 l 108 553 l 14 553 l 14 706 l 108 706 l 108 907 l 274 907 l 274 706 l 450 706 l 450 553 l 274 553 l 274 453 l 449 453 l 449 315 l 274 315 l 274 297 q 394 153 274 153 z "},"ť":{"ha":599,"x_min":14,"x_max":546,"o":"m 388 1090 l 546 1090 l 493 808 l 343 808 l 388 1090 m 274 297 q 394 153 274 153 l 460 153 l 460 0 l 360 0 q 108 265 108 0 l 108 553 l 14 553 l 14 706 l 108 706 l 108 907 l 274 907 l 274 706 l 450 706 l 450 553 l 274 553 l 274 297 z "},"ţ":{"ha":489,"x_min":14,"x_max":460,"o":"m 394 153 l 460 153 l 460 0 l 360 0 l 354 0 l 308 -219 l 131 -219 l 221 29 q 108 265 108 88 l 108 553 l 14 553 l 14 706 l 108 706 l 108 907 l 274 907 l 274 706 l 450 706 l 450 553 l 274 553 l 274 297 q 394 153 274 153 z "},"ț":{"ha":489,"x_min":14,"x_max":460,"o":"m 394 153 l 460 153 l 460 0 l 360 0 q 108 265 108 0 l 108 553 l 14 553 l 14 706 l 108 706 l 108 907 l 274 907 l 274 706 l 450 706 l 450 553 l 274 553 l 274 297 q 394 153 274 153 m 208 -212 l 208 -74 l 371 -74 l 371 -208 l 286 -344 l 214 -344 l 264 -212 l 208 -212 z "},"u":{"ha":763,"x_min":81,"x_max":675,"o":"m 510 706 l 675 706 l 675 0 l 567 0 l 539 57 q 342 -19 464 -19 q 149 58 218 -19 q 81 294 81 135 l 81 706 l 246 706 l 246 294 q 279 175 246 215 q 375 135 313 135 q 449 155 415 135 q 495 208 482 175 q 510 274 508 242 l 510 706 z "},"ú":{"ha":763,"x_min":81,"x_max":675,"o":"m 632 1014 l 458 775 l 301 775 l 443 1014 l 632 1014 m 510 706 l 675 706 l 675 0 l 567 0 l 539 57 q 342 -19 464 -19 q 149 58 218 -19 q 81 294 81 135 l 81 706 l 246 706 l 246 294 q 279 175 246 215 q 375 135 313 135 q 449 155 415 135 q 495 208 482 175 q 510 274 508 242 l 510 706 z "},"ǔ":{"ha":763,"x_min":81,"x_max":675,"o":"m 453 775 l 308 775 l 133 990 l 303 990 l 382 882 l 460 990 l 628 990 l 453 775 m 510 706 l 675 706 l 675 0 l 567 0 l 539 57 q 342 -19 464 -19 q 149 58 218 -19 q 81 294 81 135 l 81 706 l 246 706 l 246 294 q 279 175 246 215 q 375 135 313 135 q 449 155 415 135 q 495 208 482 175 q 510 274 508 242 l 510 706 z "},"û":{"ha":763,"x_min":81,"x_max":675,"o":"m 385 883 l 306 775 l 138 775 l 313 990 l 457 990 l 632 775 l 463 775 l 385 883 m 510 706 l 675 706 l 675 0 l 567 0 l 539 57 q 342 -19 464 -19 q 149 58 218 -19 q 81 294 81 135 l 81 706 l 246 706 l 246 294 q 279 175 246 215 q 375 135 313 135 q 449 155 415 135 q 495 208 482 175 q 510 274 508 242 l 510 706 z "},"ü":{"ha":763,"x_min":81,"x_max":675,"o":"m 319 958 l 319 796 l 167 796 l 167 958 l 319 958 m 597 958 l 597 796 l 443 796 l 443 958 l 597 958 m 510 706 l 675 706 l 675 0 l 567 0 l 539 57 q 342 -19 464 -19 q 149 58 218 -19 q 81 294 81 135 l 81 706 l 246 706 l 246 294 q 279 175 246 215 q 375 135 313 135 q 449 155 415 135 q 495 208 482 175 q 510 274 508 242 l 510 706 z "},"ù":{"ha":763,"x_min":81,"x_max":675,"o":"m 463 775 l 304 775 l 132 1014 l 321 1014 l 463 775 m 510 706 l 675 706 l 675 0 l 567 0 l 539 57 q 342 -19 464 -19 q 149 58 218 -19 q 81 294 81 135 l 81 706 l 246 706 l 246 294 q 279 175 246 215 q 375 135 313 135 q 449 155 415 135 q 495 208 482 175 q 510 274 508 242 l 510 706 z "},"ű":{"ha":763,"x_min":81,"x_max":694,"o":"m 421 958 l 318 775 l 179 775 l 271 958 l 421 958 m 694 958 l 592 775 l 453 775 l 544 958 l 694 958 m 510 274 l 510 706 l 675 706 l 675 0 l 567 0 l 539 57 q 342 -19 464 -19 q 149 58 218 -19 q 81 294 81 135 l 81 706 l 246 706 l 246 294 q 279 175 246 215 q 375 135 313 135 q 449 155 415 135 q 495 208 482 175 q 510 274 508 242 z "},"ū":{"ha":763,"x_min":81,"x_max":675,"o":"m 617 956 l 617 817 l 147 817 l 147 956 l 617 956 m 510 706 l 675 706 l 675 0 l 567 0 l 539 57 q 342 -19 464 -19 q 149 58 218 -19 q 81 294 81 135 l 81 706 l 246 706 l 246 294 q 279 175 246 215 q 375 135 313 135 q 449 155 415 135 q 495 208 482 175 q 510 274 508 242 l 510 706 z "},"ų":{"ha":763,"x_min":81,"x_max":675,"o":"m 675 0 q 598 -64 625 -29 q 571 -129 571 -99 q 632 -185 571 -185 l 668 -182 l 668 -296 q 583 -304 632 -304 q 446 -274 492 -304 q 400 -165 400 -243 q 439 -67 400 -117 q 556 24 478 -17 l 536 63 q 445 1 497 22 q 342 -19 393 -19 q 198 19 256 -19 q 110 126 140 58 q 81 294 81 194 l 81 706 l 246 706 l 246 294 q 279 175 246 215 q 375 135 313 135 q 449 155 415 135 q 495 208 482 175 q 510 274 508 242 l 510 706 l 675 706 l 675 0 z "},"ů":{"ha":763,"x_min":81,"x_max":675,"o":"m 382 768 q 306 783 347 768 q 237 840 265 799 q 208 932 208 881 q 237 1026 208 985 q 306 1083 265 1067 q 382 1099 347 1099 q 458 1083 417 1099 q 527 1026 499 1067 q 556 932 556 985 q 527 840 556 881 q 458 783 499 799 q 382 768 417 768 m 382 994 q 331 977 350 994 q 311 932 311 960 q 331 888 311 904 q 382 871 350 871 q 433 888 414 871 q 453 932 453 904 q 433 977 453 960 q 382 994 414 994 m 510 706 l 675 706 l 675 0 l 567 0 l 539 57 q 342 -19 464 -19 q 149 58 218 -19 q 81 294 81 135 l 81 706 l 246 706 l 246 294 q 279 175 246 215 q 375 135 313 135 q 449 155 415 135 q 495 208 482 175 q 510 274 508 242 l 510 706 z "},"v":{"ha":671,"x_min":14,"x_max":657,"o":"m 486 706 l 657 706 l 444 0 l 226 0 l 14 706 l 185 706 l 340 172 l 486 706 z "},"w":{"ha":957,"x_min":14,"x_max":943,"o":"m 775 706 l 943 706 l 771 0 l 600 0 l 479 385 l 357 0 l 186 0 l 14 706 l 182 706 l 288 172 l 413 706 l 543 706 l 669 172 l 775 706 z "},"ẃ":{"ha":957,"x_min":14,"x_max":943,"o":"m 729 1014 l 556 775 l 399 775 l 540 1014 l 729 1014 m 775 706 l 943 706 l 771 0 l 600 0 l 479 385 l 357 0 l 186 0 l 14 706 l 182 706 l 288 172 l 413 706 l 543 706 l 669 172 l 775 706 z "},"ŵ":{"ha":957,"x_min":14,"x_max":943,"o":"m 482 883 l 403 775 l 235 775 l 410 990 l 554 990 l 729 775 l 560 775 l 482 883 m 775 706 l 943 706 l 771 0 l 600 0 l 479 385 l 357 0 l 186 0 l 14 706 l 182 706 l 288 172 l 413 706 l 543 706 l 669 172 l 775 706 z "},"ẅ":{"ha":957,"x_min":14,"x_max":943,"o":"m 417 958 l 417 796 l 264 796 l 264 958 l 417 958 m 694 958 l 694 796 l 540 796 l 540 958 l 694 958 m 775 706 l 943 706 l 771 0 l 600 0 l 479 385 l 357 0 l 186 0 l 14 706 l 182 706 l 288 172 l 413 706 l 543 706 l 669 172 l 775 706 z "},"ẁ":{"ha":957,"x_min":14,"x_max":943,"o":"m 560 775 l 401 775 l 229 1014 l 418 1014 l 560 775 m 775 706 l 943 706 l 771 0 l 600 0 l 479 385 l 357 0 l 186 0 l 14 706 l 182 706 l 288 172 l 413 706 l 543 706 l 669 172 l 775 706 z "},"x":{"ha":696,"x_min":14,"x_max":681,"o":"m 681 706 l 438 356 l 678 0 l 489 0 l 340 219 l 196 0 l 18 0 l 250 356 l 14 706 l 201 706 l 347 489 l 499 706 l 681 706 z "},"y":{"ha":764,"x_min":82,"x_max":678,"o":"m 513 706 l 678 706 l 678 -67 q 638 -215 678 -154 q 533 -308 599 -276 q 375 -339 467 -339 q 270 -326 322 -339 q 177 -284 218 -314 q 110 -208 136 -254 q 82 -101 85 -162 l 247 -101 q 285 -163 251 -140 q 372 -186 319 -186 q 452 -168 418 -186 q 499 -120 486 -150 q 513 -61 513 -90 l 513 32 q 433 -7 478 6 q 344 -19 388 -19 q 151 58 221 -19 q 82 294 82 135 l 82 706 l 247 706 l 247 294 q 281 175 247 215 q 378 135 314 135 q 451 155 418 135 q 497 208 483 175 q 513 274 511 242 l 513 706 z "},"ý":{"ha":764,"x_min":82,"x_max":678,"o":"m 633 1014 l 460 775 l 303 775 l 444 1014 l 633 1014 m 513 706 l 678 706 l 678 -67 q 638 -215 678 -154 q 533 -308 599 -276 q 375 -339 467 -339 q 270 -326 322 -339 q 177 -284 218 -314 q 110 -208 136 -254 q 82 -101 85 -162 l 247 -101 q 285 -163 251 -140 q 372 -186 319 -186 q 452 -168 418 -186 q 499 -120 486 -150 q 513 -61 513 -90 l 513 32 q 433 -7 478 6 q 344 -19 388 -19 q 151 58 221 -19 q 82 294 82 135 l 82 706 l 247 706 l 247 294 q 281 175 247 215 q 378 135 314 135 q 451 155 418 135 q 497 208 483 175 q 513 274 511 242 l 513 706 z "},"ŷ":{"ha":764,"x_min":82,"x_max":678,"o":"m 386 883 l 307 775 l 139 775 l 314 990 l 458 990 l 633 775 l 464 775 l 386 883 m 513 706 l 678 706 l 678 -67 q 638 -215 678 -154 q 533 -308 599 -276 q 375 -339 467 -339 q 270 -326 322 -339 q 177 -284 218 -314 q 110 -208 136 -254 q 82 -101 85 -162 l 247 -101 q 285 -163 251 -140 q 372 -186 319 -186 q 452 -168 418 -186 q 499 -120 486 -150 q 513 -61 513 -90 l 513 32 q 433 -7 478 6 q 344 -19 388 -19 q 151 58 221 -19 q 82 294 82 135 l 82 706 l 247 706 l 247 294 q 281 175 247 215 q 378 135 314 135 q 451 155 418 135 q 497 208 483 175 q 513 274 511 242 l 513 706 z "},"ÿ":{"ha":764,"x_min":82,"x_max":678,"o":"m 321 958 l 321 796 l 168 796 l 168 958 l 321 958 m 599 958 l 599 796 l 444 796 l 444 958 l 599 958 m 513 706 l 678 706 l 678 -67 q 638 -215 678 -154 q 533 -308 599 -276 q 375 -339 467 -339 q 270 -326 322 -339 q 177 -284 218 -314 q 110 -208 136 -254 q 82 -101 85 -162 l 247 -101 q 285 -163 251 -140 q 372 -186 319 -186 q 452 -168 418 -186 q 499 -120 486 -150 q 513 -61 513 -90 l 513 32 q 433 -7 478 6 q 344 -19 388 -19 q 151 58 221 -19 q 82 294 82 135 l 82 706 l 247 706 l 247 294 q 281 175 247 215 q 378 135 314 135 q 451 155 418 135 q 497 208 483 175 q 513 274 511 242 l 513 706 z "},"ỳ":{"ha":764,"x_min":82,"x_max":678,"o":"m 464 775 l 306 775 l 133 1014 l 322 1014 l 464 775 m 513 706 l 678 706 l 678 -67 q 638 -215 678 -154 q 533 -308 599 -276 q 375 -339 467 -339 q 270 -326 322 -339 q 177 -284 218 -314 q 110 -208 136 -254 q 82 -101 85 -162 l 247 -101 q 285 -163 251 -140 q 372 -186 319 -186 q 452 -168 418 -186 q 499 -120 486 -150 q 513 -61 513 -90 l 513 32 q 433 -7 478 6 q 344 -19 388 -19 q 151 58 221 -19 q 82 294 82 135 l 82 706 l 247 706 l 247 294 q 281 175 247 215 q 378 135 314 135 q 451 155 418 135 q 497 208 483 175 q 513 274 511 242 l 513 706 z "},"z":{"ha":663,"x_min":46,"x_max":617,"o":"m 617 706 l 617 581 l 271 153 l 617 153 l 617 0 l 46 0 l 46 125 l 392 553 l 67 553 l 67 706 l 617 706 z "},"ź":{"ha":663,"x_min":46,"x_max":617,"o":"m 582 1014 l 408 775 l 251 775 l 393 1014 l 582 1014 m 617 706 l 617 581 l 271 153 l 617 153 l 617 0 l 46 0 l 46 125 l 392 553 l 67 553 l 67 706 l 617 706 z "},"ž":{"ha":663,"x_min":46,"x_max":617,"o":"m 403 775 l 258 775 l 83 990 l 253 990 l 332 882 l 410 990 l 578 990 l 403 775 m 617 706 l 617 581 l 271 153 l 617 153 l 617 0 l 46 0 l 46 125 l 392 553 l 67 553 l 67 706 l 617 706 z "},"ż":{"ha":663,"x_min":46,"x_max":617,"o":"m 417 972 l 417 796 l 247 796 l 247 972 l 417 972 m 617 706 l 617 581 l 271 153 l 617 153 l 617 0 l 46 0 l 46 125 l 392 553 l 67 553 l 67 706 l 617 706 z "},"ª":{"ha":446,"x_min":49,"x_max":400,"o":"m 331 992 l 400 992 l 400 575 l 331 575 l 314 603 q 263 574 293 585 q 200 564 232 564 q 89 605 129 564 q 49 728 49 646 l 49 839 q 89 962 49 921 q 200 1003 129 1003 q 263 992 232 1003 q 314 964 293 982 l 331 992 m 224 660 q 274 678 254 660 q 296 728 294 696 l 296 838 q 275 888 294 871 q 224 906 256 906 q 153 835 153 906 l 153 732 q 172 678 153 697 q 224 660 190 660 z "},"º":{"ha":443,"x_min":49,"x_max":397,"o":"m 224 564 q 122 590 164 564 q 64 656 79 615 q 49 732 49 696 l 49 835 q 95 957 49 911 q 222 1003 142 1003 q 324 976 282 1003 q 382 910 367 950 q 397 835 397 871 l 397 732 q 351 609 397 654 q 224 564 306 564 m 222 660 q 293 733 293 660 l 293 833 q 224 907 293 907 q 153 833 153 907 l 153 733 q 222 660 153 660 z "},"А":{"ha":879,"x_min":24,"x_max":854,"o":"m 685 0 l 618 211 l 260 211 l 192 0 l 24 0 l 318 983 l 561 983 l 854 0 l 685 0 m 439 804 l 308 369 l 569 369 l 439 804 z "},"Б":{"ha":853,"x_min":86,"x_max":799,"o":"m 486 631 q 714 556 629 631 q 799 354 799 481 l 799 275 q 784 181 799 229 q 733 94 769 133 q 635 27 697 54 q 485 0 574 0 l 86 0 l 86 983 l 733 983 l 733 825 l 257 825 l 257 631 l 486 631 m 628 269 l 628 360 q 593 442 628 413 q 496 471 558 471 l 257 471 l 257 158 l 497 158 q 594 188 560 158 q 628 269 628 217 z "},"В":{"ha":858,"x_min":86,"x_max":800,"o":"m 692 518 q 772 435 743 486 q 800 326 800 383 l 800 261 q 786 174 800 219 q 733 86 772 129 q 635 22 694 43 q 514 0 575 0 l 86 0 l 86 983 l 485 983 q 692 918 611 983 q 772 747 772 853 l 772 679 q 751 590 772 632 q 692 518 731 547 m 489 831 l 257 831 l 257 579 l 488 579 q 570 605 539 579 q 601 678 601 631 l 601 743 q 569 807 601 783 q 489 831 538 831 m 629 256 l 629 326 q 599 400 629 372 q 517 428 568 428 l 257 428 l 257 153 l 515 153 q 599 181 568 153 q 629 256 629 210 z "},"Г":{"ha":742,"x_min":86,"x_max":713,"o":"m 713 983 l 713 825 l 257 825 l 257 0 l 86 0 l 86 983 l 713 983 z "},"Ѓ":{"ha":742,"x_min":86,"x_max":713,"o":"m 650 1258 l 458 1053 l 282 1053 l 442 1258 l 650 1258 m 713 983 l 713 825 l 257 825 l 257 0 l 86 0 l 86 983 l 713 983 z "},"Ґ":{"ha":742,"x_min":86,"x_max":713,"o":"m 542 1118 l 713 1118 l 713 825 l 257 825 l 257 0 l 86 0 l 86 983 l 542 983 l 542 1118 z "},"Д":{"ha":1054,"x_min":29,"x_max":1025,"o":"m 885 158 l 1025 158 l 1025 -187 l 854 -187 l 854 0 l 200 0 l 200 -187 l 29 -187 l 29 158 l 76 158 q 178 203 143 158 q 222 340 213 249 l 288 983 l 885 983 l 885 158 m 343 158 l 714 158 l 714 825 l 443 825 l 394 338 q 379 253 390 300 q 343 158 368 206 z "},"Е":{"ha":758,"x_min":86,"x_max":706,"o":"m 706 825 l 257 825 l 257 560 l 646 560 l 646 401 l 257 401 l 257 158 l 706 158 l 706 0 l 86 0 l 86 983 l 706 983 l 706 825 z "},"Ё":{"ha":758,"x_min":86,"x_max":706,"o":"m 318 1236 l 318 1074 l 165 1074 l 165 1236 l 318 1236 m 596 1236 l 596 1074 l 442 1074 l 442 1236 l 596 1236 m 706 825 l 257 825 l 257 560 l 646 560 l 646 401 l 257 401 l 257 158 l 706 158 l 706 0 l 86 0 l 86 983 l 706 983 l 706 825 z "},"Ж":{"ha":1426,"x_min":29,"x_max":1397,"o":"m 1397 0 l 1183 0 l 799 471 l 799 0 l 628 0 l 628 469 l 243 0 l 29 0 l 432 504 l 42 983 l 257 983 l 628 542 l 628 983 l 799 983 l 799 540 l 1169 983 l 1385 983 l 994 504 l 1397 0 z "},"З":{"ha":868,"x_min":68,"x_max":799,"o":"m 708 510 q 775 427 751 475 q 799 324 799 379 l 799 258 q 701 56 799 131 q 433 -19 603 -19 q 167 59 267 -19 q 68 268 68 138 l 68 315 l 239 315 l 239 263 q 267 190 239 219 q 342 149 296 160 q 433 139 389 139 q 628 254 628 139 l 628 319 q 591 399 628 371 q 486 426 554 426 l 304 426 l 304 579 l 469 579 q 573 606 536 579 q 610 681 610 632 l 610 733 q 563 816 610 788 q 426 844 517 844 q 297 812 343 844 q 251 721 251 779 l 251 668 l 81 668 l 81 715 q 174 924 81 846 q 425 1003 268 1003 q 547 991 485 1003 q 667 944 608 979 q 753 852 725 908 q 781 733 781 796 l 781 676 q 708 510 781 578 z "},"И":{"ha":899,"x_min":86,"x_max":814,"o":"m 653 983 l 814 983 l 814 0 l 653 0 l 653 689 l 246 0 l 86 0 l 86 983 l 246 983 l 246 293 l 653 983 z "},"Й":{"ha":899,"x_min":86,"x_max":814,"o":"m 449 1046 q 294 1101 354 1046 q 235 1244 235 1157 l 339 1244 q 369 1175 339 1201 q 449 1149 400 1149 q 529 1175 499 1149 q 560 1244 560 1201 l 664 1244 q 603 1101 664 1157 q 449 1046 543 1046 m 653 983 l 814 983 l 814 0 l 653 0 l 653 689 l 246 0 l 86 0 l 86 983 l 246 983 l 246 293 l 653 983 z "},"Ҋ":{"ha":978,"x_min":76,"x_max":950,"o":"m 439 1046 q 285 1101 344 1046 q 225 1244 225 1157 l 329 1244 q 360 1175 329 1201 q 439 1149 390 1149 q 519 1175 489 1149 q 550 1244 550 1201 l 654 1244 q 594 1101 654 1157 q 439 1046 533 1046 m 804 158 l 950 158 l 906 -187 l 735 -187 l 758 0 l 643 0 l 643 689 l 236 0 l 76 0 l 76 983 l 236 983 l 236 293 l 643 983 l 804 983 l 804 158 z "},"К":{"ha":885,"x_min":86,"x_max":856,"o":"m 856 0 l 642 0 l 257 469 l 257 0 l 86 0 l 86 983 l 257 983 l 257 542 l 626 983 l 843 983 l 453 504 l 856 0 z "},"Ќ":{"ha":885,"x_min":86,"x_max":856,"o":"m 725 1258 l 533 1053 l 357 1053 l 517 1258 l 725 1258 m 856 0 l 642 0 l 257 469 l 257 0 l 86 0 l 86 983 l 257 983 l 257 542 l 626 983 l 843 983 l 453 504 l 856 0 z "},"Л":{"ha":950,"x_min":31,"x_max":864,"o":"m 864 983 l 864 0 l 693 0 l 693 825 l 424 825 l 372 319 q 289 76 356 153 q 90 0 222 0 l 31 0 l 31 158 l 56 158 q 157 203 122 158 q 201 340 192 247 l 267 983 l 864 983 z "},"М":{"ha":1067,"x_min":86,"x_max":981,"o":"m 981 983 l 981 0 l 825 0 l 825 719 l 594 0 l 472 0 l 242 719 l 242 0 l 86 0 l 86 983 l 299 983 l 533 317 l 768 983 l 981 983 z "},"Н":{"ha":915,"x_min":86,"x_max":829,"o":"m 658 983 l 829 983 l 829 0 l 658 0 l 658 401 l 257 401 l 257 0 l 86 0 l 86 983 l 257 983 l 257 560 l 658 560 l 658 983 z "},"О":{"ha":915,"x_min":68,"x_max":846,"o":"m 458 -19 q 171 65 274 -19 q 68 294 68 150 l 68 688 q 94 817 68 758 q 169 917 119 875 q 292 981 219 958 q 457 1003 365 1003 q 622 981 549 1003 q 744 917 694 958 q 820 817 794 875 q 846 688 846 758 l 846 294 q 744 65 846 150 q 458 -19 642 -19 m 457 139 q 675 304 675 139 l 675 678 q 458 844 675 844 q 293 801 347 844 q 239 678 239 758 l 239 304 q 292 182 239 225 q 457 139 346 139 z "},"П":{"ha":915,"x_min":86,"x_max":829,"o":"m 829 983 l 829 0 l 658 0 l 658 825 l 257 825 l 257 0 l 86 0 l 86 983 l 829 983 z "},"Р":{"ha":853,"x_min":86,"x_max":799,"o":"m 485 983 q 614 964 556 983 q 714 908 672 944 q 777 821 756 872 q 799 708 799 769 l 799 610 q 780 503 799 549 q 729 424 761 458 q 636 362 697 389 q 486 335 575 335 l 257 335 l 257 0 l 86 0 l 86 983 l 485 983 m 628 606 l 628 713 q 594 795 628 765 q 497 825 560 825 l 257 825 l 257 493 l 496 493 q 593 523 558 493 q 628 606 628 553 z "},"С":{"ha":907,"x_min":68,"x_max":839,"o":"m 454 -19 q 171 66 274 -19 q 68 294 68 151 l 68 689 q 94 817 68 758 q 169 917 119 876 q 292 981 219 958 q 453 1003 364 1003 q 615 981 543 1003 q 738 917 688 958 q 813 817 788 876 q 839 689 839 758 l 839 613 l 660 613 l 660 679 q 608 801 660 757 q 454 844 556 844 q 294 801 349 844 q 239 679 239 757 l 239 304 q 293 183 239 226 q 453 139 347 139 q 608 182 556 139 q 660 304 660 225 l 660 372 l 839 372 l 839 294 q 813 166 839 225 q 738 66 788 107 q 615 3 688 25 q 454 -19 543 -19 z "},"Т":{"ha":764,"x_min":13,"x_max":750,"o":"m 750 983 l 750 825 l 467 825 l 467 0 l 297 0 l 297 825 l 13 825 l 13 983 l 750 983 z "},"У":{"ha":850,"x_min":24,"x_max":825,"o":"m 640 983 l 825 983 l 344 0 l 160 0 l 331 351 l 24 983 l 211 983 l 425 539 l 640 983 z "},"Ў":{"ha":850,"x_min":24,"x_max":825,"o":"m 428 1046 q 274 1101 333 1046 q 214 1244 214 1157 l 318 1244 q 349 1175 318 1201 q 428 1149 379 1149 q 508 1175 478 1149 q 539 1244 539 1201 l 643 1244 q 583 1101 643 1157 q 428 1046 522 1046 m 640 983 l 825 983 l 344 0 l 160 0 l 331 351 l 24 983 l 211 983 l 425 539 l 640 983 z "},"Ф":{"ha":1218,"x_min":54,"x_max":1165,"o":"m 851 854 q 981 835 922 854 q 1081 779 1039 815 q 1144 692 1122 743 q 1165 579 1165 640 l 1165 463 q 1081 261 1165 336 q 853 186 997 186 l 694 186 l 694 0 l 524 0 l 524 186 l 367 186 q 138 261 222 186 q 54 463 54 336 l 54 579 q 69 673 54 625 q 119 760 83 721 q 217 827 156 800 q 368 854 279 854 l 524 854 l 524 983 l 694 983 l 694 854 l 851 854 m 357 344 l 524 344 l 524 696 l 356 696 q 259 667 293 696 q 225 585 225 638 l 225 457 q 260 374 225 404 q 357 344 294 344 m 994 457 l 994 585 q 960 667 994 638 q 863 696 925 696 l 694 696 l 694 344 l 863 344 q 960 374 925 344 q 994 457 994 404 z "},"Х":{"ha":867,"x_min":28,"x_max":838,"o":"m 838 983 l 532 488 l 831 0 l 632 0 l 426 338 l 217 0 l 28 0 l 326 500 l 31 983 l 229 983 l 435 649 l 646 983 l 838 983 z "},"Ч":{"ha":857,"x_min":67,"x_max":771,"o":"m 600 983 l 771 983 l 771 0 l 600 0 l 600 356 q 399 304 524 304 q 154 385 242 304 q 67 613 67 465 l 67 983 l 238 983 l 238 632 q 283 506 238 550 q 419 463 329 463 q 504 476 461 463 q 574 529 547 490 q 600 629 600 568 l 600 983 z "},"Ц":{"ha":999,"x_min":86,"x_max":969,"o":"m 829 158 l 969 158 l 969 -187 l 799 -187 l 799 0 l 86 0 l 86 983 l 257 983 l 257 158 l 658 158 l 658 983 l 829 983 l 829 158 z "},"Ш":{"ha":1354,"x_min":86,"x_max":1268,"o":"m 1097 983 l 1268 983 l 1268 0 l 86 0 l 86 983 l 257 983 l 257 158 l 592 158 l 592 983 l 763 983 l 763 158 l 1097 158 l 1097 983 z "},"Щ":{"ha":1464,"x_min":86,"x_max":1435,"o":"m 1268 158 l 1435 158 l 1435 -187 l 1264 -187 l 1264 0 l 86 0 l 86 983 l 257 983 l 257 158 l 592 158 l 592 983 l 763 983 l 763 158 l 1097 158 l 1097 983 l 1268 983 l 1268 158 z "},"Џ":{"ha":915,"x_min":86,"x_max":829,"o":"m 658 983 l 829 983 l 829 0 l 543 0 l 543 -187 l 372 -187 l 372 0 l 86 0 l 86 983 l 257 983 l 257 158 l 658 158 l 658 983 z "},"Ь":{"ha":853,"x_min":86,"x_max":799,"o":"m 486 632 q 593 619 539 632 q 699 570 647 607 q 774 476 750 533 q 799 357 799 418 l 799 275 q 784 181 799 229 q 733 94 769 133 q 635 27 697 54 q 485 0 574 0 l 86 0 l 86 983 l 257 983 l 257 632 l 486 632 m 628 269 l 628 363 q 593 444 628 415 q 496 474 558 474 l 257 474 l 257 158 l 497 158 q 594 188 560 158 q 628 269 628 217 z "},"Ъ":{"ha":986,"x_min":29,"x_max":932,"o":"m 619 632 q 726 619 672 632 q 832 570 781 607 q 908 476 883 533 q 932 357 932 418 l 932 275 q 917 181 932 229 q 867 94 903 133 q 769 27 831 54 q 618 0 707 0 l 219 0 l 219 825 l 29 825 l 29 983 l 390 983 l 390 632 l 619 632 m 761 269 l 761 363 q 726 444 761 415 q 629 474 692 474 l 390 474 l 390 158 l 631 158 q 727 188 693 158 q 761 269 761 217 z "},"Ы":{"ha":1171,"x_min":86,"x_max":1085,"o":"m 486 632 q 593 619 539 632 q 699 570 647 607 q 774 476 750 533 q 799 357 799 418 l 799 275 q 784 181 799 229 q 733 94 769 133 q 635 27 697 54 q 485 0 574 0 l 86 0 l 86 983 l 257 983 l 257 632 l 486 632 m 914 983 l 1085 983 l 1085 0 l 914 0 l 914 983 m 628 269 l 628 363 q 593 444 628 415 q 496 474 558 474 l 257 474 l 257 158 l 497 158 q 594 188 560 158 q 628 269 628 217 z "},"Љ":{"ha":1460,"x_min":31,"x_max":1406,"o":"m 1093 632 q 1200 619 1146 632 q 1306 570 1254 607 q 1381 476 1357 533 q 1406 357 1406 418 l 1406 275 q 1321 75 1406 150 q 1093 0 1236 0 l 693 0 l 693 825 l 422 825 l 374 338 q 274 89 358 178 q 47 0 189 0 l 31 0 l 31 158 l 56 158 q 158 203 124 158 q 201 340 192 249 l 267 983 l 864 983 l 864 632 l 1093 632 m 1235 269 l 1235 363 q 1201 444 1235 415 q 1103 474 1167 474 l 864 474 l 864 158 l 1104 158 q 1201 188 1167 158 q 1235 269 1235 217 z "},"Њ":{"ha":1425,"x_min":86,"x_max":1371,"o":"m 1058 632 q 1165 619 1111 632 q 1271 570 1219 607 q 1347 476 1322 533 q 1371 357 1371 418 l 1371 275 q 1356 181 1371 229 q 1306 94 1342 133 q 1208 27 1269 54 q 1057 0 1146 0 l 658 0 l 658 401 l 257 401 l 257 0 l 86 0 l 86 983 l 257 983 l 257 560 l 658 560 l 658 983 l 829 983 l 829 632 l 1058 632 m 1200 269 l 1200 363 q 1165 444 1200 415 q 1068 474 1131 474 l 829 474 l 829 158 l 1069 158 q 1166 188 1132 158 q 1200 269 1200 217 z "},"Ѕ":{"ha":861,"x_min":56,"x_max":806,"o":"m 436 -19 q 158 67 260 -19 q 56 293 56 154 l 56 329 l 226 329 l 226 283 q 289 177 226 217 q 440 138 351 138 q 577 174 521 138 q 633 275 633 210 q 610 340 633 313 q 544 388 588 368 q 403 434 501 407 q 251 483 304 461 q 161 535 199 506 q 101 611 124 565 q 78 719 78 657 q 122 873 78 810 q 242 969 165 936 q 428 1003 318 1003 q 583 981 515 1003 q 697 921 651 960 q 764 828 742 882 q 786 711 786 775 l 786 667 l 615 667 l 615 715 q 598 772 615 742 q 533 824 581 803 q 425 844 486 844 q 347 834 389 844 q 277 794 306 824 q 249 724 249 764 q 264 678 249 700 q 315 638 279 656 q 447 593 351 621 q 597 545 542 565 q 697 493 651 525 q 766 424 742 461 q 798 350 790 386 q 806 283 806 314 q 781 164 806 219 q 710 67 757 108 q 594 3 664 26 q 436 -19 524 -19 z "},"Є":{"ha":907,"x_min":68,"x_max":839,"o":"m 839 613 l 660 613 l 660 679 q 608 801 660 757 q 454 844 556 844 q 294 801 349 844 q 239 679 239 757 l 239 579 l 528 579 l 528 419 l 239 419 l 239 304 q 293 183 239 226 q 453 139 347 139 q 608 182 556 139 q 660 304 660 225 l 660 372 l 839 372 l 839 294 q 813 166 839 225 q 738 66 788 107 q 615 3 688 25 q 454 -19 543 -19 q 171 66 274 -19 q 68 294 68 151 l 68 689 q 94 817 68 758 q 169 917 119 876 q 292 981 219 958 q 453 1003 364 1003 q 615 981 543 1003 q 738 917 688 958 q 813 817 788 876 q 839 689 839 758 l 839 613 z "},"Э":{"ha":907,"x_min":68,"x_max":839,"o":"m 454 1003 q 615 981 543 1003 q 738 917 688 958 q 813 817 788 876 q 839 689 839 758 l 839 294 q 736 66 839 151 q 453 -19 633 -19 q 292 3 364 -19 q 169 66 219 25 q 94 166 119 107 q 68 294 68 225 l 68 372 l 247 372 l 247 304 q 299 182 247 225 q 454 139 351 139 q 614 183 560 139 q 668 304 668 226 l 668 419 l 379 419 l 379 579 l 668 579 l 668 679 q 613 801 668 757 q 453 844 558 844 q 299 801 351 844 q 247 679 247 757 l 247 613 l 68 613 l 68 689 q 94 817 68 758 q 169 917 119 876 q 292 981 219 958 q 454 1003 364 1003 z "},"І":{"ha":343,"x_min":86,"x_max":257,"o":"m 86 0 l 86 983 l 257 983 l 257 0 l 86 0 z "},"Ї":{"ha":343,"x_min":-43,"x_max":388,"o":"m -43 1074 l -43 1236 l 110 1236 l 110 1074 l -43 1074 m 233 1074 l 233 1236 l 388 1236 l 388 1074 l 233 1074 m 86 0 l 86 983 l 257 983 l 257 0 l 86 0 z "},"Ј":{"ha":519,"x_min":24,"x_max":435,"o":"m 24 0 l 24 158 l 108 158 q 162 166 138 158 q 207 190 186 174 q 246 243 228 206 q 264 340 264 281 l 264 983 l 435 983 l 435 338 q 412 203 435 265 q 345 95 389 140 q 238 25 301 50 q 99 0 175 0 l 24 0 z "},"Ћ":{"ha":990,"x_min":29,"x_max":924,"o":"m 640 679 q 850 607 776 679 q 924 400 924 535 l 924 0 l 753 0 l 753 385 q 717 485 753 450 q 615 519 682 519 l 535 519 q 428 485 465 519 q 390 385 390 450 l 390 0 l 219 0 l 219 825 l 29 825 l 29 983 l 660 983 l 660 825 l 390 825 l 390 635 q 467 667 422 656 q 561 679 513 679 l 640 679 z "},"Ю":{"ha":1335,"x_min":86,"x_max":1267,"o":"m 878 1003 q 1042 981 969 1003 q 1165 917 1115 958 q 1241 817 1215 875 q 1267 688 1267 758 l 1267 294 q 1165 65 1267 150 q 879 -19 1063 -19 q 592 65 694 -19 q 489 294 489 150 l 489 401 l 257 401 l 257 0 l 86 0 l 86 983 l 257 983 l 257 560 l 489 560 l 489 688 q 515 817 489 758 q 590 917 540 875 q 713 981 640 958 q 878 1003 786 1003 m 1096 304 l 1096 678 q 879 844 1096 844 q 660 678 660 844 l 660 304 q 713 182 660 225 q 878 139 767 139 q 1042 182 989 139 q 1096 304 1096 225 z "},"Я":{"ha":861,"x_min":50,"x_max":775,"o":"m 775 983 l 775 0 l 604 0 l 604 379 l 388 379 l 228 0 l 50 0 l 217 408 q 103 504 144 440 q 63 653 63 568 l 63 710 q 147 909 63 835 q 376 983 232 983 l 775 983 m 365 538 l 604 538 l 604 825 l 365 825 q 267 797 301 825 q 233 715 233 768 l 233 647 q 268 566 233 594 q 365 538 303 538 z "},"Ђ":{"ha":990,"x_min":29,"x_max":924,"o":"m 594 679 q 836 595 749 679 q 924 365 924 511 l 924 300 q 899 178 924 235 q 829 83 875 122 q 719 22 783 43 q 581 0 656 0 l 493 0 l 493 158 l 588 158 q 662 172 622 158 q 727 220 701 185 q 753 304 753 256 l 753 361 q 708 481 753 440 q 575 521 664 521 q 438 478 485 521 q 390 354 390 435 l 390 0 l 219 0 l 219 825 l 29 825 l 29 983 l 660 983 l 660 825 l 390 825 l 390 626 q 594 679 468 679 z "},"Ѣ":{"ha":978,"x_min":21,"x_max":924,"o":"m 611 632 q 718 619 664 632 q 824 570 772 607 q 899 476 875 533 q 924 357 924 418 l 924 275 q 909 181 924 229 q 858 94 894 133 q 760 27 822 54 q 610 0 699 0 l 211 0 l 211 728 l 21 728 l 21 886 l 211 886 l 211 983 l 382 983 l 382 886 l 650 886 l 650 728 l 382 728 l 382 632 l 611 632 m 753 269 l 753 363 q 718 444 753 415 q 621 474 683 474 l 382 474 l 382 158 l 621 158 q 719 188 685 158 q 753 269 753 217 z "},"Ѳ":{"ha":915,"x_min":68,"x_max":846,"o":"m 457 1003 q 622 981 549 1003 q 744 917 694 958 q 820 817 794 875 q 846 688 846 758 l 846 294 q 744 65 846 150 q 458 -19 642 -19 q 171 65 274 -19 q 68 294 68 150 l 68 688 q 94 817 68 758 q 169 917 119 875 q 292 981 219 958 q 457 1003 365 1003 m 458 844 q 293 801 347 844 q 239 678 239 758 l 239 597 q 318 610 279 610 q 457 579 375 610 q 596 549 542 549 q 675 561 636 549 l 675 678 q 458 844 675 844 m 457 139 q 675 304 675 139 l 675 403 q 596 390 636 390 q 457 421 539 390 q 319 451 378 451 q 239 439 281 451 l 239 304 q 292 182 239 225 q 457 139 346 139 z "},"Ѵ":{"ha":932,"x_min":24,"x_max":903,"o":"m 856 983 l 903 983 l 903 825 l 886 825 q 798 792 829 825 q 740 669 767 758 l 549 0 l 303 0 l 24 983 l 199 983 l 426 211 l 572 693 q 681 919 618 854 q 856 983 744 983 z "},"Ғ":{"ha":875,"x_min":29,"x_max":846,"o":"m 846 825 l 390 825 l 390 564 l 660 564 l 660 406 l 390 406 l 390 0 l 219 0 l 219 406 l 29 406 l 29 564 l 219 564 l 219 983 l 846 983 l 846 825 z "},"Ҕ":{"ha":853,"x_min":86,"x_max":799,"o":"m 486 631 q 714 556 629 631 q 799 354 799 481 l 799 58 q 784 -35 799 13 q 733 -123 769 -83 q 635 -190 697 -162 q 485 -217 574 -217 l 318 -217 l 318 -58 l 497 -58 q 594 -28 560 -58 q 628 54 628 1 l 628 360 q 593 442 628 413 q 496 471 558 471 l 257 471 l 257 0 l 86 0 l 86 983 l 733 983 l 733 825 l 257 825 l 257 631 l 486 631 z "},"Җ":{"ha":1457,"x_min":29,"x_max":1428,"o":"m 1271 158 l 1428 158 l 1428 -187 l 1257 -187 l 1257 0 l 1183 0 l 799 471 l 799 0 l 628 0 l 628 469 l 243 0 l 29 0 l 432 504 l 42 983 l 257 983 l 628 542 l 628 983 l 799 983 l 799 540 l 1169 983 l 1385 983 l 994 504 l 1271 158 z "},"Ҙ":{"ha":868,"x_min":68,"x_max":799,"o":"m 708 510 q 775 427 751 475 q 799 324 799 379 l 799 258 q 720 72 799 144 q 503 -15 642 -1 l 526 -221 l 343 -221 l 367 -15 q 210 31 282 -7 q 103 132 139 68 q 68 268 68 196 l 68 315 l 239 315 l 239 263 q 267 190 239 219 q 342 149 296 160 q 433 139 389 139 q 628 254 628 139 l 628 319 q 591 399 628 371 q 486 426 554 426 l 304 426 l 304 579 l 469 579 q 573 606 536 579 q 610 681 610 632 l 610 733 q 563 816 610 788 q 426 844 517 844 q 297 812 343 844 q 251 721 251 779 l 251 668 l 81 668 l 81 715 q 174 924 81 846 q 425 1003 268 1003 q 547 991 485 1003 q 667 944 608 979 q 753 852 725 908 q 781 733 781 796 l 781 676 q 708 510 781 578 z "},"Қ":{"ha":914,"x_min":86,"x_max":885,"o":"m 729 158 l 885 158 l 885 -187 l 714 -187 l 714 0 l 642 0 l 257 469 l 257 0 l 86 0 l 86 983 l 257 983 l 257 542 l 626 983 l 843 983 l 453 504 l 729 158 z "},"Ҝ":{"ha":904,"x_min":86,"x_max":874,"o":"m 692 0 l 501 428 l 454 428 l 454 219 l 321 219 l 321 428 l 257 428 l 257 0 l 86 0 l 86 983 l 257 983 l 257 586 l 321 586 l 321 794 l 454 794 l 454 586 l 504 586 l 681 983 l 863 983 l 656 501 l 874 0 l 692 0 z "},"Ҟ":{"ha":922,"x_min":29,"x_max":893,"o":"m 893 0 l 679 0 l 294 469 l 294 0 l 124 0 l 124 728 l 29 728 l 29 886 l 124 886 l 124 983 l 294 983 l 294 886 l 413 886 l 413 728 l 294 728 l 294 542 l 664 983 l 881 983 l 490 504 l 893 0 z "},"Ҡ":{"ha":1018,"x_min":29,"x_max":989,"o":"m 989 0 l 775 0 l 390 471 l 390 0 l 219 0 l 219 825 l 29 825 l 29 983 l 390 983 l 390 540 l 761 983 l 976 983 l 586 504 l 989 0 z "},"Ң":{"ha":999,"x_min":86,"x_max":969,"o":"m 829 158 l 969 158 l 969 -187 l 799 -187 l 799 0 l 658 0 l 658 401 l 257 401 l 257 0 l 86 0 l 86 983 l 257 983 l 257 560 l 658 560 l 658 983 l 829 983 l 829 158 z "},"Ҥ":{"ha":1314,"x_min":86,"x_max":1285,"o":"m 1285 983 l 1285 825 l 829 825 l 829 0 l 658 0 l 658 401 l 257 401 l 257 0 l 86 0 l 86 983 l 257 983 l 257 560 l 658 560 l 658 983 l 1285 983 z "},"Ҧ":{"ha":1425,"x_min":86,"x_max":1371,"o":"m 1058 631 q 1286 556 1201 631 q 1371 354 1371 481 l 1371 58 q 1356 -35 1371 13 q 1306 -123 1342 -83 q 1208 -190 1269 -162 q 1057 -217 1146 -217 l 890 -217 l 890 -58 l 1069 -58 q 1166 -28 1132 -58 q 1200 54 1200 1 l 1200 360 q 1165 442 1200 413 q 1068 471 1131 471 l 829 471 l 829 0 l 658 0 l 658 825 l 257 825 l 257 0 l 86 0 l 86 983 l 829 983 l 829 631 l 1058 631 z "},"Ԥ":{"ha":999,"x_min":86,"x_max":969,"o":"m 829 158 l 969 158 l 969 -187 l 799 -187 l 799 0 l 658 0 l 658 825 l 257 825 l 257 0 l 86 0 l 86 983 l 829 983 l 829 158 z "},"Ҩ":{"ha":972,"x_min":68,"x_max":904,"o":"m 904 313 q 817 85 904 171 q 565 -15 731 0 q 642 -58 585 -58 l 825 -58 l 825 -217 l 639 -217 q 473 -163 539 -217 q 386 -12 407 -110 q 149 92 231 7 q 68 314 68 176 l 68 649 q 176 896 68 808 q 486 983 283 983 l 678 983 l 678 825 l 486 825 q 299 778 358 825 q 239 638 239 731 l 239 325 q 376 150 239 183 l 376 471 q 447 666 376 594 q 640 738 517 738 q 833 669 761 738 q 904 485 904 601 l 904 313 m 733 325 l 733 461 q 711 551 733 524 q 640 579 689 579 q 569 551 592 579 q 547 461 547 524 l 547 142 q 733 325 733 161 z "},"Ҫ":{"ha":907,"x_min":68,"x_max":839,"o":"m 839 613 l 660 613 l 660 679 q 608 801 660 757 q 454 844 556 844 q 294 801 349 844 q 239 679 239 757 l 239 304 q 293 183 239 226 q 453 139 347 139 q 608 182 556 139 q 660 304 660 225 l 660 372 l 839 372 l 839 294 q 755 82 839 165 q 521 -17 671 -1 l 544 -221 l 361 -221 l 385 -15 q 251 17 311 -8 q 151 83 192 43 q 90 178 111 124 q 68 294 68 232 l 68 689 q 94 817 68 758 q 169 917 119 876 q 292 981 219 958 q 453 1003 364 1003 q 615 981 543 1003 q 738 917 688 958 q 813 817 788 876 q 839 689 839 758 l 839 613 z "},"Ҭ":{"ha":764,"x_min":13,"x_max":750,"o":"m 750 825 l 467 825 l 467 158 l 608 158 l 608 -187 l 438 -187 l 438 0 l 297 0 l 297 825 l 13 825 l 13 983 l 750 983 l 750 825 z "},"Ү":{"ha":839,"x_min":24,"x_max":814,"o":"m 814 983 l 504 344 l 504 0 l 333 0 l 333 347 l 24 983 l 211 983 l 421 546 l 629 983 l 814 983 z "},"Ұ":{"ha":838,"x_min":21,"x_max":811,"o":"m 501 344 l 501 294 l 718 294 l 718 136 l 501 136 l 501 0 l 331 0 l 331 136 l 119 136 l 119 294 l 331 294 l 331 347 l 21 983 l 208 983 l 418 546 l 626 983 l 811 983 l 501 344 z "},"Ҳ":{"ha":892,"x_min":28,"x_max":861,"o":"m 733 158 l 861 158 l 861 -187 l 690 -187 l 690 0 l 632 0 l 426 338 l 217 0 l 28 0 l 326 500 l 31 983 l 229 983 l 435 649 l 646 983 l 838 983 l 532 488 l 733 158 z "},"Ҵ":{"ha":1132,"x_min":29,"x_max":1103,"o":"m 963 158 l 1103 158 l 1103 -187 l 932 -187 l 932 0 l 219 0 l 219 825 l 29 825 l 29 983 l 636 983 l 636 825 l 390 825 l 390 158 l 792 158 l 792 983 l 963 983 l 963 158 z "},"Ҷ":{"ha":940,"x_min":67,"x_max":911,"o":"m 771 158 l 911 158 l 911 -187 l 740 -187 l 740 0 l 600 0 l 600 356 q 399 304 524 304 q 154 385 242 304 q 67 613 67 465 l 67 983 l 238 983 l 238 632 q 283 506 238 550 q 419 463 329 463 q 504 476 461 463 q 574 529 547 490 q 600 629 600 568 l 600 983 l 771 983 l 771 158 z "},"Ҹ":{"ha":857,"x_min":67,"x_max":771,"o":"m 600 983 l 771 983 l 771 0 l 600 0 l 600 356 q 482 311 553 324 l 482 97 l 354 97 l 354 306 q 142 396 217 317 q 67 613 67 475 l 67 983 l 238 983 l 238 632 q 267 525 238 567 q 354 469 297 483 l 354 671 l 482 671 l 482 469 q 569 524 539 483 q 600 629 600 565 l 600 983 z "},"Һ":{"ha":857,"x_min":86,"x_max":790,"o":"m 457 661 q 702 581 614 661 q 790 353 790 500 l 790 0 l 619 0 l 619 333 q 573 458 619 415 q 438 501 526 501 q 303 460 349 501 q 257 336 257 418 l 257 0 l 86 0 l 86 983 l 257 983 l 257 610 q 457 661 333 661 z "},"Ԧ":{"ha":921,"x_min":88,"x_max":892,"o":"m 892 153 l 892 -187 l 726 -187 l 726 0 l 621 0 l 621 333 q 574 458 621 415 q 439 501 528 501 q 304 460 350 501 q 258 336 258 418 l 258 0 l 88 0 l 88 983 l 258 983 l 258 610 q 458 661 335 661 q 703 581 615 661 q 792 353 792 500 l 792 153 l 892 153 z "},"Ҽ":{"ha":1135,"x_min":24,"x_max":1065,"o":"m 682 1003 q 963 917 861 1003 q 1065 689 1065 832 l 1065 454 l 467 454 l 467 304 q 522 183 467 226 q 682 139 576 139 q 835 183 783 139 q 888 304 888 226 l 888 357 l 1065 357 l 1065 294 q 963 65 1065 150 q 681 -19 861 -19 q 398 65 500 -19 q 296 294 296 150 l 296 458 q 99 567 174 478 q 24 793 24 656 l 24 851 l 179 851 l 179 765 q 210 669 179 706 q 296 621 242 632 l 296 689 q 399 917 296 832 q 682 1003 501 1003 m 467 614 l 888 614 l 888 679 q 835 800 888 757 q 681 843 783 843 q 521 800 575 843 q 467 679 467 757 l 467 614 z "},"Ҿ":{"ha":1135,"x_min":24,"x_max":1065,"o":"m 682 1003 q 963 917 861 1003 q 1065 689 1065 832 l 1065 454 l 467 454 l 467 304 q 522 183 467 226 q 682 139 576 139 q 835 183 783 139 q 888 304 888 226 l 888 357 l 1065 357 l 1065 294 q 979 80 1065 163 q 739 -17 893 -3 l 763 -221 l 579 -221 l 603 -15 q 376 85 457 3 q 296 294 296 167 l 296 458 q 99 567 174 478 q 24 793 24 656 l 24 851 l 179 851 l 179 765 q 210 669 179 706 q 296 621 242 632 l 296 689 q 399 917 296 832 q 682 1003 501 1003 m 467 614 l 888 614 l 888 679 q 835 800 888 757 q 681 843 783 843 q 521 800 575 843 q 467 679 467 757 l 467 614 z "},"Ӏ":{"ha":343,"x_min":86,"x_max":257,"o":"m 86 0 l 86 983 l 257 983 l 257 0 l 86 0 z "},"Ӂ":{"ha":1426,"x_min":29,"x_max":1397,"o":"m 713 1046 q 558 1101 618 1046 q 499 1244 499 1157 l 603 1244 q 633 1175 603 1201 q 713 1149 664 1149 q 793 1175 763 1149 q 824 1244 824 1201 l 928 1244 q 867 1101 928 1157 q 713 1046 807 1046 m 1397 0 l 1183 0 l 799 471 l 799 0 l 628 0 l 628 469 l 243 0 l 29 0 l 432 504 l 42 983 l 257 983 l 628 542 l 628 983 l 799 983 l 799 540 l 1169 983 l 1385 983 l 994 504 l 1397 0 z "},"Ӄ":{"ha":914,"x_min":86,"x_max":861,"o":"m 547 540 q 676 521 618 540 q 776 465 735 501 q 840 378 818 429 q 861 265 861 326 l 861 58 q 847 -35 861 13 q 796 -123 832 -83 q 698 -190 760 -162 q 547 -217 636 -217 l 318 -217 l 318 -58 l 558 -58 q 656 -28 621 -58 q 690 54 690 1 l 690 271 q 656 353 690 324 q 557 382 621 382 l 257 382 l 257 0 l 86 0 l 86 983 l 257 983 l 257 542 l 626 983 l 843 983 l 492 540 l 547 540 z "},"Ӆ":{"ha":1031,"x_min":28,"x_max":1001,"o":"m 861 158 l 1001 158 l 957 -187 l 786 -187 l 810 0 l 690 0 l 690 825 l 421 825 l 369 319 q 286 76 353 153 q 88 0 219 0 l 28 0 l 28 158 l 53 158 q 154 203 119 158 q 199 340 189 247 l 264 983 l 861 983 l 861 158 z "},"Ӈ":{"ha":915,"x_min":86,"x_max":829,"o":"m 658 983 l 829 983 l 829 18 q 806 -117 829 -54 q 740 -224 783 -179 q 633 -294 696 -269 q 493 -319 569 -319 l 418 -319 l 418 -161 l 503 -161 q 556 -153 532 -161 q 601 -130 581 -146 q 640 -76 622 -114 q 658 21 658 -39 l 658 401 l 257 401 l 257 0 l 86 0 l 86 983 l 257 983 l 257 560 l 658 560 l 658 983 z "},"Ӊ":{"ha":996,"x_min":86,"x_max":967,"o":"m 829 158 l 967 158 l 924 -187 l 753 -187 l 776 0 l 658 0 l 658 401 l 257 401 l 257 0 l 86 0 l 86 983 l 257 983 l 257 560 l 658 560 l 658 983 l 829 983 l 829 158 z "},"Ӌ":{"ha":857,"x_min":67,"x_max":771,"o":"m 600 983 l 771 983 l 771 0 l 631 0 l 631 -187 l 460 -187 l 460 158 l 600 158 l 600 356 q 399 304 524 304 q 154 385 242 304 q 67 613 67 465 l 67 983 l 238 983 l 238 632 q 283 506 238 550 q 419 463 329 463 q 504 476 461 463 q 574 529 547 490 q 600 629 600 568 l 600 983 z "},"Ӎ":{"ha":1140,"x_min":86,"x_max":1111,"o":"m 972 158 l 1111 158 l 1067 -187 l 896 -187 l 919 0 l 817 0 l 817 714 l 592 0 l 467 0 l 242 714 l 242 0 l 86 0 l 86 983 l 299 983 l 529 319 l 760 983 l 972 983 l 972 158 z "},"Ӑ":{"ha":879,"x_min":24,"x_max":854,"o":"m 439 1046 q 285 1101 344 1046 q 225 1244 225 1157 l 329 1244 q 360 1175 329 1201 q 439 1149 390 1149 q 519 1175 489 1149 q 550 1244 550 1201 l 654 1244 q 594 1101 654 1157 q 439 1046 533 1046 m 685 0 l 618 211 l 260 211 l 192 0 l 24 0 l 318 983 l 561 983 l 854 0 l 685 0 m 439 804 l 308 369 l 569 369 l 439 804 z "},"Ӓ":{"ha":879,"x_min":24,"x_max":854,"o":"m 378 1236 l 378 1074 l 225 1074 l 225 1236 l 378 1236 m 656 1236 l 656 1074 l 501 1074 l 501 1236 l 656 1236 m 685 0 l 618 211 l 260 211 l 192 0 l 24 0 l 318 983 l 561 983 l 854 0 l 685 0 m 439 804 l 308 369 l 569 369 l 439 804 z "},"Ӕ":{"ha":1335,"x_min":24,"x_max":1282,"o":"m 1282 825 l 833 825 l 833 560 l 1222 560 l 1222 401 l 833 401 l 833 158 l 1282 158 l 1282 0 l 663 0 l 663 256 l 299 256 l 197 0 l 24 0 l 415 983 l 1282 983 l 1282 825 m 663 414 l 663 825 l 526 825 l 363 414 l 663 414 z "},"Ӗ":{"ha":758,"x_min":86,"x_max":706,"o":"m 379 1046 q 225 1101 285 1046 q 165 1244 165 1157 l 269 1244 q 300 1175 269 1201 q 379 1149 331 1149 q 460 1175 429 1149 q 490 1244 490 1201 l 594 1244 q 534 1101 594 1157 q 379 1046 474 1046 m 706 825 l 257 825 l 257 560 l 646 560 l 646 401 l 257 401 l 257 158 l 706 158 l 706 0 l 86 0 l 86 983 l 706 983 l 706 825 z "},"Ә":{"ha":907,"x_min":68,"x_max":839,"o":"m 454 1003 q 615 981 543 1003 q 738 917 688 958 q 813 817 788 876 q 839 689 839 758 l 839 294 q 736 66 839 151 q 453 -19 633 -19 q 292 3 364 -19 q 169 66 219 25 q 94 166 119 107 q 68 294 68 225 l 68 528 l 668 528 l 668 679 q 613 801 668 757 q 453 844 558 844 q 299 801 351 844 q 247 679 247 757 l 247 626 l 68 626 l 68 689 q 94 817 68 758 q 169 917 119 876 q 292 981 219 958 q 454 1003 364 1003 m 454 139 q 614 183 560 139 q 668 304 668 226 l 668 369 l 247 369 l 247 304 q 299 182 247 225 q 454 139 351 139 z "},"Ӛ":{"ha":907,"x_min":68,"x_max":839,"o":"m 392 1236 l 392 1074 l 239 1074 l 239 1236 l 392 1236 m 669 1236 l 669 1074 l 515 1074 l 515 1236 l 669 1236 m 454 1003 q 615 981 543 1003 q 738 917 688 958 q 813 817 788 876 q 839 689 839 758 l 839 294 q 736 66 839 151 q 453 -19 633 -19 q 292 3 364 -19 q 169 66 219 25 q 94 166 119 107 q 68 294 68 225 l 68 528 l 668 528 l 668 679 q 613 801 668 757 q 453 844 558 844 q 299 801 351 844 q 247 679 247 757 l 247 626 l 68 626 l 68 689 q 94 817 68 758 q 169 917 119 876 q 292 981 219 958 q 454 1003 364 1003 m 454 139 q 614 183 560 139 q 668 304 668 226 l 668 369 l 247 369 l 247 304 q 299 182 247 225 q 454 139 351 139 z "},"Ӝ":{"ha":1426,"x_min":29,"x_max":1397,"o":"m 651 1236 l 651 1074 l 499 1074 l 499 1236 l 651 1236 m 929 1236 l 929 1074 l 775 1074 l 775 1236 l 929 1236 m 1397 0 l 1183 0 l 799 471 l 799 0 l 628 0 l 628 469 l 243 0 l 29 0 l 432 504 l 42 983 l 257 983 l 628 542 l 628 983 l 799 983 l 799 540 l 1169 983 l 1385 983 l 994 504 l 1397 0 z "},"Ӟ":{"ha":868,"x_min":68,"x_max":799,"o":"m 372 1236 l 372 1074 l 219 1074 l 219 1236 l 372 1236 m 650 1236 l 650 1074 l 496 1074 l 496 1236 l 650 1236 m 708 510 q 775 427 751 475 q 799 324 799 379 l 799 258 q 701 56 799 131 q 433 -19 603 -19 q 167 59 267 -19 q 68 268 68 138 l 68 315 l 239 315 l 239 263 q 267 190 239 219 q 342 149 296 160 q 433 139 389 139 q 628 254 628 139 l 628 319 q 591 399 628 371 q 486 426 554 426 l 304 426 l 304 579 l 469 579 q 573 606 536 579 q 610 681 610 632 l 610 733 q 563 816 610 788 q 426 844 517 844 q 297 812 343 844 q 251 721 251 779 l 251 668 l 81 668 l 81 715 q 174 924 81 846 q 425 1003 268 1003 q 547 991 485 1003 q 667 944 608 979 q 753 852 725 908 q 781 733 781 796 l 781 676 q 708 510 781 578 z "},"Ӡ":{"ha":868,"x_min":68,"x_max":799,"o":"m 507 606 q 720 534 642 606 q 799 346 799 463 l 799 258 q 701 56 799 131 q 433 -19 603 -19 q 167 59 267 -19 q 68 268 68 138 l 68 315 l 239 315 l 239 263 q 267 190 239 219 q 342 149 296 160 q 433 139 389 139 q 628 254 628 139 l 628 343 q 588 424 628 396 q 474 453 547 453 l 243 453 l 243 606 l 521 825 l 117 825 l 117 983 l 763 983 l 763 825 l 489 606 l 507 606 z "},"Ӣ":{"ha":899,"x_min":86,"x_max":814,"o":"m 685 1233 l 685 1094 l 215 1094 l 215 1233 l 685 1233 m 653 983 l 814 983 l 814 0 l 653 0 l 653 689 l 246 0 l 86 0 l 86 983 l 246 983 l 246 293 l 653 983 z "},"Ӥ":{"ha":899,"x_min":86,"x_max":814,"o":"m 388 1236 l 388 1074 l 235 1074 l 235 1236 l 388 1236 m 665 1236 l 665 1074 l 511 1074 l 511 1236 l 665 1236 m 653 983 l 814 983 l 814 0 l 653 0 l 653 689 l 246 0 l 86 0 l 86 983 l 246 983 l 246 293 l 653 983 z "},"Ӧ":{"ha":915,"x_min":68,"x_max":846,"o":"m 242 1074 l 242 1236 l 394 1236 l 394 1074 l 242 1074 m 518 1074 l 518 1236 l 672 1236 l 672 1074 l 518 1074 m 458 -19 q 171 65 274 -19 q 68 294 68 150 l 68 688 q 94 817 68 758 q 169 917 119 875 q 292 981 219 958 q 457 1003 365 1003 q 622 981 549 1003 q 744 917 694 958 q 820 817 794 875 q 846 688 846 758 l 846 294 q 744 65 846 150 q 458 -19 642 -19 m 457 139 q 675 304 675 139 l 675 678 q 458 844 675 844 q 293 801 347 844 q 239 678 239 758 l 239 304 q 292 182 239 225 q 457 139 346 139 z "},"Ө":{"ha":915,"x_min":68,"x_max":846,"o":"m 457 1003 q 622 981 549 1003 q 744 917 694 958 q 820 817 794 875 q 846 688 846 758 l 846 294 q 744 65 846 150 q 458 -19 642 -19 q 171 65 274 -19 q 68 294 68 150 l 68 688 q 94 817 68 758 q 169 917 119 875 q 292 981 219 958 q 457 1003 365 1003 m 458 844 q 293 801 347 844 q 239 678 239 758 l 239 588 l 675 588 l 675 678 q 458 844 675 844 m 457 139 q 675 304 675 139 l 675 429 l 239 429 l 239 304 q 292 182 239 225 q 457 139 346 139 z "},"Ӫ":{"ha":915,"x_min":68,"x_max":846,"o":"m 394 1236 l 394 1074 l 242 1074 l 242 1236 l 394 1236 m 672 1236 l 672 1074 l 518 1074 l 518 1236 l 672 1236 m 457 1003 q 622 981 549 1003 q 744 917 694 958 q 820 817 794 875 q 846 688 846 758 l 846 294 q 744 65 846 150 q 458 -19 642 -19 q 171 65 274 -19 q 68 294 68 150 l 68 688 q 94 817 68 758 q 169 917 119 875 q 292 981 219 958 q 457 1003 365 1003 m 458 844 q 293 801 347 844 q 239 678 239 758 l 239 588 l 675 588 l 675 678 q 458 844 675 844 m 457 139 q 675 304 675 139 l 675 429 l 239 429 l 239 304 q 292 182 239 225 q 457 139 346 139 z "},"Ӭ":{"ha":907,"x_min":68,"x_max":839,"o":"m 392 1236 l 392 1074 l 239 1074 l 239 1236 l 392 1236 m 669 1236 l 669 1074 l 515 1074 l 515 1236 l 669 1236 m 454 1003 q 615 981 543 1003 q 738 917 688 958 q 813 817 788 876 q 839 689 839 758 l 839 294 q 736 66 839 151 q 453 -19 633 -19 q 292 3 364 -19 q 169 66 219 25 q 94 166 119 107 q 68 294 68 225 l 68 372 l 247 372 l 247 304 q 299 182 247 225 q 454 139 351 139 q 614 183 560 139 q 668 304 668 226 l 668 419 l 379 419 l 379 579 l 668 579 l 668 679 q 613 801 668 757 q 453 844 558 844 q 299 801 351 844 q 247 679 247 757 l 247 613 l 68 613 l 68 689 q 94 817 68 758 q 169 917 119 876 q 292 981 219 958 q 454 1003 364 1003 z "},"Ӯ":{"ha":850,"x_min":24,"x_max":825,"o":"m 664 1233 l 664 1094 l 194 1094 l 194 1233 l 664 1233 m 640 983 l 825 983 l 344 0 l 160 0 l 331 351 l 24 983 l 211 983 l 425 539 l 640 983 z "},"Ӱ":{"ha":850,"x_min":24,"x_max":825,"o":"m 367 1236 l 367 1074 l 214 1074 l 214 1236 l 367 1236 m 644 1236 l 644 1074 l 490 1074 l 490 1236 l 644 1236 m 640 983 l 825 983 l 344 0 l 160 0 l 331 351 l 24 983 l 211 983 l 425 539 l 640 983 z "},"Ӳ":{"ha":850,"x_min":24,"x_max":825,"o":"m 501 1226 l 371 1053 l 225 1053 l 346 1226 l 501 1226 m 646 1053 l 500 1053 l 621 1226 l 778 1226 l 646 1053 m 640 983 l 825 983 l 344 0 l 160 0 l 331 351 l 24 983 l 211 983 l 425 539 l 640 983 z "},"Ӵ":{"ha":857,"x_min":67,"x_max":771,"o":"m 367 1236 l 367 1074 l 214 1074 l 214 1236 l 367 1236 m 644 1236 l 644 1074 l 490 1074 l 490 1236 l 644 1236 m 600 983 l 771 983 l 771 0 l 600 0 l 600 356 q 399 304 524 304 q 154 385 242 304 q 67 613 67 465 l 67 983 l 238 983 l 238 632 q 283 506 238 550 q 419 463 329 463 q 504 476 461 463 q 574 529 547 490 q 600 629 600 568 l 600 983 z "},"Ӷ":{"ha":742,"x_min":86,"x_max":713,"o":"m 713 825 l 257 825 l 257 158 l 397 158 l 397 -187 l 226 -187 l 226 0 l 86 0 l 86 983 l 713 983 l 713 825 z "},"Ӹ":{"ha":1171,"x_min":86,"x_max":1085,"o":"m 524 1236 l 524 1074 l 371 1074 l 371 1236 l 524 1236 m 647 1074 l 647 1236 l 801 1236 l 801 1074 l 647 1074 m 486 632 q 593 619 539 632 q 699 570 647 607 q 774 476 750 533 q 799 357 799 418 l 799 275 q 784 181 799 229 q 733 94 769 133 q 635 27 697 54 q 485 0 574 0 l 86 0 l 86 983 l 257 983 l 257 632 l 486 632 m 914 983 l 1085 983 l 1085 0 l 914 0 l 914 983 m 628 269 l 628 363 q 593 444 628 415 q 496 474 558 474 l 257 474 l 257 158 l 497 158 q 594 188 560 158 q 628 269 628 217 z "},"Ӽ":{"ha":865,"x_min":28,"x_max":840,"o":"m 786 186 q 826 101 811 147 q 840 8 840 54 q 772 -154 840 -92 q 592 -217 703 -217 l 517 -217 l 517 -58 l 578 -58 q 644 -33 618 -58 q 669 31 669 -8 q 644 101 669 68 l 451 379 l 217 0 l 28 0 l 346 532 l 31 983 l 229 983 l 449 671 l 646 983 l 838 983 l 553 521 l 786 186 z "},"Ԑ":{"ha":868,"x_min":68,"x_max":799,"o":"m 628 315 l 799 315 l 799 268 q 700 59 799 138 q 435 -19 601 -19 q 167 56 265 -19 q 68 258 68 131 l 68 324 q 92 427 68 379 q 158 510 115 475 q 86 676 86 578 l 86 733 q 103 826 86 779 q 160 913 119 874 q 271 977 201 951 q 442 1003 340 1003 q 692 924 599 1003 q 786 715 786 846 l 786 668 l 617 668 l 617 721 q 571 812 617 779 q 442 844 525 844 q 303 816 350 844 q 257 733 257 788 l 257 681 q 294 606 257 632 q 397 579 331 579 l 564 579 l 564 426 l 382 426 q 276 399 314 426 q 239 319 239 371 l 239 254 q 288 168 239 197 q 435 139 338 139 q 578 172 528 139 q 628 263 628 204 l 628 315 z "},"Ԓ":{"ha":950,"x_min":31,"x_max":864,"o":"m 864 983 l 864 18 q 841 -117 864 -54 q 774 -224 818 -179 q 667 -294 731 -269 q 528 -319 604 -319 l 454 -319 l 454 -161 l 538 -161 q 656 -110 618 -161 q 693 21 693 -60 l 693 825 l 424 825 l 372 319 q 289 76 356 153 q 90 0 222 0 l 31 0 l 31 158 l 56 158 q 157 203 122 158 q 201 340 192 247 l 267 983 l 864 983 z "},"Ԝ":{"ha":1282,"x_min":24,"x_max":1257,"o":"m 1078 983 l 1257 983 l 1024 1 l 796 1 l 642 653 l 485 1 l 257 1 l 24 983 l 204 983 l 379 183 l 560 983 l 715 983 l 904 185 l 1078 983 z "},"Ҍ":{"ha":978,"x_min":21,"x_max":924,"o":"m 611 632 q 718 619 664 632 q 824 570 772 607 q 899 476 875 533 q 924 357 924 418 l 924 275 q 909 181 924 229 q 858 94 894 133 q 760 27 822 54 q 610 0 699 0 l 211 0 l 211 728 l 21 728 l 21 886 l 211 886 l 211 983 l 382 983 l 382 886 l 650 886 l 650 728 l 382 728 l 382 632 l 611 632 m 753 269 l 753 363 q 718 444 753 415 q 621 474 683 474 l 382 474 l 382 158 l 621 158 q 719 188 685 158 q 753 269 753 217 z "},"Ҏ":{"ha":853,"x_min":86,"x_max":799,"o":"m 485 983 q 614 964 556 983 q 714 908 672 944 q 777 821 756 872 q 799 708 799 769 l 799 610 q 758 463 799 526 q 647 365 718 399 l 694 283 l 583 218 l 515 336 l 486 335 l 257 335 l 257 0 l 86 0 l 86 983 l 485 983 m 486 646 l 567 506 q 628 606 628 531 l 628 713 q 594 795 628 765 q 497 825 560 825 l 257 825 l 257 493 l 425 493 l 375 581 l 486 646 z "},"а":{"ha":774,"x_min":61,"x_max":686,"o":"m 575 706 l 686 706 l 686 0 l 575 0 l 547 56 q 336 -19 472 -19 q 133 53 204 -19 q 61 278 61 126 l 61 428 q 133 652 61 579 q 336 725 204 725 q 547 650 472 725 l 575 706 m 372 135 q 473 167 433 135 q 521 258 513 199 l 521 447 q 474 540 513 508 q 372 571 435 571 q 265 533 303 571 q 226 419 226 494 l 226 286 q 265 173 226 211 q 372 135 303 135 z "},"б":{"ha":747,"x_min":61,"x_max":685,"o":"m 401 725 q 613 648 542 725 q 685 425 685 571 l 685 281 q 603 60 685 140 q 374 -19 521 -19 q 144 60 226 -19 q 61 281 61 140 l 61 688 q 126 888 61 818 q 329 974 190 957 l 397 982 q 479 1010 456 990 q 503 1069 503 1029 l 668 1069 q 641 930 668 975 q 560 862 614 885 q 408 826 506 839 l 346 818 q 253 782 279 810 q 226 693 226 754 l 226 675 q 401 725 296 725 m 519 285 l 519 421 q 374 572 519 572 q 226 421 226 572 l 226 285 q 372 133 226 133 q 519 285 519 133 z "},"в":{"ha":739,"x_min":88,"x_max":688,"o":"m 597 382 q 688 215 688 340 l 688 207 q 460 0 688 0 l 88 0 l 88 706 l 426 706 q 599 659 543 706 q 656 517 656 613 l 656 507 q 597 382 656 429 m 417 568 l 251 568 l 251 428 l 417 428 q 490 489 490 428 l 490 507 q 417 568 490 568 m 522 204 l 522 224 q 450 290 522 290 l 251 290 l 251 138 l 450 138 q 522 204 522 138 z "},"г":{"ha":589,"x_min":88,"x_max":561,"o":"m 561 706 l 561 553 l 251 553 l 251 0 l 88 0 l 88 706 l 561 706 z "},"ѓ":{"ha":589,"x_min":88,"x_max":561,"o":"m 549 1014 l 375 775 l 218 775 l 360 1014 l 549 1014 m 561 706 l 561 553 l 251 553 l 251 0 l 88 0 l 88 706 l 561 706 z "},"ґ":{"ha":589,"x_min":88,"x_max":561,"o":"m 396 840 l 561 840 l 561 553 l 251 553 l 251 0 l 88 0 l 88 706 l 396 706 l 396 840 z "},"д":{"ha":842,"x_min":28,"x_max":814,"o":"m 721 153 l 814 153 l 814 -187 l 649 -187 l 649 0 l 193 0 l 193 -187 l 28 -187 l 28 153 l 51 153 q 131 187 104 153 q 165 297 157 221 l 207 706 l 721 706 l 721 153 m 290 153 l 556 153 l 556 553 l 356 553 l 329 303 q 290 153 321 204 z "},"е":{"ha":733,"x_min":61,"x_max":671,"o":"m 369 725 q 491 705 435 725 q 588 649 547 685 q 649 565 628 614 q 671 458 671 515 l 671 303 l 226 303 l 226 282 q 265 159 226 200 q 374 118 303 118 q 445 133 413 118 q 491 170 478 147 q 504 214 504 193 l 504 225 l 669 225 q 589 47 669 113 q 374 -19 508 -19 q 241 2 300 -19 q 142 65 182 24 q 82 163 103 106 q 61 288 61 219 l 61 422 q 142 644 61 563 q 369 725 224 725 m 226 429 l 503 429 l 503 457 q 372 588 503 588 q 226 429 229 588 z "},"ё":{"ha":733,"x_min":61,"x_max":671,"o":"m 304 958 l 304 796 l 151 796 l 151 958 l 304 958 m 582 958 l 582 796 l 428 796 l 428 958 l 582 958 m 369 725 q 491 705 435 725 q 588 649 547 685 q 649 565 628 614 q 671 458 671 515 l 671 303 l 226 303 l 226 282 q 265 159 226 200 q 374 118 303 118 q 445 133 413 118 q 491 170 478 147 q 504 214 504 193 l 504 225 l 669 225 q 589 47 669 113 q 374 -19 508 -19 q 241 2 300 -19 q 142 65 182 24 q 82 163 103 106 q 61 288 61 219 l 61 422 q 142 644 61 563 q 369 725 224 725 m 226 429 l 503 429 l 503 457 q 372 588 503 588 q 226 429 229 588 z "},"ж":{"ha":1142,"x_min":13,"x_max":1129,"o":"m 1129 0 l 931 0 l 653 344 l 653 0 l 489 0 l 489 344 l 211 0 l 13 0 l 314 378 l 15 706 l 218 706 l 489 413 l 489 706 l 653 706 l 653 413 l 924 706 l 1126 706 l 828 378 l 1129 0 z "},"з":{"ha":719,"x_min":61,"x_max":658,"o":"m 574 369 q 658 215 658 325 l 658 204 q 581 40 658 99 q 361 -19 503 -19 q 140 41 218 -19 q 61 213 61 101 l 61 236 l 225 236 l 225 208 q 261 144 225 167 q 364 121 297 121 q 460 142 428 121 q 493 203 493 164 l 493 218 q 472 272 493 256 q 401 289 450 289 l 275 289 l 275 428 l 388 428 q 456 444 435 428 q 478 496 478 460 l 478 508 q 357 585 478 585 q 229 501 229 585 l 229 476 l 67 476 l 67 497 q 142 665 67 606 q 356 725 218 725 q 566 669 489 725 q 643 515 643 613 l 643 503 q 574 369 643 415 z "},"и":{"ha":794,"x_min":88,"x_max":707,"o":"m 538 706 l 707 706 l 707 0 l 542 0 l 542 453 l 257 0 l 88 0 l 88 706 l 251 706 l 251 251 l 538 706 z "},"й":{"ha":794,"x_min":88,"x_max":707,"o":"m 396 768 q 242 824 301 768 q 182 967 182 879 l 286 967 q 317 897 286 924 q 396 871 347 871 q 476 897 446 871 q 507 967 507 924 l 611 967 q 551 824 611 879 q 396 768 490 768 m 538 706 l 707 706 l 707 0 l 542 0 l 542 453 l 257 0 l 88 0 l 88 706 l 251 706 l 251 251 l 538 706 z "},"ҋ":{"ha":821,"x_min":78,"x_max":793,"o":"m 386 768 q 232 824 292 768 q 172 967 172 879 l 276 967 q 307 897 276 924 q 386 871 338 871 q 467 897 436 871 q 497 967 497 924 l 601 967 q 541 824 601 879 q 386 768 481 768 m 793 153 l 750 -187 l 585 -187 l 608 0 l 532 0 l 532 453 l 247 0 l 78 0 l 78 706 l 242 706 l 242 251 l 528 706 l 697 706 l 697 153 l 793 153 z "},"к":{"ha":740,"x_min":88,"x_max":728,"o":"m 728 0 l 529 0 l 251 344 l 251 0 l 88 0 l 88 706 l 251 706 l 251 413 l 522 706 l 725 706 l 426 378 l 728 0 z "},"ќ":{"ha":740,"x_min":88,"x_max":728,"o":"m 614 1014 l 440 775 l 283 775 l 425 1014 l 614 1014 m 728 0 l 529 0 l 251 344 l 251 0 l 88 0 l 88 706 l 251 706 l 251 413 l 522 706 l 725 706 l 426 378 l 728 0 z "},"л":{"ha":800,"x_min":28,"x_max":713,"o":"m 713 706 l 713 0 l 547 0 l 547 553 l 347 553 l 314 233 q 251 52 301 104 q 90 0 201 0 l 28 0 l 28 153 l 50 153 q 125 182 101 153 q 156 285 149 211 l 199 706 l 713 706 z "},"м":{"ha":944,"x_min":88,"x_max":857,"o":"m 639 706 l 857 706 l 857 0 l 692 0 l 692 465 l 517 0 l 428 0 l 251 468 l 251 0 l 88 0 l 88 706 l 306 706 l 472 265 l 639 706 z "},"н":{"ha":792,"x_min":88,"x_max":704,"o":"m 539 706 l 704 706 l 704 0 l 539 0 l 539 285 l 251 285 l 251 0 l 88 0 l 88 706 l 251 706 l 251 436 l 539 436 l 539 706 z "},"о":{"ha":747,"x_min":61,"x_max":685,"o":"m 374 -19 q 143 61 225 -19 q 61 281 61 142 l 61 425 q 143 644 61 564 q 372 725 225 725 q 603 644 521 725 q 685 425 685 564 l 685 281 q 603 61 685 142 q 374 -19 521 -19 m 372 133 q 519 286 519 133 l 519 419 q 374 572 519 572 q 226 419 226 572 l 226 286 q 372 133 226 133 z "},"п":{"ha":792,"x_min":88,"x_max":704,"o":"m 704 706 l 704 0 l 539 0 l 539 553 l 251 553 l 251 0 l 88 0 l 88 706 l 704 706 z "},"р":{"ha":774,"x_min":88,"x_max":713,"o":"m 435 725 q 594 689 533 725 q 683 588 654 653 q 713 428 713 524 l 713 278 q 683 117 713 182 q 594 17 654 53 q 435 -19 533 -19 q 251 35 322 -19 l 251 -319 l 88 -319 l 88 706 l 199 706 l 226 650 q 435 725 301 725 m 547 285 l 547 419 q 509 533 547 494 q 401 571 471 571 q 317 551 353 571 q 267 499 282 532 q 251 432 253 465 l 251 274 q 267 207 253 240 q 317 154 282 174 q 401 135 353 135 q 509 172 471 135 q 547 285 547 210 z "},"с":{"ha":729,"x_min":61,"x_max":668,"o":"m 368 -19 q 142 61 224 -19 q 61 281 61 142 l 61 425 q 142 644 61 564 q 368 725 224 725 q 587 647 506 725 q 668 438 668 568 l 668 421 l 501 421 l 501 442 q 466 538 501 504 q 368 572 431 572 q 262 533 297 572 q 226 419 226 494 l 226 286 q 262 172 226 211 q 368 133 297 133 q 465 168 429 133 q 501 264 501 203 l 501 285 l 668 285 l 668 268 q 587 59 668 138 q 368 -19 506 -19 z "},"т":{"ha":656,"x_min":28,"x_max":626,"o":"m 626 706 l 626 553 l 410 553 l 410 0 l 244 0 l 244 553 l 28 553 l 28 706 l 626 706 z "},"у":{"ha":764,"x_min":82,"x_max":678,"o":"m 513 706 l 678 706 l 678 -67 q 638 -215 678 -154 q 533 -308 599 -276 q 375 -339 467 -339 q 270 -326 322 -339 q 177 -284 218 -314 q 110 -208 136 -254 q 82 -101 85 -162 l 247 -101 q 285 -163 251 -140 q 372 -186 319 -186 q 452 -168 418 -186 q 499 -120 486 -150 q 513 -61 513 -90 l 513 32 q 433 -7 478 6 q 344 -19 388 -19 q 151 58 221 -19 q 82 294 82 135 l 82 706 l 247 706 l 247 294 q 281 175 247 215 q 378 135 314 135 q 451 155 418 135 q 497 208 483 175 q 513 274 511 242 l 513 706 z "},"ў":{"ha":764,"x_min":82,"x_max":678,"o":"m 382 768 q 228 824 288 768 q 168 967 168 879 l 272 967 q 303 897 272 924 q 382 871 333 871 q 463 897 432 871 q 493 967 493 924 l 597 967 q 537 824 597 879 q 382 768 476 768 m 513 706 l 678 706 l 678 -67 q 638 -215 678 -154 q 533 -308 599 -276 q 375 -339 467 -339 q 270 -326 322 -339 q 177 -284 218 -314 q 110 -208 136 -254 q 82 -101 85 -162 l 247 -101 q 285 -163 251 -140 q 372 -186 319 -186 q 452 -168 418 -186 q 499 -120 486 -150 q 513 -61 513 -90 l 513 32 q 433 -7 478 6 q 344 -19 388 -19 q 151 58 221 -19 q 82 294 82 135 l 82 706 l 247 706 l 247 294 q 281 175 247 215 q 378 135 314 135 q 451 155 418 135 q 497 208 483 175 q 513 274 511 242 l 513 706 z "},"ф":{"ha":1208,"x_min":61,"x_max":1147,"o":"m 869 725 q 1028 689 968 725 q 1118 588 1089 653 q 1147 428 1147 524 l 1147 278 q 1118 117 1147 182 q 1028 17 1089 53 q 869 -19 968 -19 q 686 35 757 -19 l 686 -319 l 521 -319 l 521 33 q 339 -19 450 -19 q 180 17 240 -19 q 90 117 119 53 q 61 278 61 182 l 61 428 q 90 588 61 524 q 180 689 119 653 q 339 725 240 725 q 521 672 450 725 l 521 983 l 686 983 l 686 671 q 869 725 757 725 m 372 135 q 473 167 433 135 q 521 258 513 199 l 521 447 q 474 540 513 508 q 372 571 435 571 q 265 533 303 571 q 226 419 226 494 l 226 285 q 265 172 226 210 q 372 135 303 135 m 982 285 l 982 419 q 944 533 982 494 q 836 571 906 571 q 752 551 788 571 q 702 499 717 532 q 686 432 688 465 l 686 274 q 702 207 688 240 q 752 154 717 174 q 836 135 788 135 q 944 172 906 135 q 982 285 982 210 z "},"х":{"ha":696,"x_min":14,"x_max":681,"o":"m 681 706 l 438 356 l 678 0 l 489 0 l 340 219 l 196 0 l 18 0 l 250 356 l 14 706 l 201 706 l 347 489 l 499 706 l 681 706 z "},"ч":{"ha":763,"x_min":81,"x_max":675,"o":"m 510 706 l 675 706 l 675 0 l 510 0 l 510 235 q 435 199 479 213 q 340 185 392 185 q 147 254 214 185 q 81 456 81 324 l 81 706 l 246 706 l 246 486 q 277 375 246 411 q 372 339 308 339 q 429 350 399 339 q 482 391 460 361 q 510 463 504 421 l 510 706 z "},"ц":{"ha":826,"x_min":88,"x_max":799,"o":"m 799 153 l 799 -187 l 633 -187 l 633 0 l 88 0 l 88 706 l 251 706 l 251 153 l 539 153 l 539 706 l 704 706 l 704 153 l 799 153 z "},"ш":{"ha":1135,"x_min":88,"x_max":1049,"o":"m 883 706 l 1049 706 l 1049 0 l 88 0 l 88 706 l 251 706 l 251 153 l 485 153 l 485 706 l 650 706 l 650 153 l 883 153 l 883 706 z "},"щ":{"ha":1169,"x_min":88,"x_max":1142,"o":"m 1142 153 l 1142 -187 l 976 -187 l 976 0 l 88 0 l 88 706 l 251 706 l 251 153 l 485 153 l 485 706 l 650 706 l 650 153 l 883 153 l 883 706 l 1049 706 l 1049 153 l 1142 153 z "},"џ":{"ha":792,"x_min":88,"x_max":704,"o":"m 704 706 l 704 0 l 479 0 l 479 -187 l 314 -187 l 314 0 l 88 0 l 88 706 l 251 706 l 251 153 l 539 153 l 539 706 l 704 706 z "},"ь":{"ha":708,"x_min":88,"x_max":667,"o":"m 418 475 q 602 417 538 475 q 667 253 667 360 l 667 221 q 602 58 667 115 q 418 0 538 0 l 88 0 l 88 706 l 251 706 l 251 475 l 418 475 m 501 231 l 501 243 q 410 322 501 322 l 251 322 l 251 153 l 410 153 q 478 173 454 153 q 501 231 501 193 z "},"ъ":{"ha":760,"x_min":17,"x_max":718,"o":"m 469 475 q 653 417 589 475 q 718 253 718 360 l 718 221 q 653 58 718 115 q 469 0 589 0 l 139 0 l 139 553 l 17 553 l 17 706 l 304 706 l 304 475 l 469 475 m 553 231 l 553 243 q 461 322 553 322 l 304 322 l 304 153 l 461 153 q 553 231 553 153 z "},"ы":{"ha":1004,"x_min":88,"x_max":918,"o":"m 418 475 q 602 417 538 475 q 667 253 667 360 l 667 221 q 602 58 667 115 q 418 0 538 0 l 88 0 l 88 706 l 251 706 l 251 475 l 418 475 m 753 706 l 918 706 l 918 0 l 753 0 l 753 706 m 501 231 l 501 243 q 410 322 501 322 l 251 322 l 251 153 l 410 153 q 478 173 454 153 q 501 231 501 193 z "},"љ":{"ha":1165,"x_min":28,"x_max":1124,"o":"m 875 475 q 1059 417 994 475 q 1124 253 1124 360 l 1124 221 q 1059 58 1124 115 q 875 0 994 0 l 544 0 l 544 553 l 344 553 l 315 265 q 240 64 301 128 q 60 0 178 0 l 28 0 l 28 153 l 40 153 q 119 187 93 153 q 154 297 146 221 l 196 706 l 710 706 l 710 475 l 875 475 m 958 231 l 958 243 q 867 322 958 322 l 710 322 l 710 153 l 867 153 q 958 231 958 153 z "},"њ":{"ha":1161,"x_min":88,"x_max":1118,"o":"m 871 475 q 1054 417 990 475 q 1118 253 1118 360 l 1118 221 q 1054 58 1118 115 q 871 0 990 0 l 539 0 l 539 285 l 251 285 l 251 0 l 88 0 l 88 706 l 251 706 l 251 436 l 539 436 l 539 706 l 704 706 l 704 475 l 871 475 m 953 231 l 953 243 q 861 322 953 322 l 704 322 l 704 153 l 861 153 q 953 231 953 153 z "},"ѕ":{"ha":660,"x_min":44,"x_max":621,"o":"m 333 -19 q 123 47 201 -19 q 44 218 44 113 l 44 233 l 208 233 l 208 218 q 221 176 208 197 q 266 140 233 154 q 342 125 299 125 q 424 144 392 125 q 457 197 457 164 q 445 231 457 214 q 401 260 433 247 q 283 293 368 272 q 151 340 197 314 q 81 403 106 365 q 57 497 57 440 q 133 663 57 600 q 332 725 210 725 q 534 660 458 725 q 610 494 610 596 l 610 481 l 446 481 l 446 494 q 415 557 446 533 q 332 581 383 581 q 250 560 281 581 q 219 508 219 539 q 235 474 219 488 q 278 451 251 460 q 378 424 304 442 q 497 385 451 406 q 567 341 543 365 q 606 285 592 317 q 621 208 621 254 q 586 90 621 140 q 487 10 551 40 q 333 -19 422 -19 z "},"є":{"ha":729,"x_min":61,"x_max":668,"o":"m 668 421 l 501 421 l 501 442 q 466 538 501 504 q 368 572 431 572 q 266 538 301 572 q 226 436 231 503 l 400 436 l 400 285 l 226 285 q 263 172 226 211 q 368 133 299 133 q 465 168 429 133 q 501 264 501 203 l 501 285 l 668 285 l 668 268 q 587 59 668 138 q 368 -19 506 -19 q 142 61 224 -19 q 61 281 61 142 l 61 425 q 142 644 61 564 q 368 725 224 725 q 587 647 506 725 q 668 438 668 568 l 668 421 z "},"э":{"ha":729,"x_min":61,"x_max":668,"o":"m 361 725 q 587 644 506 725 q 668 425 668 564 l 668 281 q 587 61 668 142 q 360 -19 506 -19 q 142 59 224 -19 q 61 268 61 138 l 61 285 l 228 285 l 228 258 q 263 162 228 196 q 361 128 299 128 q 503 279 503 128 l 503 285 l 321 285 l 321 436 l 503 436 q 481 521 501 488 q 426 566 460 554 q 360 578 392 578 q 263 544 299 578 q 228 447 228 510 l 228 421 l 61 421 l 61 438 q 142 647 61 568 q 361 725 224 725 z "},"і":{"ha":343,"x_min":86,"x_max":256,"o":"m 86 796 l 86 972 l 256 972 l 256 796 l 86 796 m 89 0 l 89 706 l 254 706 l 254 0 l 89 0 z "},"ї":{"ha":343,"x_min":-44,"x_max":386,"o":"m -44 796 l -44 958 l 108 958 l 108 796 l -44 796 m 232 796 l 232 958 l 386 958 l 386 796 l 232 796 m 89 0 l 89 706 l 254 706 l 254 0 l 89 0 z "},"ј":{"ha":367,"x_min":-43,"x_max":278,"o":"m 110 796 l 110 972 l 278 972 l 278 796 l 110 796 m -43 -319 l -43 -167 l -12 -167 q 61 -151 35 -167 q 99 -103 88 -135 q 111 -17 111 -72 l 111 706 l 276 706 l 276 -61 q 247 -203 276 -146 q 165 -290 218 -260 q 33 -319 111 -319 l -43 -319 z "},"ћ":{"ha":793,"x_min":0,"x_max":713,"o":"m 447 725 q 642 647 572 725 q 713 410 713 569 l 713 0 l 547 0 l 547 410 q 509 529 547 488 q 408 571 471 571 q 328 551 364 571 q 276 497 292 531 q 260 431 261 463 l 260 0 l 96 0 l 96 792 l 0 792 l 0 931 l 96 931 l 96 1069 l 260 1069 l 260 931 l 435 931 l 435 792 l 260 792 l 260 668 q 447 725 333 725 z "},"ю":{"ha":1078,"x_min":88,"x_max":1017,"o":"m 704 725 q 935 644 853 725 q 1017 425 1017 564 l 1017 281 q 935 61 1017 142 q 706 -19 853 -19 q 475 61 557 -19 q 393 281 393 142 l 393 290 l 251 290 l 251 0 l 88 0 l 88 706 l 251 706 l 251 443 l 393 443 q 480 649 399 574 q 704 725 561 725 m 851 286 l 851 419 q 706 572 851 572 q 558 419 558 572 l 558 286 q 704 133 558 133 q 851 286 851 133 z "},"я":{"ha":753,"x_min":69,"x_max":665,"o":"m 665 706 l 665 0 l 500 0 l 500 236 l 346 236 l 243 0 l 69 0 l 178 269 q 86 458 86 325 l 86 483 q 146 647 86 589 q 315 706 206 706 l 665 706 m 342 389 l 500 389 l 500 553 l 342 553 q 251 474 251 553 l 251 468 q 342 389 251 389 z "},"ђ":{"ha":793,"x_min":0,"x_max":713,"o":"m 447 725 q 642 647 572 725 q 713 410 713 569 l 713 -61 q 683 -203 713 -146 q 601 -290 654 -260 q 469 -319 547 -319 l 393 -319 l 393 -167 l 424 -167 q 519 -135 490 -167 q 547 -17 547 -103 l 547 410 q 509 529 547 488 q 408 571 471 571 q 328 551 364 571 q 276 497 292 531 q 260 431 261 463 l 260 0 l 96 0 l 96 792 l 0 792 l 0 931 l 96 931 l 96 1069 l 260 1069 l 260 931 l 435 931 l 435 792 l 260 792 l 260 668 q 447 725 333 725 z "},"ѣ":{"ha":717,"x_min":0,"x_max":675,"o":"m 426 475 q 610 417 544 475 q 675 253 675 358 l 675 221 q 610 58 675 115 q 426 0 544 0 l 96 0 l 96 725 l 0 725 l 0 864 l 96 864 l 96 1069 l 260 1069 l 260 864 l 435 864 l 435 725 l 260 725 l 260 475 l 426 475 m 510 231 l 510 243 q 418 322 510 322 l 260 322 l 260 153 l 418 153 q 486 173 463 153 q 510 231 510 193 z "},"ѳ":{"ha":747,"x_min":61,"x_max":685,"o":"m 372 725 q 603 644 521 725 q 685 425 685 564 l 685 281 q 603 61 685 142 q 374 -19 521 -19 q 143 61 225 -19 q 61 281 61 142 l 61 425 q 143 644 61 564 q 372 725 225 725 m 374 572 q 228 444 239 572 q 286 456 258 456 q 374 436 318 456 q 461 417 425 417 q 519 428 489 417 q 374 572 515 572 m 372 133 q 519 275 515 133 q 461 265 494 268 q 374 285 422 265 q 286 303 324 303 q 226 293 261 303 l 226 286 q 372 133 226 133 z "},"ѵ":{"ha":724,"x_min":14,"x_max":694,"o":"m 665 706 l 694 706 l 694 553 l 683 553 q 622 529 644 553 q 579 442 600 506 l 444 0 l 226 0 l 14 706 l 185 706 l 342 171 l 425 472 q 513 653 458 600 q 665 706 567 706 z "},"ғ":{"ha":614,"x_min":17,"x_max":586,"o":"m 586 553 l 278 553 l 278 393 l 488 393 l 488 254 l 278 254 l 278 0 l 113 0 l 113 254 l 17 254 l 17 393 l 113 393 l 113 706 l 586 706 l 586 553 z "},"ҕ":{"ha":708,"x_min":88,"x_max":667,"o":"m 418 408 q 602 351 538 408 q 667 188 667 293 l 667 6 q 602 -159 667 -101 q 418 -217 538 -217 l 292 -217 l 292 -64 l 410 -64 q 501 15 501 -64 l 501 178 q 410 257 501 257 l 251 257 l 251 0 l 88 0 l 88 706 l 561 706 l 561 553 l 251 553 l 251 408 l 418 408 z "},"җ":{"ha":1203,"x_min":13,"x_max":1175,"o":"m 1175 153 l 1175 -187 l 1010 -187 l 1010 0 l 931 0 l 653 344 l 653 0 l 489 0 l 489 344 l 211 0 l 13 0 l 314 378 l 15 706 l 218 706 l 489 413 l 489 706 l 653 706 l 653 413 l 924 706 l 1126 706 l 828 378 l 1007 153 l 1175 153 z "},"ҙ":{"ha":719,"x_min":61,"x_max":658,"o":"m 574 369 q 658 215 658 325 l 658 204 q 598 54 658 111 q 426 -15 538 -3 l 450 -221 l 267 -221 l 290 -15 q 120 58 179 0 q 61 213 61 117 l 61 236 l 225 236 l 225 208 q 261 144 225 167 q 364 121 297 121 q 460 142 428 121 q 493 203 493 164 l 493 218 q 472 272 493 256 q 401 289 450 289 l 275 289 l 275 428 l 388 428 q 456 444 435 428 q 478 496 478 460 l 478 508 q 357 585 478 585 q 229 501 229 585 l 229 476 l 67 476 l 67 497 q 142 665 67 606 q 356 725 218 725 q 566 669 489 725 q 643 515 643 613 l 643 503 q 574 369 643 415 z "},"қ":{"ha":801,"x_min":88,"x_max":774,"o":"m 774 153 l 774 -187 l 608 -187 l 608 0 l 529 0 l 251 344 l 251 0 l 88 0 l 88 706 l 251 706 l 251 413 l 522 706 l 725 706 l 426 378 l 606 153 l 774 153 z "},"ҝ":{"ha":740,"x_min":88,"x_max":728,"o":"m 554 0 l 435 303 l 390 303 l 390 149 l 301 149 l 301 303 l 251 303 l 251 0 l 88 0 l 88 706 l 251 706 l 251 456 l 301 456 l 301 610 l 390 610 l 390 456 l 440 456 l 550 706 l 725 706 l 578 374 l 728 0 l 554 0 z "},"ҟ":{"ha":760,"x_min":11,"x_max":749,"o":"m 749 0 l 550 0 l 272 344 l 272 0 l 107 0 l 107 781 l 11 781 l 11 932 l 107 932 l 107 1069 l 272 1069 l 272 932 l 447 932 l 447 781 l 272 781 l 272 413 l 542 706 l 744 706 l 447 378 l 749 0 z "},"ҡ":{"ha":792,"x_min":17,"x_max":779,"o":"m 779 0 l 581 0 l 304 344 l 304 0 l 139 0 l 139 553 l 17 553 l 17 706 l 304 706 l 304 413 l 574 706 l 776 706 l 479 378 l 779 0 z "},"ң":{"ha":826,"x_min":88,"x_max":799,"o":"m 799 153 l 799 -187 l 633 -187 l 633 0 l 539 0 l 539 285 l 251 285 l 251 0 l 88 0 l 88 706 l 251 706 l 251 436 l 539 436 l 539 706 l 704 706 l 704 153 l 799 153 z "},"ҥ":{"ha":1042,"x_min":88,"x_max":1013,"o":"m 1013 706 l 1013 553 l 704 553 l 704 0 l 539 0 l 539 285 l 251 285 l 251 0 l 88 0 l 88 706 l 251 706 l 251 436 l 539 436 l 539 706 l 1013 706 z "},"ԥ":{"ha":826,"x_min":88,"x_max":799,"o":"m 799 153 l 799 -187 l 633 -187 l 633 0 l 539 0 l 539 553 l 251 553 l 251 0 l 88 0 l 88 706 l 704 706 l 704 153 l 799 153 z "},"ҧ":{"ha":1161,"x_min":88,"x_max":1118,"o":"m 871 408 q 1054 351 990 408 q 1118 188 1118 293 l 1118 6 q 1054 -159 1118 -101 q 871 -217 990 -217 l 744 -217 l 744 -64 l 861 -64 q 953 15 953 -64 l 953 178 q 861 257 953 257 l 704 257 l 704 0 l 539 0 l 539 553 l 251 553 l 251 0 l 88 0 l 88 706 l 704 706 l 704 408 l 871 408 z "},"ҩ":{"ha":822,"x_min":61,"x_max":761,"o":"m 538 481 q 703 426 644 481 q 761 271 761 371 l 761 239 q 688 64 761 131 q 478 -17 614 -3 q 538 -64 483 -64 l 693 -64 l 693 -217 l 538 -217 q 313 -25 313 -217 l 313 -11 q 178 44 238 3 q 90 153 118 85 q 61 301 61 222 l 61 385 q 153 622 61 538 q 414 706 244 706 l 599 706 l 599 553 l 415 553 q 226 381 226 553 l 226 306 q 313 149 226 183 l 313 288 q 538 481 313 481 m 596 250 l 596 269 q 538 328 596 328 q 478 269 478 328 l 478 138 q 568 172 540 144 q 596 250 596 199 z "},"ҫ":{"ha":729,"x_min":61,"x_max":668,"o":"m 668 421 l 501 421 l 501 442 q 466 538 501 504 q 368 572 431 572 q 262 533 297 572 q 226 419 226 494 l 226 286 q 262 172 226 211 q 368 133 297 133 q 465 168 429 133 q 501 264 501 203 l 501 285 l 668 285 l 668 268 q 605 78 668 153 q 432 -14 542 3 l 456 -221 l 272 -221 l 296 -14 q 122 83 183 6 q 61 281 61 160 l 61 425 q 142 644 61 564 q 368 725 224 725 q 587 647 506 725 q 668 438 668 568 l 668 421 z "},"ҭ":{"ha":656,"x_min":28,"x_max":626,"o":"m 626 553 l 410 553 l 410 153 l 504 153 l 504 -187 l 339 -187 l 339 0 l 244 0 l 244 553 l 28 553 l 28 706 l 626 706 l 626 553 z "},"ү":{"ha":701,"x_min":14,"x_max":688,"o":"m 688 706 l 433 292 l 433 0 l 268 0 l 268 289 l 14 706 l 201 706 l 351 464 l 499 706 l 688 706 z "},"ұ":{"ha":701,"x_min":14,"x_max":688,"o":"m 433 292 l 433 258 l 568 258 l 568 119 l 433 119 l 433 0 l 268 0 l 268 119 l 133 119 l 133 258 l 268 258 l 268 289 l 14 706 l 201 706 l 351 464 l 499 706 l 688 706 l 433 292 z "},"ҳ":{"ha":751,"x_min":14,"x_max":724,"o":"m 724 153 l 724 -187 l 558 -187 l 558 0 l 489 0 l 340 219 l 196 0 l 18 0 l 250 356 l 14 706 l 201 706 l 347 489 l 499 706 l 681 706 l 438 356 l 575 153 l 724 153 z "},"ҵ":{"ha":851,"x_min":17,"x_max":824,"o":"m 824 153 l 824 -187 l 658 -187 l 658 0 l 113 0 l 113 567 l 17 567 l 17 706 l 442 706 l 442 567 l 278 567 l 278 153 l 565 153 l 565 706 l 729 706 l 729 153 l 824 153 z "},"ҷ":{"ha":807,"x_min":82,"x_max":771,"o":"m 771 153 l 771 -187 l 606 -187 l 606 0 l 513 0 l 513 238 q 343 185 444 185 q 149 256 215 185 q 82 467 82 328 l 82 706 l 247 706 l 247 486 q 378 339 247 339 q 472 377 435 339 q 513 478 510 415 l 513 706 l 678 706 l 678 153 l 771 153 z "},"ҹ":{"ha":763,"x_min":81,"x_max":675,"o":"m 510 706 l 675 706 l 675 0 l 510 0 l 510 235 q 421 194 471 207 l 421 31 l 332 31 l 332 185 q 197 217 257 186 q 109 311 138 247 q 81 456 81 375 l 81 706 l 246 706 l 246 485 q 332 342 246 360 l 332 492 l 421 492 l 421 344 q 481 388 457 357 q 510 461 504 418 l 510 706 z "},"һ":{"ha":785,"x_min":88,"x_max":704,"o":"m 439 725 q 634 647 564 725 q 704 410 704 569 l 704 0 l 539 0 l 539 410 q 501 529 539 488 q 400 571 463 571 q 319 551 356 571 q 268 497 283 531 q 251 431 253 463 l 251 0 l 88 0 l 88 1069 l 251 1069 l 251 668 q 439 725 325 725 z "},"ԧ":{"ha":826,"x_min":88,"x_max":799,"o":"m 799 153 l 799 -187 l 633 -187 l 633 0 l 539 0 l 539 410 q 501 529 539 488 q 400 571 463 571 q 319 551 356 571 q 268 497 283 531 q 251 431 253 463 l 251 0 l 88 0 l 88 1069 l 251 1069 l 251 668 q 439 725 325 725 q 634 647 564 725 q 704 410 704 569 l 704 153 l 799 153 z "},"ҽ":{"ha":904,"x_min":14,"x_max":842,"o":"m 542 725 q 642 712 590 725 q 743 662 693 699 q 817 569 793 625 q 842 457 842 514 l 842 303 l 399 303 l 399 283 q 437 160 399 201 q 544 118 475 118 q 617 133 585 118 q 663 172 650 149 q 675 215 675 194 l 675 228 l 840 228 q 759 47 840 114 q 542 -19 678 -19 q 315 64 397 -19 q 233 288 233 147 l 233 304 q 149 324 190 308 q 74 374 108 339 q 27 457 40 408 q 14 549 14 506 l 14 604 l 163 604 l 163 549 q 233 433 163 453 q 278 598 236 533 q 387 694 321 663 q 542 725 453 725 m 399 425 l 674 425 l 674 454 q 542 588 674 588 q 435 546 471 588 q 399 426 399 504 l 399 425 z "},"ҿ":{"ha":904,"x_min":14,"x_max":842,"o":"m 542 725 q 642 712 590 725 q 743 662 693 699 q 817 569 793 625 q 842 457 842 514 l 842 303 l 399 303 l 399 283 q 437 160 399 201 q 544 118 475 118 q 617 133 585 118 q 663 172 650 149 q 675 215 675 194 l 675 228 l 840 228 q 776 63 840 126 q 601 -15 713 -1 l 625 -221 l 442 -221 l 465 -12 q 294 88 356 8 q 233 288 233 167 l 233 304 q 149 324 190 308 q 74 374 108 339 q 27 457 40 408 q 14 549 14 506 l 14 604 l 163 604 l 163 549 q 233 433 163 453 q 278 598 236 533 q 387 694 321 663 q 542 725 453 725 m 399 425 l 674 425 l 674 454 q 542 588 674 588 q 435 546 471 588 q 399 426 399 504 l 399 425 z "},"ӏ":{"ha":343,"x_min":89,"x_max":254,"o":"m 89 0 l 89 706 l 254 706 l 254 0 l 89 0 z "},"ӂ":{"ha":1142,"x_min":13,"x_max":1129,"o":"m 569 768 q 415 824 475 768 q 356 967 356 879 l 460 967 q 490 897 460 924 q 569 871 521 871 q 650 897 619 871 q 681 967 681 924 l 785 967 q 724 824 785 879 q 569 768 664 768 m 1129 0 l 931 0 l 653 344 l 653 0 l 489 0 l 489 344 l 211 0 l 13 0 l 314 378 l 15 706 l 218 706 l 489 413 l 489 706 l 653 706 l 653 413 l 924 706 l 1126 706 l 828 378 l 1129 0 z "},"ӄ":{"ha":772,"x_min":88,"x_max":731,"o":"m 483 408 q 666 351 601 408 q 731 188 731 293 l 731 6 q 666 -159 731 -101 q 483 -217 601 -217 l 292 -217 l 292 -64 l 474 -64 q 565 15 565 -64 l 565 178 q 474 257 565 257 l 251 257 l 251 0 l 88 0 l 88 706 l 251 706 l 251 408 l 256 408 l 522 706 l 725 706 l 464 408 l 483 408 z "},"ӆ":{"ha":828,"x_min":28,"x_max":800,"o":"m 800 153 l 757 -187 l 592 -187 l 615 0 l 547 0 l 547 553 l 347 553 l 314 233 q 251 52 301 104 q 90 0 201 0 l 28 0 l 28 153 l 50 153 q 125 182 101 153 q 156 285 149 211 l 199 706 l 713 706 l 713 153 l 800 153 z "},"ӈ":{"ha":792,"x_min":88,"x_max":704,"o":"m 539 706 l 704 706 l 704 -61 q 675 -203 704 -146 q 592 -290 646 -260 q 461 -319 539 -319 l 385 -319 l 385 -167 l 415 -167 q 510 -135 482 -167 q 539 -17 539 -103 l 539 285 l 251 285 l 251 0 l 88 0 l 88 706 l 251 706 l 251 436 l 539 436 l 539 706 z "},"ӊ":{"ha":821,"x_min":88,"x_max":792,"o":"m 792 153 l 750 -187 l 585 -187 l 608 0 l 539 0 l 539 285 l 251 285 l 251 0 l 88 0 l 88 706 l 251 706 l 251 436 l 539 436 l 539 706 l 704 706 l 704 153 l 792 153 z "},"ӌ":{"ha":763,"x_min":81,"x_max":675,"o":"m 510 706 l 675 706 l 675 0 l 582 0 l 582 -187 l 417 -187 l 417 97 l 510 97 l 510 236 q 342 185 442 185 q 147 256 214 185 q 81 467 81 328 l 81 706 l 246 706 l 246 486 q 278 375 246 411 q 375 339 310 339 q 466 372 429 339 q 510 463 503 406 l 510 706 z "},"ӎ":{"ha":974,"x_min":88,"x_max":944,"o":"m 944 153 l 903 -187 l 738 -187 l 761 0 l 692 0 l 692 465 l 517 0 l 428 0 l 251 468 l 251 0 l 88 0 l 88 706 l 306 706 l 472 265 l 639 706 l 857 706 l 857 153 l 944 153 z "},"ӑ":{"ha":774,"x_min":61,"x_max":686,"o":"m 379 768 q 225 824 285 768 q 165 967 165 879 l 269 967 q 300 897 269 924 q 379 871 331 871 q 460 897 429 871 q 490 967 490 924 l 594 967 q 534 824 594 879 q 379 768 474 768 m 575 706 l 686 706 l 686 0 l 575 0 l 547 56 q 336 -19 472 -19 q 133 53 204 -19 q 61 278 61 126 l 61 428 q 133 652 61 579 q 336 725 204 725 q 547 650 472 725 l 575 706 m 372 135 q 473 167 433 135 q 521 258 513 199 l 521 447 q 474 540 513 508 q 372 571 435 571 q 265 533 303 571 q 226 419 226 494 l 226 286 q 265 173 226 211 q 372 135 303 135 z "},"ӓ":{"ha":774,"x_min":61,"x_max":686,"o":"m 318 958 l 318 796 l 165 796 l 165 958 l 318 958 m 596 958 l 596 796 l 442 796 l 442 958 l 596 958 m 575 706 l 686 706 l 686 0 l 575 0 l 547 56 q 336 -19 472 -19 q 133 53 204 -19 q 61 278 61 126 l 61 428 q 133 652 61 579 q 336 725 204 725 q 547 650 472 725 l 575 706 m 372 135 q 473 167 433 135 q 521 258 513 199 l 521 447 q 474 540 513 508 q 372 571 435 571 q 265 533 303 571 q 226 419 226 494 l 226 286 q 265 173 226 211 q 372 135 303 135 z "},"ӕ":{"ha":1172,"x_min":61,"x_max":1110,"o":"m 846 725 q 937 712 890 725 q 1022 667 983 699 q 1085 583 1060 635 q 1110 458 1110 531 l 1110 303 l 676 303 l 676 282 q 715 159 676 200 q 822 118 753 118 q 913 146 881 118 q 944 222 944 174 l 944 239 l 1108 239 q 1042 49 1108 117 q 847 -19 976 -19 q 738 1 789 -19 q 653 60 688 22 l 622 0 l 565 0 l 538 56 q 331 -19 463 -19 q 131 53 201 -19 q 61 278 61 126 l 61 426 q 132 652 61 579 q 332 725 203 725 q 538 650 464 725 l 565 706 l 622 706 l 651 647 q 738 705 688 685 q 846 725 788 725 m 676 429 l 942 429 l 942 457 q 821 588 942 588 q 676 429 679 588 m 367 135 q 447 154 413 135 q 496 207 482 174 q 511 272 510 240 l 511 432 q 496 499 510 465 q 448 551 482 532 q 367 571 414 571 q 263 533 299 571 q 226 421 226 496 l 226 285 q 263 173 226 211 q 367 135 300 135 z "},"ӗ":{"ha":733,"x_min":61,"x_max":671,"o":"m 365 768 q 211 824 271 768 q 151 967 151 879 l 256 967 q 286 897 256 924 q 365 871 317 871 q 446 897 415 871 q 476 967 476 924 l 581 967 q 520 824 581 879 q 365 768 460 768 m 369 725 q 491 705 435 725 q 588 649 547 685 q 649 565 628 614 q 671 458 671 515 l 671 303 l 226 303 l 226 282 q 265 159 226 200 q 374 118 303 118 q 445 133 413 118 q 491 170 478 147 q 504 214 504 193 l 504 225 l 669 225 q 589 47 669 113 q 374 -19 508 -19 q 241 2 300 -19 q 142 65 182 24 q 82 163 103 106 q 61 288 61 219 l 61 422 q 142 644 61 563 q 369 725 224 725 m 226 429 l 503 429 l 503 457 q 372 588 503 588 q 226 429 229 588 z "},"ә":{"ha":732,"x_min":61,"x_max":669,"o":"m 361 724 q 588 641 506 724 q 669 418 669 558 l 669 283 q 588 63 669 144 q 363 -19 507 -19 q 241 1 297 -19 q 144 56 185 21 q 83 141 104 92 q 61 247 61 190 l 61 403 l 504 403 l 504 422 q 466 546 504 504 q 360 588 428 588 q 303 578 335 588 q 250 545 272 569 q 228 489 228 521 l 228 478 l 63 478 q 144 658 63 592 q 361 724 225 724 m 361 117 q 468 159 432 117 q 504 279 504 201 l 504 281 l 229 281 l 229 250 q 361 117 229 117 z "},"ӛ":{"ha":732,"x_min":61,"x_max":669,"o":"m 299 958 l 299 796 l 146 796 l 146 958 l 299 958 m 576 958 l 576 796 l 422 796 l 422 958 l 576 958 m 361 724 q 588 641 506 724 q 669 418 669 558 l 669 283 q 588 63 669 144 q 363 -19 507 -19 q 241 1 297 -19 q 144 56 185 21 q 83 141 104 92 q 61 247 61 190 l 61 403 l 504 403 l 504 422 q 466 546 504 504 q 360 588 428 588 q 303 578 335 588 q 250 545 272 569 q 228 489 228 521 l 228 478 l 63 478 q 144 658 63 592 q 361 724 225 724 m 361 117 q 468 159 432 117 q 504 279 504 201 l 504 281 l 229 281 l 229 250 q 361 117 229 117 z "},"ӝ":{"ha":1142,"x_min":13,"x_max":1129,"o":"m 508 958 l 508 796 l 356 796 l 356 958 l 508 958 m 786 958 l 786 796 l 632 796 l 632 958 l 786 958 m 1129 0 l 931 0 l 653 344 l 653 0 l 489 0 l 489 344 l 211 0 l 13 0 l 314 378 l 15 706 l 218 706 l 489 413 l 489 706 l 653 706 l 653 413 l 924 706 l 1126 706 l 828 378 l 1129 0 z "},"ӟ":{"ha":719,"x_min":61,"x_max":658,"o":"m 297 958 l 297 796 l 144 796 l 144 958 l 297 958 m 575 958 l 575 796 l 421 796 l 421 958 l 575 958 m 574 369 q 658 215 658 325 l 658 204 q 581 40 658 99 q 361 -19 503 -19 q 140 41 218 -19 q 61 213 61 101 l 61 236 l 225 236 l 225 208 q 261 144 225 167 q 364 121 297 121 q 460 142 428 121 q 493 203 493 164 l 493 218 q 472 272 493 256 q 401 289 450 289 l 275 289 l 275 428 l 388 428 q 456 444 435 428 q 478 496 478 460 l 478 508 q 357 585 478 585 q 229 501 229 585 l 229 476 l 67 476 l 67 497 q 142 665 67 606 q 356 725 218 725 q 566 669 489 725 q 643 515 643 613 l 643 503 q 574 369 643 415 z "},"ӡ":{"ha":722,"x_min":61,"x_max":661,"o":"m 376 293 q 479 278 429 293 q 570 231 529 264 q 636 144 611 199 q 661 17 661 90 l 661 -44 q 580 -259 661 -179 q 360 -339 499 -339 q 142 -261 224 -339 q 61 -53 61 -183 l 61 -12 l 228 -12 l 228 -57 q 263 -152 228 -118 q 361 -186 299 -186 q 462 -149 428 -186 q 496 -42 496 -112 l 496 7 q 463 106 496 71 q 369 140 431 140 l 165 140 l 165 293 l 407 553 l 93 553 l 93 706 l 610 706 l 610 553 l 368 293 l 376 293 z "},"ӣ":{"ha":794,"x_min":88,"x_max":707,"o":"m 632 956 l 632 817 l 163 817 l 163 956 l 632 956 m 538 706 l 707 706 l 707 0 l 542 0 l 542 453 l 257 0 l 88 0 l 88 706 l 251 706 l 251 251 l 538 706 z "},"ӥ":{"ha":794,"x_min":88,"x_max":707,"o":"m 335 958 l 335 796 l 182 796 l 182 958 l 335 958 m 613 958 l 613 796 l 458 796 l 458 958 l 613 958 m 538 706 l 707 706 l 707 0 l 542 0 l 542 453 l 257 0 l 88 0 l 88 706 l 251 706 l 251 251 l 538 706 z "},"ӧ":{"ha":747,"x_min":61,"x_max":685,"o":"m 158 796 l 158 958 l 311 958 l 311 796 l 158 796 m 435 796 l 435 958 l 589 958 l 589 796 l 435 796 m 374 -19 q 143 61 225 -19 q 61 281 61 142 l 61 425 q 143 644 61 564 q 372 725 225 725 q 603 644 521 725 q 685 425 685 564 l 685 281 q 603 61 685 142 q 374 -19 521 -19 m 372 133 q 519 286 519 133 l 519 419 q 374 572 519 572 q 226 419 226 572 l 226 286 q 372 133 226 133 z "},"ө":{"ha":747,"x_min":61,"x_max":685,"o":"m 372 725 q 603 644 521 725 q 685 425 685 564 l 685 281 q 603 61 685 142 q 374 -19 521 -19 q 143 61 225 -19 q 61 281 61 142 l 61 425 q 143 644 61 564 q 372 725 225 725 m 374 572 q 226 436 235 572 l 519 436 q 374 572 511 572 m 372 133 q 519 285 519 133 l 226 285 q 372 133 226 133 z "},"ӫ":{"ha":747,"x_min":61,"x_max":685,"o":"m 311 958 l 311 796 l 158 796 l 158 958 l 311 958 m 589 958 l 589 796 l 435 796 l 435 958 l 589 958 m 372 725 q 603 644 521 725 q 685 425 685 564 l 685 281 q 603 61 685 142 q 374 -19 521 -19 q 143 61 225 -19 q 61 281 61 142 l 61 425 q 143 644 61 564 q 372 725 225 725 m 374 572 q 226 436 235 572 l 519 436 q 374 572 511 572 m 372 133 q 519 285 519 133 l 226 285 q 372 133 226 133 z "},"ӭ":{"ha":729,"x_min":61,"x_max":668,"o":"m 303 958 l 303 796 l 150 796 l 150 958 l 303 958 m 581 958 l 581 796 l 426 796 l 426 958 l 581 958 m 361 725 q 587 644 506 725 q 668 425 668 564 l 668 281 q 587 61 668 142 q 360 -19 506 -19 q 142 59 224 -19 q 61 268 61 138 l 61 285 l 228 285 l 228 258 q 263 162 228 196 q 361 128 299 128 q 503 279 503 128 l 503 285 l 321 285 l 321 436 l 503 436 q 481 521 501 488 q 426 566 460 554 q 360 578 392 578 q 263 544 299 578 q 228 447 228 510 l 228 421 l 61 421 l 61 438 q 142 647 61 568 q 361 725 224 725 z "},"ӯ":{"ha":764,"x_min":82,"x_max":678,"o":"m 618 956 l 618 817 l 149 817 l 149 956 l 618 956 m 513 706 l 678 706 l 678 -67 q 638 -215 678 -154 q 533 -308 599 -276 q 375 -339 467 -339 q 270 -326 322 -339 q 177 -284 218 -314 q 110 -208 136 -254 q 82 -101 85 -162 l 247 -101 q 285 -163 251 -140 q 372 -186 319 -186 q 452 -168 418 -186 q 499 -120 486 -150 q 513 -61 513 -90 l 513 32 q 433 -7 478 6 q 344 -19 388 -19 q 151 58 221 -19 q 82 294 82 135 l 82 706 l 247 706 l 247 294 q 281 175 247 215 q 378 135 314 135 q 451 155 418 135 q 497 208 483 175 q 513 274 511 242 l 513 706 z "},"ӱ":{"ha":764,"x_min":82,"x_max":678,"o":"m 321 958 l 321 796 l 168 796 l 168 958 l 321 958 m 599 958 l 599 796 l 444 796 l 444 958 l 599 958 m 513 706 l 678 706 l 678 -67 q 638 -215 678 -154 q 533 -308 599 -276 q 375 -339 467 -339 q 270 -326 322 -339 q 177 -284 218 -314 q 110 -208 136 -254 q 82 -101 85 -162 l 247 -101 q 285 -163 251 -140 q 372 -186 319 -186 q 452 -168 418 -186 q 499 -120 486 -150 q 513 -61 513 -90 l 513 32 q 433 -7 478 6 q 344 -19 388 -19 q 151 58 221 -19 q 82 294 82 135 l 82 706 l 247 706 l 247 294 q 281 175 247 215 q 378 135 314 135 q 451 155 418 135 q 497 208 483 175 q 513 274 511 242 l 513 706 z "},"ӳ":{"ha":764,"x_min":82,"x_max":696,"o":"m 422 958 l 319 775 l 181 775 l 272 958 l 422 958 m 696 958 l 593 775 l 454 775 l 546 958 l 696 958 m 513 274 l 513 706 l 678 706 l 678 -67 q 638 -215 678 -154 q 533 -308 599 -276 q 375 -339 467 -339 q 270 -326 322 -339 q 177 -284 218 -314 q 110 -208 136 -254 q 82 -101 85 -162 l 247 -101 q 285 -163 251 -140 q 372 -186 319 -186 q 452 -168 418 -186 q 499 -120 486 -150 q 513 -61 513 -90 l 513 32 q 433 -7 478 6 q 344 -19 388 -19 q 151 58 221 -19 q 82 294 82 135 l 82 706 l 247 706 l 247 294 q 281 175 247 215 q 378 135 314 135 q 451 155 418 135 q 497 208 483 175 q 513 274 511 242 z "},"ӵ":{"ha":763,"x_min":81,"x_max":675,"o":"m 319 958 l 319 796 l 167 796 l 167 958 l 319 958 m 597 958 l 597 796 l 443 796 l 443 958 l 597 958 m 510 706 l 675 706 l 675 0 l 510 0 l 510 235 q 435 199 479 213 q 340 185 392 185 q 147 254 214 185 q 81 456 81 324 l 81 706 l 246 706 l 246 486 q 277 375 246 411 q 372 339 308 339 q 429 350 399 339 q 482 391 460 361 q 510 463 504 421 l 510 706 z "},"ӷ":{"ha":589,"x_min":88,"x_max":561,"o":"m 561 553 l 251 553 l 251 153 l 346 153 l 346 -187 l 181 -187 l 181 0 l 88 0 l 88 706 l 561 706 l 561 553 z "},"ӹ":{"ha":1004,"x_min":88,"x_max":918,"o":"m 440 958 l 440 796 l 288 796 l 288 958 l 440 958 m 564 796 l 564 958 l 718 958 l 718 796 l 564 796 m 418 475 q 602 417 538 475 q 667 253 667 360 l 667 221 q 602 58 667 115 q 418 0 538 0 l 88 0 l 88 706 l 251 706 l 251 475 l 418 475 m 753 706 l 918 706 l 918 0 l 753 0 l 753 706 m 501 231 l 501 243 q 410 322 501 322 l 251 322 l 251 153 l 410 153 q 478 173 454 153 q 501 231 501 193 z "},"ӽ":{"ha":696,"x_min":14,"x_max":682,"o":"m 636 107 q 669 39 657 76 q 682 -35 682 1 q 629 -166 682 -115 q 494 -217 576 -217 l 385 -217 l 385 -64 l 463 -64 q 502 -49 488 -64 q 517 -12 517 -35 q 497 40 517 14 l 353 239 l 196 0 l 18 0 l 258 369 l 14 706 l 201 706 l 353 496 l 499 706 l 681 706 l 447 368 l 636 107 z "},"ԑ":{"ha":719,"x_min":61,"x_max":658,"o":"m 494 236 l 658 236 l 658 213 q 580 41 658 101 q 358 -19 501 -19 q 139 40 217 -19 q 61 204 61 99 l 61 215 q 146 369 61 325 q 76 503 76 415 l 76 515 q 153 669 76 613 q 364 725 231 725 q 577 665 501 725 q 653 497 653 606 l 653 476 l 490 476 l 490 501 q 363 585 490 585 q 242 508 242 585 l 242 496 q 263 444 242 460 q 332 428 285 428 l 444 428 l 444 289 l 318 289 q 248 272 269 289 q 226 218 226 256 l 226 203 q 259 142 226 164 q 356 121 292 121 q 458 144 422 121 q 494 208 494 167 l 494 236 z "},"ԓ":{"ha":800,"x_min":28,"x_max":713,"o":"m 713 706 l 713 -61 q 683 -203 713 -146 q 600 -290 654 -260 q 468 -319 546 -319 l 393 -319 l 393 -167 l 422 -167 q 518 -135 489 -167 q 547 -17 547 -103 l 547 553 l 347 553 l 314 233 q 251 52 301 104 q 90 0 201 0 l 28 0 l 28 153 l 50 153 q 125 182 101 153 q 156 285 149 211 l 199 706 l 713 706 z "},"ԝ":{"ha":957,"x_min":14,"x_max":943,"o":"m 775 706 l 943 706 l 771 0 l 600 0 l 479 385 l 357 0 l 186 0 l 14 706 l 182 706 l 288 172 l 413 706 l 543 706 l 669 172 l 775 706 z "},"ҍ":{"ha":717,"x_min":0,"x_max":675,"o":"m 426 475 q 610 417 544 475 q 675 253 675 358 l 675 221 q 610 58 675 115 q 426 0 544 0 l 96 0 l 96 725 l 0 725 l 0 864 l 96 864 l 96 1069 l 260 1069 l 260 864 l 435 864 l 435 725 l 260 725 l 260 475 l 426 475 m 510 231 l 510 243 q 418 322 510 322 l 260 322 l 260 153 l 418 153 q 486 173 463 153 q 510 231 510 193 z "},"ҏ":{"ha":774,"x_min":88,"x_max":713,"o":"m 713 278 q 618 33 713 107 l 678 -69 l 550 -146 l 475 -18 l 435 -19 q 251 35 322 -19 l 251 -319 l 88 -319 l 88 706 l 199 706 l 226 650 q 435 725 301 725 q 594 689 533 725 q 683 588 654 653 q 713 428 713 524 l 713 278 m 401 135 q 509 172 471 135 q 547 285 547 210 l 547 419 q 509 533 547 494 q 401 571 471 571 q 317 551 353 571 q 267 499 282 532 q 251 432 253 465 l 251 274 q 267 207 253 240 q 317 154 282 174 q 401 135 353 135 z "},"Δ":{"ha":861,"x_min":38,"x_max":824,"o":"m 553 983 l 824 158 l 824 0 l 38 0 l 38 158 l 308 983 l 553 983 m 431 807 l 213 158 l 649 158 l 431 807 z "},"Ω":{"ha":922,"x_min":53,"x_max":868,"o":"m 789 158 l 868 158 l 868 0 l 507 0 l 507 158 q 628 212 589 169 q 668 324 668 254 l 668 678 q 463 844 668 844 q 254 678 254 844 l 254 324 q 293 212 254 254 q 414 158 332 169 l 414 0 l 53 0 l 53 158 l 132 158 q 97 228 110 188 q 83 310 83 269 l 83 688 q 108 817 83 758 q 182 917 133 875 q 302 981 231 958 q 463 1003 374 1003 q 739 917 640 1003 q 838 688 838 832 l 838 310 q 824 228 838 269 q 789 158 811 188 z "},"μ":{"ha":768,"x_min":81,"x_max":768,"o":"m 735 138 l 768 142 l 768 -12 q 699 -19 738 -19 q 546 67 589 -19 q 458 3 511 25 q 342 -19 404 -19 q 246 -1 286 -19 l 246 -319 l 81 -319 l 81 706 l 246 706 l 246 294 q 279 175 246 215 q 375 135 313 135 q 448 155 415 135 q 494 208 481 175 q 510 272 508 242 l 510 706 l 675 706 l 675 261 q 688 167 675 196 q 735 138 700 138 z "},"π":{"ha":801,"x_min":35,"x_max":764,"o":"m 764 553 l 669 553 l 669 261 q 682 167 669 196 q 729 138 694 138 l 763 142 l 763 -12 q 693 -19 732 -19 q 551 44 599 -19 q 504 240 504 107 l 504 553 l 283 553 l 283 0 l 118 0 l 118 553 l 35 553 l 35 706 l 764 706 l 764 553 z "},"¹":{"ha":443,"x_min":88,"x_max":374,"o":"m 293 683 l 374 683 l 374 574 l 88 574 l 88 683 l 171 683 l 171 958 l 88 958 l 88 1068 l 293 1068 l 293 683 z "},"²":{"ha":443,"x_min":50,"x_max":410,"o":"m 410 913 q 375 826 410 867 q 267 743 340 785 q 188 694 193 701 q 183 683 183 686 l 404 683 l 404 574 l 50 574 l 50 683 q 74 742 50 711 q 161 812 97 772 q 244 865 225 851 q 276 892 264 878 q 288 919 288 907 l 288 933 q 272 960 288 951 q 236 968 257 968 q 181 921 181 968 l 181 900 l 58 900 l 58 915 q 87 1008 58 968 q 158 1064 115 1049 q 238 1079 200 1079 q 361 1040 313 1079 q 410 935 410 1000 l 410 913 z "},"³":{"ha":443,"x_min":49,"x_max":417,"o":"m 417 931 l 417 901 q 386 822 417 857 q 407 786 399 807 q 415 744 415 765 l 415 710 q 364 603 415 643 q 235 563 313 563 q 152 576 196 563 q 78 628 108 590 q 49 715 49 665 l 49 732 l 171 732 l 171 708 q 188 682 171 692 q 236 672 204 672 q 294 704 294 672 l 294 746 q 244 769 294 769 l 160 769 l 160 876 l 244 876 q 294 901 294 876 l 294 936 q 238 968 294 968 q 171 933 171 968 l 171 906 l 49 906 l 49 926 q 66 994 49 958 q 129 1055 83 1031 q 235 1079 175 1079 q 365 1038 314 1079 q 417 931 417 997 z "},"⁄":{"ha":207,"x_min":-133,"x_max":340,"o":"m -133 0 l 203 986 l 340 986 l 4 0 l -133 0 z "},"½":{"ha":1115,"x_min":88,"x_max":1060,"o":"m 646 986 l 783 986 l 447 0 l 310 0 l 646 986 m 374 600 l 374 490 l 88 490 l 88 600 l 171 600 l 171 875 l 88 875 l 88 985 l 293 985 l 293 600 l 374 600 m 1060 339 q 1025 252 1060 293 q 917 169 990 211 q 838 120 843 128 q 833 110 833 113 l 1054 110 l 1054 0 l 700 0 l 700 110 q 724 168 700 138 q 811 238 747 199 q 894 291 875 278 q 926 319 914 304 q 938 346 938 333 l 938 360 q 922 386 938 378 q 886 394 907 394 q 831 347 831 394 l 831 326 l 708 326 l 708 342 q 737 435 708 394 q 808 490 765 475 q 888 506 850 506 q 1011 466 963 506 q 1060 361 1060 426 l 1060 339 z "},"⅓":{"ha":1115,"x_min":88,"x_max":1067,"o":"m 646 986 l 783 986 l 447 0 l 310 0 l 646 986 m 374 600 l 374 490 l 88 490 l 88 600 l 171 600 l 171 875 l 88 875 l 88 985 l 293 985 l 293 600 l 374 600 m 1067 357 l 1067 328 q 1036 249 1067 283 q 1057 213 1049 233 q 1065 171 1065 192 l 1065 136 q 1014 29 1065 69 q 885 -11 963 -11 q 802 3 846 -11 q 728 54 758 17 q 699 142 699 92 l 699 158 l 821 158 l 821 135 q 838 108 821 118 q 886 99 854 99 q 944 131 944 99 l 944 172 q 894 196 944 196 l 810 196 l 810 303 l 894 303 q 944 328 944 303 l 944 363 q 888 394 944 394 q 821 360 821 394 l 821 332 l 699 332 l 699 353 q 716 421 699 385 q 779 481 733 457 q 885 506 825 506 q 1015 465 964 506 q 1067 357 1067 424 z "},"⅔":{"ha":1115,"x_min":50,"x_max":1067,"o":"m 404 600 l 404 490 l 50 490 l 50 600 q 74 658 50 628 q 161 728 97 689 q 244 781 225 768 q 276 809 264 794 q 288 836 288 824 l 288 850 q 272 876 288 868 q 236 885 257 885 q 181 838 181 885 l 181 817 l 58 817 l 58 832 q 87 925 58 885 q 158 981 115 965 q 238 996 200 996 q 361 956 313 996 q 410 851 410 917 l 410 829 q 375 742 410 783 q 267 660 340 701 q 188 610 193 618 q 183 600 183 603 l 404 600 m 646 986 l 783 986 l 447 0 l 310 0 l 646 986 m 1067 357 l 1067 328 q 1036 249 1067 283 q 1057 213 1049 233 q 1065 171 1065 192 l 1065 136 q 1014 29 1065 69 q 885 -11 963 -11 q 802 3 846 -11 q 728 54 758 17 q 699 142 699 92 l 699 158 l 821 158 l 821 135 q 838 108 821 118 q 886 99 854 99 q 944 131 944 99 l 944 172 q 894 196 944 196 l 810 196 l 810 303 l 894 303 q 944 328 944 303 l 944 363 q 888 394 944 394 q 821 360 821 394 l 821 332 l 699 332 l 699 353 q 716 421 699 385 q 779 481 733 457 q 885 506 825 506 q 1015 465 964 506 q 1067 357 1067 424 z "},"¼":{"ha":1115,"x_min":88,"x_max":1053,"o":"m 646 986 l 783 986 l 447 0 l 310 0 l 646 986 m 374 600 l 374 490 l 88 490 l 88 600 l 171 600 l 171 875 l 88 875 l 88 985 l 293 985 l 293 600 l 374 600 m 931 322 l 1053 322 l 1053 0 l 931 0 l 931 101 l 710 101 l 710 211 l 822 494 l 956 494 l 843 211 l 931 211 l 931 322 z "},"¾":{"ha":1115,"x_min":49,"x_max":1053,"o":"m 415 626 q 364 519 415 560 q 235 479 313 479 q 152 493 196 479 q 78 544 108 507 q 49 632 49 582 l 49 649 l 171 649 l 171 625 q 188 599 171 608 q 236 589 204 589 q 294 621 294 589 l 294 663 q 244 686 294 686 l 160 686 l 160 793 l 244 793 q 294 818 294 793 l 294 853 q 238 885 294 885 q 171 850 171 885 l 171 822 l 49 822 l 49 843 q 66 911 49 875 q 129 972 83 947 q 235 996 175 996 q 365 955 314 996 q 417 847 417 914 l 417 818 q 386 739 417 774 q 407 703 399 724 q 415 661 415 682 l 415 626 m 646 986 l 783 986 l 447 0 l 310 0 l 646 986 m 931 322 l 1053 322 l 1053 0 l 931 0 l 931 101 l 710 101 l 710 211 l 822 494 l 956 494 l 843 211 l 931 211 l 931 322 z "},"⅕":{"ha":1115,"x_min":88,"x_max":1056,"o":"m 646 986 l 783 986 l 447 0 l 310 0 l 646 986 m 374 600 l 374 490 l 88 490 l 88 600 l 171 600 l 171 875 l 88 875 l 88 985 l 293 985 l 293 600 l 374 600 m 919 317 q 980 303 947 317 q 1034 256 1013 290 q 1056 174 1056 221 l 1056 135 q 1040 69 1056 104 q 981 12 1024 35 q 883 -11 939 -11 q 806 2 847 -11 q 738 51 765 15 q 710 135 710 88 l 710 168 l 832 168 l 832 125 q 845 104 832 113 q 882 96 858 96 q 919 104 906 96 q 933 125 933 113 l 933 183 q 919 210 933 210 l 722 210 l 722 494 l 1036 494 l 1036 385 l 844 385 l 844 317 l 919 317 z "},"⅖":{"ha":1115,"x_min":50,"x_max":1056,"o":"m 404 600 l 404 490 l 50 490 l 50 600 q 74 658 50 628 q 161 728 97 689 q 244 781 225 768 q 276 809 264 794 q 288 836 288 824 l 288 850 q 272 876 288 868 q 236 885 257 885 q 181 838 181 885 l 181 817 l 58 817 l 58 832 q 87 925 58 885 q 158 981 115 965 q 238 996 200 996 q 361 956 313 996 q 410 851 410 917 l 410 829 q 375 742 410 783 q 267 660 340 701 q 188 610 193 618 q 183 600 183 603 l 404 600 m 646 986 l 783 986 l 447 0 l 310 0 l 646 986 m 919 317 q 980 303 947 317 q 1034 256 1013 290 q 1056 174 1056 221 l 1056 135 q 1040 69 1056 104 q 981 12 1024 35 q 883 -11 939 -11 q 806 2 847 -11 q 738 51 765 15 q 710 135 710 88 l 710 168 l 832 168 l 832 125 q 845 104 832 113 q 882 96 858 96 q 919 104 906 96 q 933 125 933 113 l 933 183 q 919 210 933 210 l 722 210 l 722 494 l 1036 494 l 1036 385 l 844 385 l 844 317 l 919 317 z "},"⅗":{"ha":1115,"x_min":49,"x_max":1056,"o":"m 415 626 q 364 519 415 560 q 235 479 313 479 q 152 493 196 479 q 78 544 108 507 q 49 632 49 582 l 49 649 l 171 649 l 171 625 q 188 599 171 608 q 236 589 204 589 q 294 621 294 589 l 294 663 q 244 686 294 686 l 160 686 l 160 793 l 244 793 q 294 818 294 793 l 294 853 q 238 885 294 885 q 171 850 171 885 l 171 822 l 49 822 l 49 843 q 66 911 49 875 q 129 972 83 947 q 235 996 175 996 q 365 955 314 996 q 417 847 417 914 l 417 818 q 386 739 417 774 q 407 703 399 724 q 415 661 415 682 l 415 626 m 646 986 l 783 986 l 447 0 l 310 0 l 646 986 m 919 317 q 980 303 947 317 q 1034 256 1013 290 q 1056 174 1056 221 l 1056 135 q 1040 69 1056 104 q 981 12 1024 35 q 883 -11 939 -11 q 806 2 847 -11 q 738 51 765 15 q 710 135 710 88 l 710 168 l 832 168 l 832 125 q 845 104 832 113 q 882 96 858 96 q 919 104 906 96 q 933 125 933 113 l 933 183 q 919 210 933 210 l 722 210 l 722 494 l 1036 494 l 1036 385 l 844 385 l 844 317 l 919 317 z "},"⅘":{"ha":1115,"x_min":60,"x_max":1056,"o":"m 646 986 l 783 986 l 447 0 l 310 0 l 646 986 m 403 490 l 281 490 l 281 592 l 60 592 l 60 701 l 172 985 l 306 985 l 193 701 l 281 701 l 281 813 l 403 813 l 403 490 m 919 317 q 980 303 947 317 q 1034 256 1013 290 q 1056 174 1056 221 l 1056 135 q 1040 69 1056 104 q 981 12 1024 35 q 883 -11 939 -11 q 806 2 847 -11 q 738 51 765 15 q 710 135 710 88 l 710 168 l 832 168 l 832 125 q 845 104 832 113 q 882 96 858 96 q 919 104 906 96 q 933 125 933 113 l 933 183 q 919 210 933 210 l 722 210 l 722 494 l 1036 494 l 1036 385 l 844 385 l 844 317 l 919 317 z "},"⅙":{"ha":1115,"x_min":88,"x_max":1065,"o":"m 646 986 l 783 986 l 447 0 l 310 0 l 646 986 m 374 600 l 374 490 l 88 490 l 88 600 l 171 600 l 171 875 l 88 875 l 88 985 l 293 985 l 293 600 l 374 600 m 907 322 q 984 306 946 322 q 1044 258 1022 290 q 1065 189 1065 226 l 1065 133 q 1035 51 1065 86 q 962 2 1004 15 q 883 -11 919 -11 q 780 13 825 -11 q 717 73 735 38 q 699 143 699 108 l 699 346 q 716 419 699 382 q 780 481 733 456 q 882 506 826 506 q 960 492 918 506 q 1034 440 1003 478 q 1065 346 1065 401 l 944 346 q 931 381 944 364 q 882 399 917 399 q 838 385 854 399 q 821 347 821 371 l 821 301 q 907 322 858 322 m 943 135 l 943 193 q 925 214 943 206 q 883 222 907 222 q 838 213 854 222 q 821 186 822 203 l 821 133 q 838 106 821 117 q 883 96 856 96 q 926 106 908 96 q 943 135 943 117 z "},"⅚":{"ha":1115,"x_min":60,"x_max":1065,"o":"m 646 986 l 783 986 l 447 0 l 310 0 l 646 986 m 406 625 q 390 560 406 594 q 331 502 374 525 q 233 479 289 479 q 156 492 197 479 q 88 542 115 506 q 60 625 60 578 l 60 658 l 182 658 l 182 615 q 195 594 182 603 q 232 586 208 586 q 269 594 256 586 q 283 615 283 603 l 283 674 q 269 700 283 700 l 72 700 l 72 985 l 386 985 l 386 875 l 194 875 l 194 807 l 269 807 q 330 794 297 807 q 384 746 363 781 q 406 664 406 711 l 406 625 m 907 322 q 984 306 946 322 q 1044 258 1022 290 q 1065 189 1065 226 l 1065 133 q 1035 51 1065 86 q 962 2 1004 15 q 883 -11 919 -11 q 780 13 825 -11 q 717 73 735 38 q 699 143 699 108 l 699 346 q 716 419 699 382 q 780 481 733 456 q 882 506 826 506 q 960 492 918 506 q 1034 440 1003 478 q 1065 346 1065 401 l 944 346 q 931 381 944 364 q 882 399 917 399 q 838 385 854 399 q 821 347 821 371 l 821 301 q 907 322 858 322 m 943 135 l 943 193 q 925 214 943 206 q 883 222 907 222 q 838 213 854 222 q 821 186 822 203 l 821 133 q 838 106 821 117 q 883 96 856 96 q 926 106 908 96 q 943 135 943 117 z "},"⅐":{"ha":1115,"x_min":88,"x_max":1086,"o":"m 646 986 l 783 986 l 447 0 l 310 0 l 646 986 m 374 600 l 374 490 l 88 490 l 88 600 l 171 600 l 171 875 l 88 875 l 88 985 l 293 985 l 293 600 l 374 600 m 746 494 l 1086 494 l 1086 385 l 893 0 l 760 0 l 953 385 l 746 385 l 746 494 z "},"⅛":{"ha":1115,"x_min":88,"x_max":1072,"o":"m 646 986 l 783 986 l 447 0 l 310 0 l 646 986 m 374 600 l 374 490 l 88 490 l 88 600 l 171 600 l 171 875 l 88 875 l 88 985 l 293 985 l 293 600 l 374 600 m 1031 250 q 1061 210 1050 233 q 1072 161 1072 188 l 1072 121 q 1019 25 1072 61 q 882 -11 967 -11 q 744 26 797 -11 q 692 121 692 63 l 692 161 q 700 205 692 181 q 733 250 708 229 q 707 288 717 265 q 697 332 697 310 l 697 368 q 727 447 697 413 q 801 493 757 481 q 882 506 844 506 q 963 493 919 506 q 1037 447 1007 481 q 1067 368 1067 413 l 1067 332 q 1031 250 1067 282 m 819 329 q 837 304 819 314 q 883 294 854 294 q 928 304 911 294 q 944 329 944 314 l 944 365 q 928 393 944 383 q 882 403 911 403 q 836 393 853 403 q 819 365 819 383 l 819 329 m 950 124 l 950 165 q 932 194 950 183 q 883 204 914 204 q 833 194 851 204 q 814 165 814 183 l 814 124 q 832 101 814 110 q 882 92 850 92 q 932 101 914 92 q 950 124 950 110 z "},"⅜":{"ha":1115,"x_min":49,"x_max":1072,"o":"m 415 626 q 364 519 415 560 q 235 479 313 479 q 152 493 196 479 q 78 544 108 507 q 49 632 49 582 l 49 649 l 171 649 l 171 625 q 188 599 171 608 q 236 589 204 589 q 294 621 294 589 l 294 663 q 244 686 294 686 l 160 686 l 160 793 l 244 793 q 294 818 294 793 l 294 853 q 238 885 294 885 q 171 850 171 885 l 171 822 l 49 822 l 49 843 q 66 911 49 875 q 129 972 83 947 q 235 996 175 996 q 365 955 314 996 q 417 847 417 914 l 417 818 q 386 739 417 774 q 407 703 399 724 q 415 661 415 682 l 415 626 m 646 986 l 783 986 l 447 0 l 310 0 l 646 986 m 1031 250 q 1061 210 1050 233 q 1072 161 1072 188 l 1072 121 q 1019 25 1072 61 q 882 -11 967 -11 q 744 26 797 -11 q 692 121 692 63 l 692 161 q 700 205 692 181 q 733 250 708 229 q 707 288 717 265 q 697 332 697 310 l 697 368 q 727 447 697 413 q 801 493 757 481 q 882 506 844 506 q 963 493 919 506 q 1037 447 1007 481 q 1067 368 1067 413 l 1067 332 q 1031 250 1067 282 m 819 329 q 837 304 819 314 q 883 294 854 294 q 928 304 911 294 q 944 329 944 314 l 944 365 q 928 393 944 383 q 882 403 911 403 q 836 393 853 403 q 819 365 819 383 l 819 329 m 950 124 l 950 165 q 932 194 950 183 q 883 204 914 204 q 833 194 851 204 q 814 165 814 183 l 814 124 q 832 101 814 110 q 882 92 850 92 q 932 101 914 92 q 950 124 950 110 z "},"⅝":{"ha":1115,"x_min":60,"x_max":1072,"o":"m 646 986 l 783 986 l 447 0 l 310 0 l 646 986 m 406 625 q 390 560 406 594 q 331 502 374 525 q 233 479 289 479 q 156 492 197 479 q 88 542 115 506 q 60 625 60 578 l 60 658 l 182 658 l 182 615 q 195 594 182 603 q 232 586 208 586 q 269 594 256 586 q 283 615 283 603 l 283 674 q 269 700 283 700 l 72 700 l 72 985 l 386 985 l 386 875 l 194 875 l 194 807 l 269 807 q 330 794 297 807 q 384 746 363 781 q 406 664 406 711 l 406 625 m 1031 250 q 1061 210 1050 233 q 1072 161 1072 188 l 1072 121 q 1019 25 1072 61 q 882 -11 967 -11 q 744 26 797 -11 q 692 121 692 63 l 692 161 q 700 205 692 181 q 733 250 708 229 q 707 288 717 265 q 697 332 697 310 l 697 368 q 727 447 697 413 q 801 493 757 481 q 882 506 844 506 q 963 493 919 506 q 1037 447 1007 481 q 1067 368 1067 413 l 1067 332 q 1031 250 1067 282 m 819 329 q 837 304 819 314 q 883 294 854 294 q 928 304 911 294 q 944 329 944 314 l 944 365 q 928 393 944 383 q 882 403 911 403 q 836 393 853 403 q 819 365 819 383 l 819 329 m 950 124 l 950 165 q 932 194 950 183 q 883 204 914 204 q 833 194 851 204 q 814 165 814 183 l 814 124 q 832 101 814 110 q 882 92 850 92 q 932 101 914 92 q 950 124 950 110 z "},"⅞":{"ha":1115,"x_min":96,"x_max":1072,"o":"m 646 986 l 783 986 l 447 0 l 310 0 l 646 986 m 436 985 l 436 875 l 243 490 l 110 490 l 303 875 l 96 875 l 96 985 l 436 985 m 1031 250 q 1061 210 1050 233 q 1072 161 1072 188 l 1072 121 q 1019 25 1072 61 q 882 -11 967 -11 q 744 26 797 -11 q 692 121 692 63 l 692 161 q 700 205 692 181 q 733 250 708 229 q 707 288 717 265 q 697 332 697 310 l 697 368 q 727 447 697 413 q 801 493 757 481 q 882 506 844 506 q 963 493 919 506 q 1037 447 1007 481 q 1067 368 1067 413 l 1067 332 q 1031 250 1067 282 m 819 329 q 837 304 819 314 q 883 294 854 294 q 928 304 911 294 q 944 329 944 314 l 944 365 q 928 393 944 383 q 882 403 911 403 q 836 393 853 403 q 819 365 819 383 l 819 329 m 950 124 l 950 165 q 932 194 950 183 q 883 204 914 204 q 833 194 851 204 q 814 165 814 183 l 814 124 q 832 101 814 110 q 882 92 850 92 q 932 101 914 92 q 950 124 950 110 z "},"⅑":{"ha":1115,"x_min":88,"x_max":1065,"o":"m 646 986 l 783 986 l 447 0 l 310 0 l 646 986 m 374 600 l 374 490 l 88 490 l 88 600 l 171 600 l 171 875 l 88 875 l 88 985 l 293 985 l 293 600 l 374 600 m 882 506 q 1013 463 961 506 q 1065 353 1065 419 l 1065 149 q 1048 76 1065 113 q 985 14 1031 39 q 883 -11 939 -11 q 753 33 806 -11 q 700 147 700 76 l 822 147 q 839 110 822 124 q 882 96 856 96 q 927 110 910 96 q 944 147 944 124 l 944 188 q 857 167 906 167 q 781 183 819 167 q 722 231 743 199 q 700 300 700 263 l 700 361 q 731 443 700 407 q 803 492 761 479 q 882 506 846 506 m 881 267 q 926 277 908 267 q 944 303 943 288 l 944 363 q 926 389 944 379 q 882 399 908 399 q 839 388 857 399 q 821 360 821 378 l 821 296 q 840 274 821 282 q 881 267 858 267 z "},"*":{"ha":488,"x_min":35,"x_max":453,"o":"m 453 865 l 318 840 l 414 742 l 308 661 l 244 786 l 179 661 l 74 742 l 169 840 l 35 865 l 75 994 l 199 932 l 179 1069 l 308 1069 l 289 932 l 413 994 l 453 865 z "},"\\":{"ha":524,"x_min":38,"x_max":486,"o":"m 322 -69 l 38 1033 l 201 1033 l 486 -69 l 322 -69 z "},"·":{"ha":297,"x_min":65,"x_max":231,"o":"m 65 382 l 65 572 l 231 572 l 231 382 l 65 382 z "},"•":{"ha":426,"x_min":64,"x_max":363,"o":"m 213 576 q 280 563 244 576 q 339 510 315 549 q 363 419 363 471 q 339 328 363 367 q 280 276 315 290 q 213 261 244 261 q 146 276 181 261 q 88 329 111 290 q 64 419 64 368 q 88 510 64 471 q 146 563 111 549 q 213 576 181 576 z "},":":{"ha":364,"x_min":99,"x_max":267,"o":"m 99 528 l 99 706 l 267 706 l 267 528 l 99 528 m 99 0 l 99 178 l 267 178 l 267 0 l 99 0 z "},",":{"ha":338,"x_min":85,"x_max":253,"o":"m 253 178 l 253 0 l 168 -214 l 97 -214 l 149 0 l 85 0 l 85 178 l 253 178 z "},"…":{"ha":986,"x_min":83,"x_max":903,"o":"m 83 0 l 83 178 l 253 178 l 253 0 l 83 0 m 408 0 l 408 178 l 578 178 l 578 0 l 408 0 m 733 0 l 733 178 l 903 178 l 903 0 l 733 0 z "},"!":{"ha":382,"x_min":106,"x_max":276,"o":"m 276 983 l 276 654 l 254 300 l 126 300 l 106 651 l 106 983 l 276 983 m 107 0 l 107 178 l 275 178 l 275 0 l 107 0 z "},"¡":{"ha":382,"x_min":106,"x_max":276,"o":"m 275 706 l 275 528 l 107 528 l 107 706 l 275 706 m 106 -278 l 106 51 l 128 406 l 256 406 l 276 54 l 276 -278 l 106 -278 z "},"#":{"ha":975,"x_min":44,"x_max":931,"o":"m 931 597 l 790 597 l 749 388 l 864 388 l 864 236 l 718 236 l 671 0 l 510 0 l 557 236 l 324 236 l 276 0 l 117 0 l 164 236 l 44 236 l 44 388 l 193 388 l 235 597 l 111 597 l 111 749 l 265 749 l 311 983 l 472 983 l 425 749 l 658 749 l 706 983 l 867 983 l 819 749 l 931 749 l 931 597 m 588 388 l 629 597 l 396 597 l 354 388 l 588 388 z "},".":{"ha":336,"x_min":83,"x_max":253,"o":"m 83 0 l 83 178 l 253 178 l 253 0 l 83 0 z "},"?":{"ha":879,"x_min":65,"x_max":806,"o":"m 333 300 l 333 347 q 346 431 333 394 q 377 492 358 468 q 421 535 396 515 q 501 582 446 554 q 576 622 557 610 q 608 649 594 635 q 628 681 621 663 q 635 721 635 699 q 584 812 635 779 q 446 844 533 844 q 284 800 338 844 q 231 674 231 756 l 231 638 l 65 638 l 65 678 q 165 914 65 825 q 438 1003 264 1003 q 711 926 617 1003 q 806 718 806 849 q 787 610 806 654 q 735 534 768 565 q 627 465 701 503 q 531 402 553 428 q 505 356 510 376 q 500 319 500 335 l 500 300 l 333 300 m 332 0 l 332 178 l 501 178 l 501 0 l 332 0 z "},"¿":{"ha":879,"x_min":74,"x_max":814,"o":"m 547 706 l 547 528 l 378 528 l 378 706 l 547 706 m 546 406 l 546 358 q 533 274 546 311 q 502 214 521 238 q 458 171 483 190 q 378 124 433 151 q 303 83 322 96 q 272 57 285 71 q 251 25 258 43 q 244 -15 244 7 q 295 -106 244 -74 q 433 -139 346 -139 q 595 -94 542 -139 q 649 32 649 -50 l 649 68 l 814 68 l 814 28 q 715 -208 814 -119 q 442 -297 615 -297 q 168 -220 263 -297 q 74 -12 74 -143 q 92 96 74 51 q 144 172 111 140 q 252 240 178 203 q 348 303 326 278 q 374 350 369 329 q 379 386 379 371 l 379 406 l 546 406 z "},"\"":{"ha":554,"x_min":58,"x_max":496,"o":"m 232 1069 l 206 763 l 83 763 l 58 1069 l 232 1069 m 496 1069 l 469 763 l 347 763 l 322 1069 l 496 1069 z "},"'":{"ha":290,"x_min":58,"x_max":232,"o":"m 232 1069 l 206 763 l 83 763 l 58 1069 l 232 1069 z "},";":{"ha":363,"x_min":101,"x_max":269,"o":"m 101 528 l 101 706 l 269 706 l 269 528 l 101 528 m 269 178 l 269 0 l 185 -214 l 114 -214 l 165 0 l 101 0 l 101 178 l 269 178 z "},"/":{"ha":524,"x_min":38,"x_max":486,"o":"m 322 1033 l 486 1033 l 201 -69 l 38 -69 l 322 1033 z "},"_":{"ha":631,"x_min":36,"x_max":594,"o":"m 36 -175 l 36 -43 l 594 -43 l 594 -175 l 36 -175 z "},"{":{"ha":443,"x_min":21,"x_max":429,"o":"m 288 601 q 206 421 288 476 q 288 240 288 363 l 288 -15 q 303 -60 288 -44 q 346 -76 319 -76 l 429 -76 l 429 -229 l 339 -229 q 181 -168 239 -229 q 122 -3 122 -107 l 122 253 q 100 319 122 294 q 44 343 78 343 l 21 343 l 21 497 l 44 497 q 100 522 78 497 q 122 588 122 546 l 122 843 q 181 1008 122 947 q 339 1069 239 1069 l 429 1069 l 429 917 l 346 917 q 303 901 319 917 q 288 856 288 885 l 288 601 z "},"}":{"ha":443,"x_min":14,"x_max":422,"o":"m 397 497 l 422 497 l 422 343 l 397 343 q 342 319 364 343 q 319 253 319 294 l 319 -3 q 262 -168 319 -107 q 104 -229 204 -229 l 14 -229 l 14 -76 l 97 -76 q 139 -61 124 -76 q 154 -15 154 -46 l 154 240 q 236 421 154 361 q 154 601 154 478 l 154 856 q 139 901 154 886 q 97 917 124 917 l 14 917 l 14 1069 l 104 1069 q 262 1008 204 1069 q 319 843 319 947 l 319 588 q 342 522 319 547 q 397 497 364 497 z "},"[":{"ha":431,"x_min":94,"x_max":406,"o":"m 406 917 l 260 917 l 260 -76 l 406 -76 l 406 -229 l 94 -229 l 94 1069 l 406 1069 l 406 917 z "},"]":{"ha":431,"x_min":25,"x_max":336,"o":"m 336 1069 l 336 -229 l 25 -229 l 25 -76 l 171 -76 l 171 917 l 25 917 l 25 1069 l 336 1069 z "},"(":{"ha":428,"x_min":90,"x_max":407,"o":"m 407 -229 q 174 -149 257 -229 q 90 74 90 -69 l 90 767 q 174 990 90 910 q 407 1069 257 1069 l 407 917 q 256 763 256 917 l 256 79 q 407 -76 256 -76 l 407 -229 z "},")":{"ha":429,"x_min":21,"x_max":339,"o":"m 21 -229 l 21 -76 q 174 79 174 -76 l 174 763 q 21 917 174 917 l 21 1069 q 255 990 171 1069 q 339 767 339 910 l 339 74 q 255 -149 339 -69 q 21 -229 171 -229 z "},"—":{"ha":826,"x_min":63,"x_max":764,"o":"m 63 308 l 63 453 l 764 453 l 764 308 l 63 308 z "},"–":{"ha":599,"x_min":63,"x_max":536,"o":"m 63 308 l 63 453 l 536 453 l 536 308 l 63 308 z "},"-":{"ha":467,"x_min":63,"x_max":406,"o":"m 63 310 l 63 457 l 406 457 l 406 310 l 63 310 z "},"­":{"ha":467,"x_min":63,"x_max":406,"o":"m 63 310 l 63 457 l 406 457 l 406 310 l 63 310 z "},"«":{"ha":814,"x_min":86,"x_max":724,"o":"m 86 269 l 86 439 l 403 678 l 403 508 l 197 356 l 403 200 l 403 31 l 86 269 m 724 678 l 724 508 l 518 356 l 724 200 l 724 31 l 407 269 l 407 439 l 724 678 z "},"»":{"ha":814,"x_min":90,"x_max":728,"o":"m 90 508 l 90 678 l 407 439 l 407 269 l 90 31 l 90 200 l 296 356 l 90 508 m 411 678 l 728 439 l 728 269 l 411 31 l 411 200 l 617 356 l 411 508 l 411 678 z "},"‹":{"ha":493,"x_min":86,"x_max":403,"o":"m 403 678 l 403 508 l 197 356 l 403 200 l 403 31 l 86 269 l 86 439 l 403 678 z "},"›":{"ha":493,"x_min":90,"x_max":407,"o":"m 90 678 l 407 439 l 407 269 l 90 31 l 90 200 l 296 356 l 90 508 l 90 678 z "},"„":{"ha":582,"x_min":93,"x_max":501,"o":"m 260 178 l 260 0 l 176 -193 l 104 -193 l 138 0 l 93 0 l 93 178 l 260 178 m 501 178 l 501 0 l 418 -193 l 346 -193 l 379 0 l 335 0 l 335 178 l 501 178 z "},"“":{"ha":547,"x_min":60,"x_max":468,"o":"m 60 699 l 60 876 l 143 1069 l 215 1069 l 182 876 l 226 876 l 226 699 l 60 699 m 301 699 l 301 876 l 385 1069 l 457 1069 l 424 876 l 468 876 l 468 699 l 301 699 z "},"”":{"ha":547,"x_min":79,"x_max":488,"o":"m 246 1069 l 246 892 l 163 699 l 90 699 l 124 892 l 79 892 l 79 1069 l 246 1069 m 488 1069 l 488 892 l 404 699 l 332 699 l 365 892 l 321 892 l 321 1069 l 488 1069 z "},"‘":{"ha":306,"x_min":60,"x_max":226,"o":"m 60 699 l 60 876 l 143 1069 l 215 1069 l 182 876 l 226 876 l 226 699 l 60 699 z "},"’":{"ha":306,"x_min":79,"x_max":246,"o":"m 246 1069 l 246 892 l 163 699 l 90 699 l 124 892 l 79 892 l 79 1069 l 246 1069 z "},"‚":{"ha":326,"x_min":90,"x_max":257,"o":"m 257 178 l 257 0 l 174 -193 l 101 -193 l 135 0 l 90 0 l 90 178 l 257 178 z "}," ":{"ha":332,"x_min":0,"x_max":0,"o":""}," ":{"ha":332,"x_min":0,"x_max":0,"o":""}," ":{"ha":115,"x_min":0,"x_max":0,"o":""},"¢":{"ha":721,"x_min":54,"x_max":661,"o":"m 661 558 l 494 558 l 494 579 q 459 676 494 642 q 361 710 424 710 q 255 671 290 710 q 219 557 219 632 l 219 424 q 255 310 219 349 q 361 271 290 271 q 458 306 422 271 q 494 401 494 340 l 494 422 l 661 422 l 661 406 q 603 222 661 296 q 443 126 544 149 l 443 -1 l 278 -1 l 278 126 q 113 225 171 149 q 54 418 54 301 l 54 563 q 113 757 54 681 q 278 854 171 833 l 278 982 l 443 982 l 443 854 q 603 758 544 832 q 661 575 661 685 l 661 558 z "},"¤":{"ha":714,"x_min":50,"x_max":664,"o":"m 624 446 q 588 311 624 368 l 664 218 l 553 132 l 476 225 q 357 206 422 206 q 236 225 292 206 l 160 132 l 50 218 l 126 311 q 90 446 90 368 l 90 524 q 125 654 90 597 l 50 746 l 160 836 l 236 743 q 357 763 290 763 q 478 743 424 763 l 554 836 l 664 746 l 589 654 q 624 524 624 597 l 624 446 m 235 444 q 267 363 235 390 q 357 335 299 335 q 447 363 415 335 q 478 444 478 390 l 478 524 q 447 606 478 578 q 357 633 415 633 q 267 606 299 633 q 235 524 235 578 l 235 444 z "},"$":{"ha":864,"x_min":50,"x_max":800,"o":"m 800 283 q 726 88 800 168 q 515 -14 651 7 l 515 -139 l 350 -139 l 350 -14 q 224 22 281 -4 q 129 89 168 49 q 70 181 90 129 q 50 293 50 233 l 50 329 l 221 329 l 221 283 q 283 177 221 217 q 435 138 346 138 q 572 174 515 138 q 628 275 628 210 q 605 340 628 313 q 539 388 582 368 q 397 434 496 407 q 246 483 299 461 q 156 535 193 506 q 95 611 118 565 q 72 719 72 657 q 107 858 72 800 q 202 952 142 917 q 350 999 263 988 l 350 1122 l 515 1122 l 515 996 q 713 900 646 975 q 781 711 781 825 l 781 667 l 610 667 l 610 715 q 592 772 610 742 q 528 824 575 803 q 419 844 481 844 q 342 834 383 844 q 272 794 300 824 q 243 724 243 764 q 258 678 243 700 q 310 638 274 656 q 441 593 346 621 q 591 545 536 565 q 691 493 646 525 q 760 424 736 461 q 792 350 785 386 q 800 283 800 314 z "},"€":{"ha":963,"x_min":14,"x_max":894,"o":"m 894 611 l 715 611 l 715 678 q 664 800 715 757 q 511 843 613 843 q 351 799 406 843 q 296 678 296 756 l 296 653 l 614 653 l 614 521 l 296 521 l 296 456 l 614 456 l 614 324 l 296 324 l 296 304 q 350 183 296 226 q 510 139 404 139 q 664 182 613 139 q 715 304 715 225 l 715 372 l 894 372 l 894 294 q 792 66 894 151 q 511 -19 690 -19 q 228 66 331 -19 q 125 294 125 151 l 125 324 l 14 324 l 14 456 l 125 456 l 125 521 l 14 521 l 14 653 l 125 653 l 125 688 q 151 816 125 757 q 226 916 176 875 q 349 979 276 957 q 510 1001 421 1001 q 671 979 599 1001 q 793 916 743 957 q 869 816 843 875 q 894 688 894 757 l 894 611 z "},"₽":{"ha":919,"x_min":24,"x_max":865,"o":"m 553 983 q 660 971 606 983 q 765 922 714 958 q 841 827 817 885 q 865 708 865 769 l 865 657 q 847 551 865 596 q 796 471 828 506 q 703 409 764 436 q 553 382 642 382 l 324 382 l 324 301 l 588 301 l 588 143 l 324 143 l 324 0 l 153 0 l 153 143 l 24 143 l 24 301 l 153 301 l 153 382 l 24 382 l 24 540 l 153 540 l 153 983 l 553 983 m 696 651 l 696 713 q 661 795 696 765 q 564 825 626 825 l 324 825 l 324 540 l 563 540 q 661 569 626 540 q 696 651 696 599 z "},"£":{"ha":915,"x_min":50,"x_max":847,"o":"m 847 613 l 669 613 l 669 679 q 626 801 669 758 q 503 844 583 844 q 373 801 418 844 q 328 679 328 758 l 328 521 l 610 521 l 610 363 l 328 363 l 328 158 l 833 158 l 833 0 l 328 0 l 328 -1 l 157 -1 l 157 0 l 50 0 l 50 158 l 157 158 l 157 363 l 50 363 l 50 521 l 157 521 l 157 689 q 181 817 157 758 q 251 917 206 875 q 360 981 296 958 q 503 1003 425 1003 q 644 981 581 1003 q 753 917 708 958 q 823 817 799 875 q 847 689 847 758 l 847 613 z "},"¥":{"ha":840,"x_min":24,"x_max":813,"o":"m 813 982 l 560 458 l 732 458 l 732 326 l 504 326 l 504 275 l 732 275 l 732 143 l 504 143 l 504 0 l 333 0 l 333 143 l 113 143 l 113 275 l 333 275 l 333 326 l 113 326 l 113 458 l 279 458 l 24 982 l 211 982 l 419 546 l 628 982 l 813 982 z "},"∕":{"ha":818,"x_min":-17,"x_max":835,"o":"m -17 0 l 690 983 l 835 983 l 128 0 l -17 0 z "},"+":{"ha":710,"x_min":64,"x_max":644,"o":"m 644 586 l 644 428 l 438 428 l 438 194 l 274 194 l 274 428 l 64 428 l 64 586 l 274 586 l 274 821 l 438 821 l 438 586 l 644 586 z "},"−":{"ha":707,"x_min":64,"x_max":642,"o":"m 64 428 l 64 586 l 642 586 l 642 428 l 64 428 z "},"×":{"ha":700,"x_min":64,"x_max":636,"o":"m 636 718 l 450 507 l 636 297 l 532 192 l 350 396 l 169 192 l 64 297 l 251 508 l 64 718 l 169 822 l 350 619 l 531 822 l 636 718 z "},"÷":{"ha":710,"x_min":64,"x_max":644,"o":"m 271 672 l 271 849 l 440 849 l 440 672 l 271 672 m 64 428 l 64 586 l 644 586 l 644 428 l 64 428 m 271 165 l 271 343 l 440 343 l 440 165 l 271 165 z "},"=":{"ha":707,"x_min":58,"x_max":636,"o":"m 58 589 l 58 747 l 636 747 l 636 589 l 58 589 m 58 267 l 58 425 l 636 425 l 636 267 l 58 267 z "},"≠":{"ha":707,"x_min":58,"x_max":636,"o":"m 636 589 l 468 589 l 414 425 l 636 425 l 636 267 l 361 267 l 297 75 l 136 75 l 200 267 l 58 267 l 58 425 l 253 425 l 307 589 l 58 589 l 58 747 l 360 747 l 424 939 l 585 939 l 521 747 l 636 747 l 636 589 z "},">":{"ha":642,"x_min":64,"x_max":578,"o":"m 154 814 l 578 507 l 154 200 l 65 322 l 310 507 l 64 692 l 154 814 z "},"<":{"ha":642,"x_min":64,"x_max":578,"o":"m 578 692 l 332 507 l 576 322 l 488 200 l 64 507 l 488 814 l 578 692 z "},"≥":{"ha":707,"x_min":64,"x_max":642,"o":"m 89 356 l 350 539 l 88 724 l 176 846 l 624 540 l 176 233 l 89 356 m 64 158 l 642 158 l 642 0 l 64 0 l 64 158 z "},"≤":{"ha":707,"x_min":65,"x_max":643,"o":"m 618 356 l 531 233 l 83 540 l 531 846 l 619 724 l 357 539 l 618 356 m 65 158 l 643 158 l 643 0 l 65 0 l 65 158 z "},"±":{"ha":710,"x_min":64,"x_max":644,"o":"m 438 640 l 644 640 l 644 482 l 438 482 l 438 249 l 274 249 l 274 482 l 64 482 l 64 640 l 274 640 l 274 875 l 438 875 l 438 640 m 64 0 l 64 158 l 644 158 l 644 0 l 64 0 z "},"≈":{"ha":717,"x_min":61,"x_max":656,"o":"m 231 764 q 364 722 281 764 q 453 693 425 693 q 497 710 483 693 q 511 761 511 726 l 656 761 q 644 665 656 717 q 593 576 632 613 q 486 539 554 539 q 435 545 465 539 q 347 579 406 551 q 265 608 292 608 q 222 590 238 608 q 206 533 206 571 l 61 533 q 79 658 61 606 q 135 737 97 710 q 231 764 174 764 m 231 489 q 364 447 281 489 q 453 418 425 418 q 497 435 483 418 q 511 486 511 451 l 656 486 q 644 390 656 442 q 593 301 632 338 q 486 264 554 264 q 435 270 465 264 q 347 304 406 276 q 265 333 292 333 q 222 315 238 333 q 206 258 206 296 l 61 258 q 79 383 61 331 q 135 462 97 435 q 231 489 174 489 z "},"~":{"ha":717,"x_min":61,"x_max":656,"o":"m 231 628 q 364 586 281 628 q 453 557 425 557 q 497 574 483 557 q 511 625 511 590 l 656 625 q 644 528 656 581 q 593 440 632 476 q 486 403 554 403 q 435 409 465 403 q 347 443 406 415 q 265 472 292 472 q 222 453 238 472 q 206 397 206 435 l 61 397 q 79 522 61 469 q 135 601 97 574 q 231 628 174 628 z "},"¬":{"ha":710,"x_min":64,"x_max":644,"o":"m 644 586 l 644 194 l 482 194 l 482 428 l 64 428 l 64 586 l 644 586 z "},"∞":{"ha":950,"x_min":46,"x_max":904,"o":"m 693 719 q 847 660 789 719 q 904 497 904 600 l 904 439 q 847 276 904 336 q 696 217 790 217 q 586 245 639 217 q 471 365 533 274 q 360 244 410 272 q 254 217 311 217 q 103 276 161 217 q 46 439 46 336 l 46 497 q 104 660 46 600 q 257 719 163 719 q 360 696 307 719 q 471 596 413 672 q 693 719 565 719 m 279 365 q 328 385 304 365 q 396 481 351 404 q 338 549 364 528 q 281 571 313 571 q 227 547 247 571 q 207 486 207 524 l 207 450 q 226 389 207 413 q 279 365 246 365 m 743 450 l 743 486 q 723 547 743 524 q 668 571 703 571 q 607 549 636 571 q 546 482 578 528 q 618 386 592 407 q 671 365 644 365 q 724 389 704 365 q 743 450 743 413 z "},"∫":{"ha":481,"x_min":-58,"x_max":539,"o":"m 450 1069 l 539 1069 l 539 917 l 479 917 q 388 881 417 917 q 353 768 360 846 l 293 -11 q 221 -214 282 -149 q 31 -279 160 -279 l -58 -279 l -58 -126 l 1 -126 q 93 -91 64 -126 q 128 21 122 -56 l 188 800 q 220 944 194 886 q 300 1035 246 1001 q 450 1069 354 1069 z "}}}
